<svg width="199" height="88" viewBox="0 0 199 88" fill="none" xmlns="http://www.w3.org/2000/svg">
<path fill-rule="evenodd" clip-rule="evenodd" d="M50.6939 78.8027C53.0098 80.0962 54.2421 83.0309 54.4121 85.9205H54.8087C55.0097 82.9783 54.2662 79.5676 51.5703 77.4915C51.4226 77.3792 51.2689 77.2718 51.112 77.1715C50.9291 77.0525 50.711 77.015 50.5016 77.0747C50.2923 77.1339 50.1088 77.2855 49.9956 77.4886C49.8824 77.6918 49.85 77.9278 49.9095 78.1373C49.9687 78.3472 50.115 78.5135 50.3122 78.6068C50.4403 78.6659 50.5684 78.7317 50.6939 78.8027Z" fill="#EAD0B0"/>
<path fill-rule="evenodd" clip-rule="evenodd" d="M185.679 27.2086C186.423 26.5577 187.16 25.8546 187.883 25.1107C187.206 25.8518 186.474 26.5535 185.679 27.2086Z" fill="#34221B"/>
<path fill-rule="evenodd" clip-rule="evenodd" d="M139.989 85.9203C139.994 86.0117 139.998 86.1033 140.002 86.1968C140.003 86.2376 140.022 86.2773 140.052 86.307C140.081 86.3368 140.12 86.3542 140.161 86.3554C140.202 86.3566 140.242 86.3416 140.273 86.3136C140.305 86.2857 140.326 86.2472 140.33 86.2065C140.339 86.11 140.347 86.0151 140.354 85.9203H139.989Z" fill="#34221B"/>
<path d="M77.0376 77.0747C77.247 77.015 77.4651 77.0525 77.648 77.1715C77.8049 77.2718 77.9586 77.3792 78.1063 77.4915C80.8017 79.5673 81.5454 82.9771 81.3448 85.919C81.3443 85.9265 81.3438 85.934 81.3432 85.9415C81.3326 86.1087 81.3194 86.2725 81.3034 86.4413C81.2995 86.482 81.2787 86.5205 81.2471 86.5485C81.2154 86.5764 81.1756 86.5914 81.1348 86.5902C81.0941 86.589 81.0553 86.5716 81.0253 86.5418C80.9955 86.5121 80.977 86.4724 80.9754 86.4316C80.9694 86.2656 80.9606 86.1052 80.9494 85.9423C80.949 85.9351 80.9486 85.9278 80.9481 85.9205C80.7781 83.0309 79.5457 80.0962 77.2299 78.8027C77.1044 78.7317 76.9763 78.6659 76.8482 78.6068C76.651 78.5135 76.5047 78.3472 76.4455 78.1373C76.386 77.9278 76.4184 77.6918 76.5316 77.4886C76.6449 77.2855 76.8284 77.1339 77.0376 77.0747Z" fill="#34221B"/>
<path d="M50.5016 77.0747C50.711 77.015 50.9291 77.0525 51.112 77.1715C51.2689 77.2718 51.4226 77.3792 51.5703 77.4915C54.2662 79.5676 55.0097 82.9783 54.8087 85.9205C54.8082 85.9275 54.8077 85.9345 54.8072 85.9415C54.7966 86.1087 54.7833 86.2725 54.7674 86.4413C54.7635 86.482 54.7426 86.5205 54.7111 86.5485C54.6794 86.5764 54.6396 86.5914 54.5988 86.5902C54.5581 86.589 54.5193 86.5716 54.4893 86.5418C54.4595 86.5121 54.4409 86.4724 54.4394 86.4316C54.4334 86.2656 54.4246 86.1052 54.4134 85.9423C54.413 85.9351 54.4126 85.9278 54.4121 85.9205C54.2421 83.0309 53.0098 80.0962 50.6939 78.8027C50.5684 78.7317 50.4403 78.6659 50.3122 78.6068C50.115 78.5135 49.9687 78.3472 49.9095 78.1373C49.85 77.9278 49.8824 77.6918 49.9956 77.4886C50.1088 77.2855 50.2923 77.1339 50.5016 77.0747Z" fill="#34221B"/>
<path d="M114.414 85.9205C114.367 85.7675 114.293 85.6245 114.195 85.4998C113.979 85.226 113.661 85.0624 113.314 85.0365C112.962 85.011 112.633 84.9746 112.288 84.9203C105.968 84.1216 101.943 77.1419 101.624 70.5733C101.608 70.2023 101.606 69.828 101.621 69.4667C101.623 69.4114 101.612 69.3562 101.589 69.3055C101.574 69.27 101.552 69.2367 101.526 69.2071C101.463 69.135 101.376 69.0902 101.282 69.0823C101.188 69.0745 101.095 69.1042 101.021 69.1647C100.946 69.2252 100.896 69.3117 100.885 69.4051C100.844 69.7288 100.817 70.0618 100.8 70.3941C100.798 70.4268 100.797 70.4595 100.795 70.4922C100.794 70.5196 100.793 70.547 100.792 70.5744C100.788 70.6843 100.786 70.7947 100.784 70.9054C100.777 71.3841 100.788 71.8695 100.818 72.3587C100.92 74.0611 101.244 75.8104 101.798 77.4915C102.33 79.1025 103.074 80.6508 104.039 82.035C105.836 84.6122 108.398 86.6203 111.781 87.4045C112.195 87.5048 112.588 87.5833 113.01 87.6487C113.354 87.7036 113.7 87.6176 113.973 87.401C114.246 87.1849 114.424 86.856 114.466 86.495C114.489 86.2988 114.47 86.1026 114.414 85.9205Z" fill="#34221B"/>
<path fill-rule="evenodd" clip-rule="evenodd" d="M177.68 31.097C175.149 31.39 172.552 31.3321 170.093 31.07C169.881 31.0388 169.663 31.0008 169.47 30.9571C169.268 30.9124 169.059 30.951 168.889 31.0682C168.718 31.1851 168.6 31.3712 168.561 31.5815C168.522 31.7918 168.565 32.008 168.682 32.1787C168.799 32.3495 168.98 32.461 169.184 32.4922C169.431 32.5305 169.685 32.5576 169.925 32.5769C173.791 32.7258 177.575 32.4416 181.208 31.238C180.9 31.1874 180.6 31.1496 180.31 31.1232C180.121 31.106 179.937 31.0936 179.758 31.0856C178.86 31.0455 178.081 31.1145 177.481 31.2401C177.529 31.2048 177.579 31.1692 177.629 31.1333L177.658 31.1125L177.68 31.097Z" fill="#34221B"/>
<path fill-rule="evenodd" clip-rule="evenodd" d="M184.976 27.7921L185 27.7868C187.787 27.1702 190.72 27.3283 192.999 29.2612C198.927 34.2903 196.025 43.3123 191.501 38.635C189.966 36.1124 188.161 34.3805 186.338 33.2179C184.567 32.0883 182.779 31.496 181.208 31.238C180.9 31.1874 180.6 31.1496 180.31 31.1232C180.121 31.106 179.937 31.0936 179.758 31.0856C178.86 31.0455 178.081 31.1145 177.481 31.2401C177.529 31.2048 177.579 31.1692 177.629 31.1333L177.658 31.1125L177.68 31.097C178.785 30.315 180.345 29.4097 182.105 28.6986C183.003 28.336 183.953 28.0238 184.922 27.8043C184.94 27.8002 184.958 27.7961 184.976 27.7921ZM186.744 27.5191C186.714 27.5139 186.681 27.5215 186.655 27.5395C186.628 27.5575 186.61 27.5844 186.603 27.615C186.597 27.6456 186.603 27.6776 186.619 27.7049C186.636 27.7321 186.663 27.7522 186.693 27.7602C186.897 27.8137 187.1 27.8785 187.299 27.952C190.795 29.3794 193.556 32.9233 193.784 36.4273C193.787 36.6184 193.779 36.807 193.758 36.9896C193.739 37.174 193.794 37.3554 193.917 37.4942C194.039 37.6329 194.219 37.7177 194.412 37.7295C194.605 37.7413 194.793 37.6792 194.932 37.5564C195.07 37.4337 195.147 37.2603 195.15 37.0749C195.156 36.8276 195.144 36.5811 195.119 36.3388C194.396 32.0675 191.16 28.8804 187.391 27.6623C187.178 27.6043 186.961 27.5557 186.744 27.5191Z" fill="#F1A4AC"/>
<path d="M186.655 27.5395C186.681 27.5215 186.714 27.5139 186.744 27.5191C186.961 27.5557 187.178 27.6043 187.391 27.6623C191.16 28.8804 194.396 32.0675 195.119 36.3388C195.144 36.5811 195.156 36.8276 195.15 37.0749C195.147 37.2603 195.07 37.4337 194.932 37.5564C194.793 37.6792 194.605 37.7413 194.412 37.7295C194.219 37.7177 194.039 37.6329 193.917 37.4942C193.794 37.3554 193.739 37.174 193.758 36.9896C193.779 36.807 193.787 36.6184 193.784 36.4273C193.556 32.9233 190.795 29.3794 187.299 27.952C187.1 27.8785 186.897 27.8137 186.693 27.7602C186.663 27.7522 186.636 27.7321 186.619 27.7049C186.603 27.6776 186.597 27.6456 186.603 27.615C186.61 27.5844 186.628 27.5575 186.655 27.5395Z" fill="#34221B"/>
<path fill-rule="evenodd" clip-rule="evenodd" d="M140.356 85.8958C140.358 85.8782 140.359 85.8606 140.36 85.8429C140.359 85.8612 140.358 85.8772 140.356 85.8958Z" fill="#EAD0B0"/>
<path d="M187.883 25.1107C193.367 19.4624 197.99 11.4571 198.047 6.03649C197.474 6.37368 196.924 6.66619 196.396 6.91759C196.373 7.01022 196.349 7.10277 196.325 7.19506C194.471 13.4545 192.405 20.1603 187.883 25.1107Z" fill="#EAD0B0"/>
<path fill-rule="evenodd" clip-rule="evenodd" d="M184.976 27.7921C184.958 27.7961 184.94 27.8002 184.922 27.8043C185.18 27.6104 185.433 27.4117 185.679 27.2086C185.453 27.4062 185.227 27.5991 185 27.7868L184.976 27.7921ZM175.062 85.7794C175.06 85.8034 175.058 85.8298 175.056 85.8536C175.056 85.8606 175.055 85.8676 175.055 85.8745C175.054 85.8898 175.053 85.9051 175.052 85.9203H174.68C174.686 86.0272 174.691 86.1343 174.695 86.2437C174.697 86.2846 174.715 86.3243 174.745 86.354C174.775 86.3837 174.814 86.4011 174.855 86.4023C174.895 86.4035 174.935 86.3885 174.967 86.3606C174.999 86.3327 175.019 86.2942 175.023 86.2535C175.028 86.2073 175.032 86.1614 175.036 86.1158C175.042 86.0504 175.047 85.9854 175.052 85.9203C175.053 85.9051 175.054 85.8898 175.055 85.8745C175.057 85.8437 175.059 85.8104 175.062 85.7794Z" fill="#34221B"/>
<path d="M171.368 76.9837C171.185 76.8646 170.967 76.8272 170.757 76.8868C170.548 76.9461 170.365 77.0976 170.252 77.3008C170.138 77.5039 170.106 77.74 170.165 77.9494C170.225 78.1593 170.371 78.3256 170.568 78.419C170.696 78.478 170.824 78.5439 170.95 78.6148C173.271 79.9116 174.504 82.8578 174.669 85.7545C174.673 85.8099 174.677 85.8651 174.68 85.9203H175.052C175.053 85.9051 175.054 85.8898 175.055 85.8745L175.056 85.8536C175.058 85.8298 175.06 85.8034 175.062 85.7794L175.063 85.7537C175.269 82.8067 174.529 79.3847 171.826 77.3036C171.678 77.1914 171.525 77.084 171.368 76.9837Z" fill="#34221B"/>
<path fill-rule="evenodd" clip-rule="evenodd" d="M81.2275 75.0688C84.0603 76.7464 85.3853 80.2122 85.2511 82.9879C85.1583 84.9072 83.263 85.8755 81.3448 85.919C81.5454 82.9771 80.8017 79.5673 78.1063 77.4915C77.9586 77.3792 77.8049 77.2718 77.648 77.1715C77.4651 77.0525 77.247 77.015 77.0376 77.0747C76.8284 77.1339 76.6449 77.2855 76.5316 77.4886C76.4184 77.6918 76.386 77.9278 76.4455 78.1373C76.5047 78.3472 76.651 78.5135 76.8482 78.6068C76.9763 78.6659 77.1044 78.7317 77.2299 78.8027C79.5457 80.0962 80.7781 83.0309 80.9481 85.9205H71.1255C68.1606 85.9205 65.5937 83.8458 65.0376 80.9286C64.798 79.672 64.5569 78.3549 64.3378 77.0747L76.5316 70.6272C77.2211 72.6404 79.9495 74.4271 81.2275 75.0688Z" fill="#C6A98A"/>
<path fill-rule="evenodd" clip-rule="evenodd" d="M67.2368 65.4016C63.3455 68.3833 57.9396 69.2481 53.4121 67.6252C55.757 68.8099 58.2381 69.7074 60.7763 70.1636C62.478 71.5729 63.7591 73.5216 64.0998 75.6415C64.1751 76.1104 64.2549 76.5899 64.3378 77.0747L76.5316 70.6272C75.9028 68.7911 75.4255 68.118 75.2193 67.9714L75.1674 67.9431L67.2368 65.4016Z" fill="#C6A98A"/>
<path fill-rule="evenodd" clip-rule="evenodd" d="M34.9876 56.1457C34.9859 56.1831 34.9841 56.2203 34.9822 56.2574C34.9853 56.2189 34.9871 56.1816 34.9876 56.1457Z" fill="#EAD0B0"/>
<path fill-rule="evenodd" clip-rule="evenodd" d="M190.646 0.601192C192.175 -0.141719 194.016 -0.294055 195.391 0.70706C197.302 2.09921 198.068 3.94892 198.047 6.03649C197.474 6.37368 196.924 6.66619 196.396 6.91759C196.373 7.01022 196.349 7.10277 196.325 7.19506C194.471 13.4545 192.405 20.1603 187.883 25.1107C187.16 25.8546 186.423 26.5577 185.679 27.2086C185.433 27.4117 185.18 27.6104 184.922 27.8043C183.953 28.0238 183.003 28.336 182.105 28.6986C182.082 28.6637 182.062 28.6266 182.047 28.5874C181.982 28.4292 181.982 28.2515 182.048 28.0916C182.113 27.9317 182.237 27.8027 182.393 27.7348C182.77 27.5708 183.137 27.3746 183.491 27.1528C189.38 22.8439 191.921 15.0904 193.751 7.89913C188.362 9.27262 186.022 5.64424 185.5 3.1869C187.335 2.24017 189.068 1.36739 190.646 0.601192ZM188.214 3.35521C188.348 2.68417 191.396 1.31018 192.903 0.70706C195.391 1.02455e-07 193.165 2.7135 191.563 3.35521C190.726 3.69073 188.046 4.19402 188.214 3.35521Z" fill="#34221B"/>
<path d="M192.903 0.70706C191.396 1.31018 188.348 2.68417 188.214 3.35521C188.046 4.19402 190.726 3.69073 191.563 3.35521C193.165 2.7135 195.391 1.02455e-07 192.903 0.70706Z" fill="white"/>
<path fill-rule="evenodd" clip-rule="evenodd" d="M157.154 22.5335C157.527 24.5218 160.098 25.7066 162.898 25.1798C165.697 24.6531 167.664 22.6142 167.291 20.6259C166.918 18.6376 164.347 17.4528 161.547 17.9796C158.748 18.5064 156.781 20.5452 157.154 22.5335ZM158.536 22.2734C158.616 22.6998 158.955 23.1749 159.704 23.5198C160.059 23.6835 160.482 23.8025 160.951 23.8591C160.671 23.1904 160.53 22.4641 160.473 21.7714C160.418 21.0927 160.439 20.4083 160.503 19.7734C159.957 20.0228 159.505 20.3426 159.172 20.6876C158.6 21.2811 158.456 21.847 158.536 22.2734Z" fill="#34221B"/>
<path fill-rule="evenodd" clip-rule="evenodd" d="M53.4121 67.6252C52.7939 67.3129 52.1852 66.9806 51.5875 66.6312C51.4833 66.6676 51.3811 66.7088 51.2811 66.7548C51.8601 67.029 52.4324 67.268 53.034 67.483C53.1593 67.5324 53.2853 67.5798 53.4121 67.6252Z" fill="#34221B"/>
<path d="M158.536 22.2734C158.616 22.6998 158.955 23.1749 159.704 23.5198C160.059 23.6835 160.482 23.8025 160.951 23.8591C160.671 23.1904 160.53 22.4641 160.473 21.7714C160.418 21.0927 160.439 20.4083 160.503 19.7734C159.957 20.0228 159.505 20.3426 159.172 20.6876C158.6 21.2811 158.456 21.847 158.536 22.2734Z" fill="white"/>
<path fill-rule="evenodd" clip-rule="evenodd" d="M5.1858 66.835C5.21274 66.8316 5.23721 66.8266 5.25907 66.8203C5.25485 66.8215 5.25042 66.8222 5.24595 66.8231C5.24416 66.8234 5.24775 66.8226 5.24595 66.8231C5.23904 66.8247 5.22649 66.8271 5.21912 66.8285C5.21586 66.8292 5.21136 66.8301 5.20803 66.8309C5.20084 66.8324 5.19346 66.834 5.1858 66.835Z" fill="#EAD0B0"/>
<path fill-rule="evenodd" clip-rule="evenodd" d="M165.036 74.884C163.064 75.2745 159.002 76.6741 158.532 79.1494C158.703 82.4135 157.142 84.263 152.447 85.9203H174.68C174.677 85.8651 174.673 85.8099 174.669 85.7545C174.504 82.8578 173.271 79.9116 170.95 78.6148C170.824 78.5439 170.696 78.478 170.568 78.419C170.371 78.3256 170.225 78.1593 170.165 77.9494C170.106 77.74 170.138 77.5039 170.252 77.3008C170.365 77.0976 170.548 76.9461 170.757 76.8868C170.967 76.8272 171.185 76.8646 171.368 76.9837C171.525 77.084 171.678 77.1914 171.826 77.3036C174.529 79.3847 175.269 82.8067 175.063 85.7537L175.062 85.7794C175.059 85.8104 175.057 85.8437 175.055 85.8745C175.054 85.8898 175.053 85.9051 175.052 85.9203H176.436C176.976 85.9203 177.561 85.8948 177.939 85.5092C179.242 84.1795 179.061 80.2417 176.911 77.3732C175.101 74.9587 171.897 73.3019 167.01 74.5963C166.364 74.7672 165.703 74.884 165.036 74.884Z" fill="#EAD0B0"/>
<path fill-rule="evenodd" clip-rule="evenodd" d="M144.383 85.9203L144.679 84.9954C144.732 84.8299 144.802 84.6706 144.889 84.5202C145.14 84.0868 145.25 83.5863 145.205 83.0876L145.087 81.7878L144.898 80.6837C144.806 80.1385 144.641 79.6079 144.41 79.1057L144.196 78.6412L143.499 77.5561C143.122 76.9687 142.65 76.4482 142.103 76.016L140.774 74.9673C140.154 74.478 139.447 74.11 138.691 73.8828L138.429 73.8041L137.35 73.6403C137.038 73.593 136.724 73.5692 136.409 73.5692H136.126C135.264 73.5692 134.411 73.7469 133.621 74.0911L132.663 74.5085C132.224 74.7558 131.745 74.9075 131.256 74.9614C130.748 75.0413 130.147 75.2136 129.515 75.4993C126.956 76.6549 123.889 79.6662 124.458 85.9204L139.989 85.9203C139.985 85.8494 139.981 85.7787 139.976 85.7075C139.81 82.8109 138.578 79.8647 136.256 78.5679C136.131 78.4969 136.003 78.4311 135.874 78.372C135.677 78.2786 135.531 78.1124 135.472 77.9025C135.412 77.693 135.445 77.457 135.558 77.2538C135.671 77.0507 135.855 76.8991 136.064 76.8399C136.273 76.7802 136.491 76.8177 136.674 76.9367C136.831 77.037 136.985 77.1444 137.132 77.2567C139.835 79.3377 140.575 82.7598 140.369 85.7067L140.367 85.7456L140.364 85.783C140.363 85.8016 140.361 85.8243 140.36 85.8429C140.359 85.8606 140.358 85.8782 140.356 85.8958L140.354 85.9203H144.383Z" fill="#EAD0B0"/>
<path fill-rule="evenodd" clip-rule="evenodd" d="M140.354 85.9203H139.989C139.985 85.8494 139.981 85.7787 139.976 85.7075C139.81 82.8109 138.578 79.8647 136.256 78.5679C136.131 78.4969 136.003 78.4311 135.874 78.372C135.677 78.2786 135.531 78.1124 135.472 77.9025C135.412 77.693 135.445 77.457 135.558 77.2538C135.671 77.0507 135.855 76.8991 136.064 76.8399C136.273 76.7802 136.491 76.8177 136.674 76.9367C136.831 77.037 136.985 77.1444 137.132 77.2567C139.835 79.3377 140.575 82.7598 140.369 85.7067L140.367 85.7456L140.364 85.783C140.363 85.8016 140.361 85.8243 140.36 85.8429C140.359 85.8606 140.358 85.8782 140.356 85.8958L140.354 85.9203Z" fill="#34221B"/>
<path fill-rule="evenodd" clip-rule="evenodd" d="M153.27 60.5786C153.285 60.6647 153.302 60.744 153.319 60.8131C153.357 60.9575 153.398 61.0977 153.444 61.2349C153.384 61.0179 153.326 60.7991 153.27 60.5786Z" fill="#C6A98A"/>
<path fill-rule="evenodd" clip-rule="evenodd" d="M153.319 60.8131C153.302 60.744 153.285 60.6647 153.27 60.5786C153.326 60.7991 153.384 61.0179 153.444 61.2349C153.398 61.0977 153.357 60.9575 153.319 60.8131Z" fill="white"/>
<path fill-rule="evenodd" clip-rule="evenodd" d="M150.379 38.0622C149.414 29.5778 148.656 21.4112 149.634 17.2606C147.514 18.1494 145.794 18.8734 144.351 19.5165C142.102 18.9202 137.856 18.1761 136.204 19.3192C137.015 19.5607 137.72 19.6502 138.343 19.7291C139.343 19.8559 140.132 19.9558 140.805 20.6145C138.154 20.9804 134.507 21.5234 133.029 23.8612C134.756 23.3186 136.702 22.985 137.459 22.886C135.654 24.1964 132.338 27.0852 130.447 30.1527C129.856 31.1099 129.405 32.0844 129.182 33.0338C129.75 32.4249 131.114 31.165 132.024 30.996C131.56 31.6419 130.633 32.5199 129.582 33.5158C129.178 33.8989 128.753 34.3018 128.331 34.7135C126.725 36.2799 125.13 38.0066 124.604 39.5388C125.391 39.0099 126.294 38.6057 126.867 38.3847C127.02 38.3261 127.149 38.2804 127.247 38.2487C127.097 38.3818 126.936 38.5276 126.766 38.6842C124.72 40.5678 121.359 44.0083 121.211 45.5825C121.985 44.981 124.737 43.4432 125.401 43.3409C123.722 44.9587 120.367 48.8485 120.375 51.4654C120.916 50.3775 122.156 49.6415 122.708 49.4095C121.575 53.0305 119.545 61.4109 120.491 65.9648C121.11 65.0127 122.386 62.7829 122.533 61.4798C122.104 66.4965 120.949 68.3907 120.166 68.6533C120.702 68.6852 121.879 68.6019 122.302 68.013C121.241 69.6108 121.558 71.4197 121.673 71.6571L131.256 74.9614C131.745 74.9075 132.224 74.7558 132.663 74.5085L133.621 74.0911C134.411 73.7469 135.264 73.5692 136.126 73.5692H136.409C136.724 73.5692 137.038 73.593 137.35 73.6403L138.429 73.8041L138.691 73.8828C139.447 74.11 140.154 74.478 140.774 74.9673L142.103 76.016C142.65 76.4482 143.122 76.9687 143.499 77.5561L144.196 78.6412L144.41 79.1057C144.641 79.6079 144.806 80.1385 144.898 80.6837L145.087 81.7878L145.205 83.0876C145.25 83.5863 145.14 84.0868 144.889 84.5202C144.802 84.6706 144.732 84.8299 144.679 84.9954L144.383 85.9203H152.447C157.142 84.263 158.703 82.4135 158.532 79.1494C158.469 77.9413 158.169 76.5396 157.702 74.882L157.679 74.7983L157.65 74.6963C157.235 73.2438 156.698 71.5977 156.084 69.7176C155.487 67.887 154.816 65.8325 154.117 63.5204C153.937 62.9266 153.755 62.3159 153.573 61.6876C153.529 61.5376 153.486 61.3867 153.444 61.2349C153.398 61.0977 153.357 60.9575 153.319 60.8131C153.302 60.744 153.285 60.6647 153.27 60.5786C153.121 59.998 152.985 59.4057 152.861 58.8031C152.465 56.8932 152.186 54.8804 152.003 52.8116C151.903 51.6824 151.788 50.511 151.661 49.3095C151.414 46.9637 151.127 44.5038 150.837 42.0219C150.683 40.7036 150.528 39.3791 150.379 38.0622Z" fill="#C6A98A"/>
<path fill-rule="evenodd" clip-rule="evenodd" d="M54.4121 85.9205C54.2421 83.0309 53.0098 80.0962 50.6939 78.8027C50.5684 78.7317 50.4403 78.6659 50.3122 78.6068C50.115 78.5135 49.9687 78.3472 49.9095 78.1373C49.85 77.9278 49.8824 77.6918 49.9956 77.4886C50.1088 77.2855 50.2923 77.1339 50.5016 77.0747C50.711 77.015 50.9291 77.0525 51.112 77.1715C51.2689 77.2718 51.4226 77.3792 51.5703 77.4915C54.2662 79.5676 55.0097 82.9783 54.8087 85.9205H56.477C60.7363 85.9205 58.8672 77.2842 53.6222 74.7428C52.2239 74.0653 50.7042 72.9259 49.9095 71.5698C48.336 70.3609 45.524 67.4062 46.8639 65.2589C47.7607 63.8215 50.2904 63.8274 53.0643 63.8338C55.4703 63.8394 58.06 63.8453 59.927 62.9102C60.892 62.4269 62.0953 61.8179 63.3885 61.0112L67.7822 58.0135C69.9272 56.0081 74.2172 50.7081 74.2172 45.5513C74.2172 49.9455 73.6068 53.2163 72.8813 55.6158C72.6899 56.2488 72.4905 56.8212 72.2922 57.3376C72.2042 57.5668 72.1164 57.7849 72.0296 57.9924C71.6945 58.8195 71.2729 59.8309 70.9138 60.6266C73.0702 61.2447 91.5818 67.6861 100.784 70.9054C100.786 70.7947 100.788 70.6843 100.792 70.5744L100.795 70.4922L100.798 70.4365L100.8 70.3941C100.817 70.0618 100.844 69.7288 100.885 69.4051C100.896 69.3117 100.946 69.2252 101.021 69.1647C101.095 69.1042 101.188 69.0745 101.282 69.0823C101.376 69.0902 101.463 69.135 101.526 69.2071C101.552 69.2367 101.574 69.27 101.589 69.3055C101.612 69.3562 101.623 69.4114 101.621 69.4667C101.606 69.828 101.608 70.2023 101.624 70.5733C101.943 77.1419 105.968 84.1216 112.288 84.9203C112.633 84.9746 112.962 85.011 113.314 85.0365C113.661 85.0624 113.979 85.226 114.195 85.4998C114.293 85.6245 114.367 85.7675 114.414 85.9205L124.458 85.9204C123.889 79.6662 126.956 76.6549 129.515 75.4993C130.147 75.2136 130.748 75.0413 131.256 74.9614L121.673 71.6571C121.558 71.4197 121.241 69.6108 122.302 68.013C121.879 68.6019 120.702 68.6852 120.166 68.6533C120.949 68.3907 122.104 66.4965 122.533 61.4798C122.386 62.7829 121.11 65.0127 120.491 65.9648C119.545 61.4109 121.575 53.0305 122.708 49.4095C122.156 49.6415 120.916 50.3775 120.375 51.4654C120.367 48.8485 123.722 44.9587 125.401 43.3409C124.737 43.4432 121.985 44.981 121.211 45.5825C121.359 44.0083 124.72 40.5678 126.766 38.6842C126.936 38.5276 127.097 38.3818 127.247 38.2487C127.149 38.2804 127.02 38.3261 126.867 38.3847C126.294 38.6057 125.391 39.0099 124.604 39.5388C125.13 38.0066 126.725 36.2799 128.331 34.7135C128.753 34.3018 129.178 33.8989 129.582 33.5158C130.633 32.5199 131.56 31.6419 132.024 30.996C131.114 31.165 129.75 32.4249 129.182 33.0338C129.405 32.0844 129.856 31.1099 130.447 30.1527C108.028 36.6524 83.9037 30.2677 65.2812 25.3391C63.9192 24.7828 62.6033 24.3408 61.3015 24.0002C57.4843 23.0016 53.7893 22.8744 49.4164 23.2901C45.3042 23.8759 39.7006 25.5094 35.7063 30.083C35.0001 30.8916 34.1148 32.0357 33.7096 32.9943C31.7304 35.9524 30.0077 39.7651 28.214 43.7347C23.0373 55.1913 17.2698 67.9553 3.04472 65.2589C3.97375 66.6303 4.81455 66.8821 5.1858 66.835C4.17339 67.0249 1.83639 66.9617 0 65.2589C2.11176e-06 67.3748 3.59831 70.8406 11.6253 68.6225C8.19307 70.397 5.95105 71.2103 5.25907 71.3951C6.87369 71.9035 11.2932 72.3101 16.054 69.8702C15.6111 71.312 13.7474 72.2269 12.8709 72.5042C15.4543 72.6428 21.7006 71.811 26.0185 67.3748C25.6864 68.373 24.9575 69.824 24.6346 70.4247C25.8801 70.0088 28.6481 67.7076 29.7552 61.8296C29.4231 65.0458 29.4323 66.0347 29.4784 66.1272C31.2694 63.634 34.8233 58.2416 34.9822 56.2574C34.8973 57.9496 34.675 59.278 34.2465 59.8835C32.4609 62.407 30.6186 66.8472 34.8056 70.795C38.1551 73.9533 38.4342 82.1946 38.1551 85.9205H54.4121ZM5.1858 66.835L5.21912 66.8285L5.24595 66.8231L5.25907 66.8203C5.23721 66.8266 5.21274 66.8316 5.1858 66.835Z" fill="#EAD0B0"/>
<path fill-rule="evenodd" clip-rule="evenodd" d="M161.249 41.212C167.328 39.0506 177.822 36.0816 184.195 34.3303C184.98 33.9322 185.701 33.5586 186.338 33.2179C184.567 32.0883 182.779 31.496 181.208 31.238C177.575 32.4416 173.791 32.7258 169.925 32.5769C169.685 32.5576 169.431 32.5305 169.184 32.4922C168.98 32.461 168.799 32.3495 168.682 32.1787C168.565 32.008 168.522 31.7918 168.561 31.5815C168.6 31.3712 168.718 31.1851 168.889 31.0682C169.059 30.951 169.268 30.9124 169.47 30.9571C169.663 31.0008 169.881 31.0388 170.093 31.07C172.552 31.3321 175.149 31.39 177.68 31.097C178.785 30.315 180.345 29.4097 182.105 28.6986C182.082 28.6637 182.062 28.6266 182.047 28.5874C181.982 28.4292 181.982 28.2515 182.048 28.0916C182.113 27.9317 182.237 27.8027 182.393 27.7348C182.77 27.5708 183.137 27.3746 183.491 27.1528C189.38 22.8439 191.921 15.0904 193.751 7.89913C188.362 9.27262 186.022 5.64424 185.5 3.1869C177.488 6.20723 159.099 13.2504 149.634 17.2606C148.656 21.4112 149.414 29.5778 150.379 38.0622C150.528 39.3791 150.683 40.7036 150.837 42.0219C151.127 44.5038 151.414 46.9637 151.661 49.3095C151.788 50.511 151.903 51.6824 152.003 52.8116C152.186 54.8804 152.465 56.8932 152.861 58.8031C152.985 59.4057 153.121 59.998 153.27 60.5786C153.326 60.7991 153.384 61.0179 153.444 61.2349C153.486 61.3867 153.529 61.5376 153.573 61.6876C153.755 62.3159 153.937 62.9266 154.117 63.5204C154.816 65.8325 155.487 67.887 156.084 69.7176C156.698 71.5977 157.235 73.2438 157.65 74.6963L157.679 74.7983L157.702 74.882C161.924 71.9078 166.395 63.0454 166.357 52.9694C166.356 52.4347 166.341 51.8966 166.313 51.3557C166.286 50.8477 166.25 50.3372 166.202 49.8249C160.854 49.8249 158.135 47.364 157.444 46.1335C156.646 46.315 156.157 46.301 156.157 45.981C156.157 45.9046 156.478 45.7159 157.015 45.4548C155.985 43.4503 159.409 41.7911 161.249 41.212ZM162.898 25.1798C160.098 25.7066 157.527 24.5218 157.154 22.5335C156.781 20.5452 158.748 18.5064 161.547 17.9796C164.347 17.4528 166.918 18.6376 167.291 20.6259C167.664 22.6142 165.697 24.6531 162.898 25.1798Z" fill="#EAD0B0"/>
<path fill-rule="evenodd" clip-rule="evenodd" d="M170.41 40.0961L165.924 41.7568C163.392 42.7405 158.891 44.5411 157.015 45.4548C156.478 45.7159 156.157 45.9046 156.157 45.981C156.157 46.301 156.646 46.315 157.444 46.1335C158.975 45.7848 161.642 44.7149 164.15 43.7085C165.595 43.1283 166.989 42.5693 168.082 42.1817L169.351 41.6305L170.776 41.0113C170.893 40.9606 170.985 40.8641 171.034 40.7448C171.053 40.7007 171.064 40.6548 171.069 40.6085C171.078 40.5296 171.067 40.4495 171.037 40.3751C170.99 40.257 170.898 40.1623 170.78 40.1099C170.662 40.0577 170.529 40.052 170.41 40.0961Z" fill="#34221B"/>
<path fill-rule="evenodd" clip-rule="evenodd" d="M168.082 42.1817C166.44 43.5335 165.665 45.7695 165.981 47.9604C166.071 48.5838 166.145 49.2057 166.202 49.8249C160.854 49.8249 158.135 47.364 157.444 46.1335C158.975 45.7848 161.642 44.7149 164.15 43.7085C165.595 43.1283 166.989 42.5693 168.082 42.1817Z" fill="#C6A98A"/>
<path fill-rule="evenodd" clip-rule="evenodd" d="M170.41 40.0961C170.529 40.052 170.662 40.0577 170.78 40.1099C170.898 40.1623 170.99 40.257 171.037 40.3751C171.067 40.4495 171.078 40.5296 171.069 40.6085C175.546 38.5416 180.56 36.1731 184.195 34.3303C177.822 36.0816 167.328 39.0506 161.249 41.212C159.409 41.7911 155.985 43.4503 157.015 45.4548C158.891 44.5411 163.392 42.7405 165.924 41.7568L170.41 40.0961Z" fill="#C6A98A"/>
<path fill-rule="evenodd" clip-rule="evenodd" d="M162.818 25.3889C160.013 25.9191 157.435 24.734 157.06 22.741C156.685 20.7499 158.654 18.7054 161.459 18.1752C164.264 17.6449 166.841 18.83 167.218 20.8211C167.592 22.814 165.622 24.8586 162.818 25.3889ZM161.199 18.6217C161.199 18.6217 160.126 20.8406 160.435 22.2605C160.721 23.5755 162.389 25.0986 162.389 25.0986C160.933 25.2161 158.039 24.8104 157.607 22.2605C157.607 20.2374 160.627 18.7142 161.199 18.6217Z" fill="#34221B"/>
<path d="M161.199 18.6217C161.199 18.6217 160.126 20.8406 160.435 22.2605C160.721 23.5755 162.389 25.0986 162.389 25.0986C160.933 25.2161 158.039 24.8104 157.607 22.2605C157.607 20.2374 160.627 18.7142 161.199 18.6217Z" fill="white"/>
<path fill-rule="evenodd" clip-rule="evenodd" d="M70.1744 61.9675C69.3919 63.1443 68.041 64.6037 67.2368 65.4016L75.1674 67.9431C75.1748 67.9455 75.1829 67.9491 75.1916 67.9539C75.2002 67.9585 75.2095 67.9644 75.2193 67.9714C83.657 72.5664 101.15 81.7671 104.039 82.035C103.074 80.6508 102.33 79.1025 101.798 77.4915C101.244 75.8104 100.92 74.0611 100.818 72.3587C100.788 71.8695 100.777 71.3841 100.784 70.9054C91.5818 67.6861 73.0702 61.2447 70.9138 60.6266C70.5562 61.4191 70.2606 61.9977 70.1744 61.9675Z" fill="#927D64"/>
<path fill-rule="evenodd" clip-rule="evenodd" d="M65.9781 64.3403C67.721 62.9553 70.9456 59.9638 72.2922 57.3376C72.4905 56.8212 72.6899 56.2488 72.8813 55.6158C73.6068 53.2163 74.2172 49.9455 74.2172 45.5513C74.2172 50.7081 69.9272 56.0081 67.7822 58.0135L63.3885 61.0112C62.0953 61.8179 60.892 62.4269 59.927 62.9102C58.06 63.8453 55.4703 63.8394 53.0643 63.8338C50.2904 63.8274 47.7607 63.8215 46.8639 65.2589C45.524 67.4062 48.336 70.3609 49.9095 71.5698C49.4545 70.7933 49.2371 69.9457 49.4164 69.0732C49.6389 67.99 50.3643 67.1759 51.2811 66.7548L51.2483 66.7393C51.1699 66.7018 51.1092 66.6337 51.0789 66.5512C51.0486 66.4685 51.0511 66.3779 51.0868 66.2985C51.1224 66.2192 51.1882 66.1571 51.2699 66.1249C51.3517 66.0928 51.4431 66.0933 51.5231 66.1272C52.1048 66.3735 52.6757 66.5827 53.2718 66.7668C58.2102 68.5298 62.604 67.2307 65.9781 64.3403Z" fill="#C6A98A"/>
<path fill-rule="evenodd" clip-rule="evenodd" d="M72.0296 57.9924C72.1253 57.756 72.214 57.5346 72.2922 57.3376C72.2042 57.5668 72.1164 57.7849 72.0296 57.9924Z" fill="#34221B"/>
<path fill-rule="evenodd" clip-rule="evenodd" d="M53.4121 67.6252C57.9396 69.2481 63.3455 68.3833 67.2368 65.4016C68.041 64.6037 69.3919 63.1443 70.1744 61.9675C70.2606 61.9977 70.5562 61.4191 70.9138 60.6266C71.2729 59.8309 71.6945 58.8195 72.0296 57.9924C72.1253 57.756 72.214 57.5346 72.2922 57.3376C70.9456 59.9638 67.721 62.9553 65.9781 64.3403C62.604 67.2307 58.2102 68.5298 53.2718 66.7668C52.6757 66.5827 52.1048 66.3735 51.5231 66.1272C51.4431 66.0933 51.3517 66.0928 51.2699 66.1249C51.1882 66.1571 51.1224 66.2192 51.0868 66.2985C51.0511 66.3779 51.0486 66.4685 51.0789 66.5512C51.1092 66.6337 51.1699 66.7018 51.2483 66.7393L51.2811 66.7548C51.3811 66.7088 51.4833 66.6676 51.5875 66.6312C52.1852 66.9806 52.7939 67.3129 53.4121 67.6252Z" fill="#34221B"/>
<path d="M168.082 42.1817C166.44 43.5335 165.665 45.7695 165.981 47.9604C166.071 48.5838 166.145 49.2057 166.202 49.8249C166.25 50.3372 166.286 50.8477 166.313 51.3557C166.341 51.8966 166.356 52.4347 166.357 52.9694C166.395 63.0454 161.924 71.9078 157.702 74.882C158.169 76.5396 158.469 77.9413 158.532 79.1494C159.002 76.6741 163.064 75.2745 165.036 74.884C165.703 74.884 166.364 74.7672 167.01 74.5963C171.897 73.3019 175.101 74.9587 176.911 77.3732C176.956 77.4359 177.388 77.0085 178.749 74.7983C180.101 72.6023 173.093 51.9022 169.351 41.6305L168.082 42.1817Z" fill="#A58A6D"/>
</svg>
