<svg width="221" height="88" viewBox="0 0 221 88" fill="none" xmlns="http://www.w3.org/2000/svg">
<path fill-rule="evenodd" clip-rule="evenodd" d="M163.248 85.7579C163.248 85.7498 163.249 85.7416 163.25 85.7334C163.253 85.6836 163.257 85.6337 163.26 85.5836L163.263 85.5448C163.466 82.6048 162.723 79.1916 160.021 77.1178C159.873 77.006 159.72 76.899 159.563 76.7991C159.38 76.6804 159.162 76.6432 158.953 76.703C158.743 76.7622 158.56 76.9136 158.447 77.1163C158.334 77.3191 158.302 77.5546 158.362 77.7635C158.421 77.9729 158.568 78.1386 158.765 78.2316C158.893 78.2904 159.021 78.3559 159.146 78.4266C161.467 79.7183 162.702 82.6564 162.869 85.5459C162.874 85.6169 162.879 85.6875 162.883 85.7582L163.248 85.7579ZM77.7634 85.8305C77.9618 82.8953 77.2159 79.4934 74.5202 77.4245C74.3725 77.3127 74.2189 77.2057 74.0619 77.1058C73.8791 76.9871 73.6612 76.95 73.4519 77.0097C73.2429 77.069 73.0596 77.2203 72.9467 77.4231C72.8337 77.6258 72.8015 77.8613 72.8611 78.0702C72.9205 78.2796 73.0669 78.4453 73.264 78.5383C73.392 78.5971 73.5201 78.6627 73.6455 78.7333C75.9608 80.0218 77.1948 82.9484 77.3671 85.8309L77.7634 85.8305ZM57.1359 43.0648C57.2653 44.0697 57.4061 45.309 57.5344 46.658C57.3976 45.4084 57.2644 44.2056 57.1359 43.0648Z" fill="#855747"/>
<path fill-rule="evenodd" clip-rule="evenodd" d="M147.19 47.5891C149.068 39.9137 150.412 34.7964 154.015 29.9209L154.282 29.6311C161.272 22.041 161.409 21.892 172.463 17.2559C171.338 22.04 172.532 32.1688 173.686 41.9564C174.127 45.7 174.563 49.3936 174.86 52.7191C175.141 55.854 175.643 58.8596 176.436 61.5724C177.332 64.6391 178.2 67.2864 178.953 69.5809C179.567 71.4559 180.106 73.0977 180.521 74.5463C180.531 74.5803 180.541 74.6143 180.55 74.648L180.574 74.7315C182.304 80.8514 181.758 83.477 175.332 85.7477L167.274 85.7545L167.568 84.8315C167.621 84.6664 167.691 84.5074 167.778 84.3573C168.028 83.9248 168.138 83.4254 168.092 82.9279L167.973 81.6313L167.784 80.5301C167.691 79.9862 167.526 79.457 167.295 78.9562L167.08 78.4931L166.383 77.4112C166.006 76.8255 165.534 76.3066 164.987 75.8759L163.658 74.831C163.038 74.3433 162.332 73.9769 161.576 73.7508L161.314 73.6725L160.235 73.51C159.924 73.4631 159.609 73.4397 159.295 73.4399L159.012 73.4402C158.15 73.4409 157.299 73.6188 156.509 73.9629L155.552 74.3801C155.113 74.6271 154.635 74.7789 154.147 74.8331L144.568 71.5449C143.557 70.8753 142.945 69.8365 143.059 68.5496C143.338 65.3845 144.391 59.026 147.19 47.5891Z" fill="#34221B"/>
<path fill-rule="evenodd" clip-rule="evenodd" d="M208.49 27.1493C209.233 26.4994 209.969 25.7974 210.691 25.0546C210.015 25.7945 209.284 26.4952 208.49 27.1493Z" fill="#34221B"/>
<path d="M158.953 76.703C159.162 76.6432 159.38 76.6804 159.563 76.7991C159.72 76.899 159.873 77.006 160.021 77.1178C162.723 79.1916 163.466 82.6048 163.263 85.5448C163.262 85.5576 163.261 85.5708 163.26 85.5836C163.257 85.6337 163.253 85.6836 163.25 85.7334C163.249 85.7416 163.248 85.7498 163.248 85.7579C163.24 85.8525 163.232 85.9471 163.223 86.0434C163.219 86.084 163.199 86.1225 163.167 86.1503C163.135 86.1782 163.096 86.1932 163.055 86.1921C163.014 86.1909 162.975 86.1736 162.945 86.1439C162.916 86.1143 162.897 86.0747 162.895 86.034C162.892 85.9408 162.888 85.8493 162.883 85.7582C162.879 85.6875 162.874 85.6169 162.869 85.5459C162.702 82.6564 161.467 79.7183 159.146 78.4266C159.021 78.3559 158.893 78.2904 158.765 78.2316C158.568 78.1386 158.421 77.9729 158.362 77.7635C158.302 77.5546 158.334 77.3191 158.447 77.1163C158.56 76.9136 158.743 76.7622 158.953 76.703Z" fill="#34221B"/>
<path d="M99.9689 76.9872C100.178 76.9275 100.396 76.9647 100.579 77.0833C100.736 77.1832 100.889 77.2902 101.037 77.4021C103.732 79.4706 104.479 82.8716 104.28 85.8065C104.28 85.814 104.279 85.8215 104.279 85.829C104.268 85.9958 104.255 86.1592 104.24 86.3276C104.236 86.3682 104.215 86.4067 104.183 86.4346C104.152 86.4624 104.112 86.4775 104.071 86.4763C104.031 86.4751 103.992 86.4578 103.962 86.4282C103.932 86.3985 103.913 86.359 103.912 86.3182C103.906 86.1526 103.897 85.9926 103.885 85.8302C103.885 85.8229 103.885 85.8156 103.884 85.8084C103.712 82.9259 102.478 79.9993 100.162 78.7109C100.037 78.6402 99.909 78.5746 99.7809 78.5158C99.5838 78.4228 99.4375 78.2571 99.3781 78.0478C99.3185 77.8388 99.3507 77.6034 99.4637 77.4006C99.5766 77.1978 99.7599 77.0465 99.9689 76.9872Z" fill="#34221B"/>
<path d="M73.4519 77.0097C73.6612 76.95 73.8791 76.9871 74.0619 77.1058C74.2189 77.2057 74.3725 77.3127 74.5202 77.4245C77.2159 79.4934 77.9618 82.8953 77.7634 85.8305C77.7629 85.8375 77.7625 85.8445 77.762 85.8515C77.7515 86.0183 77.7384 86.1817 77.7226 86.3501C77.7187 86.3907 77.6979 86.4292 77.6664 86.457C77.6348 86.4849 77.595 86.4999 77.5543 86.4988C77.5135 86.4976 77.4747 86.4803 77.4448 86.4506C77.4149 86.421 77.3964 86.3814 77.3948 86.3407C77.3886 86.1751 77.3798 86.0151 77.3684 85.8526C77.368 85.8454 77.3676 85.8381 77.3671 85.8309C77.1948 82.9484 75.9608 80.0218 73.6455 78.7333C73.5201 78.6627 73.392 78.5971 73.264 78.5383C73.0669 78.4453 72.9205 78.2796 72.8611 78.0702C72.8015 77.8613 72.8337 77.6258 72.9467 77.4231C73.0596 77.2203 73.2429 77.069 73.4519 77.0097Z" fill="#34221B"/>
<path d="M179.838 46.9168L190.918 42.1013L192.186 41.5503L193.61 40.9314C193.726 40.8807 193.819 40.7843 193.868 40.6653C193.886 40.6213 193.897 40.5755 193.902 40.5293C193.911 40.4505 193.9 40.3707 193.87 40.2965C193.823 40.1787 193.731 40.0843 193.613 40.0321C193.495 39.9801 193.362 39.9746 193.243 40.0186L179.082 45.2656L177.9 45.7036C177.666 45.7904 177.478 45.9664 177.38 46.1965C177.282 46.4264 177.281 46.6917 177.377 46.9302C177.473 47.1687 177.657 47.3598 177.887 47.4577C178.117 47.5559 178.375 47.5529 178.604 47.4531L179.838 46.9168Z" fill="#34221B"/>
<path d="M137.326 85.78C137.279 85.6275 137.205 85.4849 137.106 85.3606C136.89 85.0876 136.573 84.9246 136.226 84.8991C135.874 84.874 135.545 84.838 135.2 84.7841C128.884 83.9926 124.856 77.0332 124.533 70.4807C124.516 70.1106 124.514 69.7372 124.528 69.3768C124.53 69.3215 124.519 69.2665 124.496 69.2159C124.481 69.1806 124.459 69.1474 124.433 69.1178C124.37 69.0459 124.283 69.0013 124.189 68.9936C124.096 68.9858 124.002 69.0155 123.928 69.076C123.854 69.1364 123.804 69.2227 123.792 69.3159C123.752 69.6389 123.725 69.9711 123.708 70.3026C123.707 70.3353 123.705 70.3679 123.704 70.4005C123.703 70.4278 123.702 70.4552 123.7 70.4825C123.682 71.0666 123.691 71.6616 123.728 72.2625C123.832 73.9606 124.157 75.7055 124.712 77.382C125.245 78.9887 125.99 80.5327 126.955 81.9127C128.753 84.4821 131.315 86.4832 134.696 87.2627C135.109 87.3624 135.503 87.4403 135.924 87.5052C136.268 87.5598 136.614 87.4736 136.886 87.2573C137.159 87.0415 137.336 86.7132 137.378 86.3531C137.401 86.1574 137.382 85.9617 137.326 85.78Z" fill="#34221B"/>
<path d="M55.9864 26.7228C55.4103 28.3582 55.0758 30.0381 54.9453 31.7331C54.6918 35.0249 55.2075 38.3735 56.2159 41.5636C56.3048 41.8332 56.3969 42.0982 56.4953 42.3659C56.6088 42.6783 56.835 42.929 57.1359 43.0648C57.1503 43.0714 57.165 43.0776 57.1798 43.0836C57.5019 43.2145 57.8775 43.2056 58.2145 43.0631C58.5514 42.9206 58.8194 42.6572 58.9499 42.3349C59.0809 42.0124 59.0637 41.6574 58.9116 41.344C58.7996 41.1142 58.6929 40.886 58.5887 40.6526C56.7684 36.4924 55.8958 31.5592 56.9911 27.0785C57.0608 26.8405 57.1447 26.5999 57.2392 26.3828C57.2894 26.2693 57.2916 26.1372 57.2489 26.0174C57.206 25.8976 57.1216 25.7997 57.0109 25.7438C56.9001 25.6878 56.7712 25.6779 56.6492 25.7145C56.5275 25.7512 56.4226 25.8315 56.361 25.9392C56.2793 26.0836 56.2037 26.2332 56.134 26.3838C56.0815 26.4969 56.0324 26.6105 55.9864 26.7228Z" fill="#34221B"/>
<path fill-rule="evenodd" clip-rule="evenodd" d="M200.5 31.0351C197.971 31.3296 195.376 31.274 192.919 31.0146C192.707 30.9836 192.488 30.9459 192.296 30.9025C192.094 30.8581 191.886 30.8967 191.715 31.0138C191.545 31.1306 191.427 31.3164 191.388 31.5262C191.349 31.736 191.393 31.9516 191.51 32.1218C191.627 32.2922 191.807 32.4031 192.012 32.4341C192.258 32.4721 192.512 32.499 192.752 32.518C196.615 32.6632 200.396 32.3766 204.025 31.1728C203.718 31.1226 203.418 31.0852 203.128 31.059C202.94 31.0421 202.756 31.0298 202.577 31.022C201.68 30.9827 200.901 31.0523 200.302 31.1781C200.35 31.1428 200.399 31.1072 200.449 31.0713L200.479 31.0506L200.5 31.0351Z" fill="#34221B"/>
<path d="M154.533 74.9659L154.147 74.8331L144.568 71.5449L138.955 69.6182C138.895 69.5975 138.828 69.6018 138.77 69.6296C138.712 69.6574 138.667 69.7064 138.645 69.7664C138.623 69.8264 138.625 69.8928 138.652 69.9517C138.679 70.0105 138.727 70.0571 138.787 70.0802L154.139 76.044C154.281 76.0991 154.438 76.0949 154.576 76.0308C154.714 75.9667 154.822 75.8479 154.875 75.702C154.929 75.5562 154.923 75.3958 154.859 75.2578C154.795 75.1197 154.677 75.0153 154.533 74.9659Z" fill="#34221B"/>
<path fill-rule="evenodd" clip-rule="evenodd" d="M207.788 27.732L207.812 27.7267C210.597 27.1092 213.528 27.2644 215.807 29.1907C221.735 34.2027 218.843 43.2055 214.318 38.5432C212.782 36.028 210.976 34.3018 209.153 33.1435C207.383 32.0182 205.596 31.4288 204.025 31.1728C203.718 31.1226 203.418 31.0852 203.128 31.059C202.94 31.0421 202.756 31.0298 202.577 31.022C201.68 30.9827 200.901 31.0523 200.302 31.1781C200.35 31.1428 200.399 31.1072 200.449 31.0713L200.479 31.0506L200.5 31.0351C201.604 30.2541 203.161 29.3496 204.92 28.6387C205.817 28.2762 206.766 27.964 207.734 27.7442C207.752 27.7401 207.77 27.736 207.788 27.732ZM209.555 27.4582C209.524 27.453 209.492 27.4606 209.466 27.4786C209.439 27.4965 209.421 27.5234 209.414 27.5539C209.408 27.5844 209.414 27.6164 209.43 27.6436C209.447 27.6707 209.473 27.6908 209.504 27.6987C209.707 27.7519 209.911 27.8164 210.109 27.8895C213.604 29.3106 216.366 32.8436 216.598 36.3389C216.601 36.5296 216.592 36.7178 216.572 36.8999C216.552 37.0839 216.608 37.2648 216.731 37.4031C216.853 37.5414 217.033 37.6258 217.226 37.6375C217.418 37.6491 217.607 37.5869 217.745 37.4644C217.884 37.3418 217.96 37.1688 217.963 36.9838C217.969 36.7371 217.957 36.4912 217.931 36.2495C217.205 31.9892 213.968 28.8125 210.201 27.6005C209.988 27.5428 209.771 27.4945 209.555 27.4582Z" fill="#F1A4AC"/>
<path d="M209.466 27.4786C209.492 27.4606 209.524 27.453 209.555 27.4582C209.771 27.4945 209.988 27.5428 210.201 27.6005C213.968 28.8125 217.205 31.9892 217.931 36.2495C217.957 36.4912 217.969 36.7371 217.963 36.9838C217.96 37.1688 217.884 37.3418 217.745 37.4644C217.607 37.5869 217.418 37.6491 217.226 37.6375C217.033 37.6258 216.853 37.5414 216.731 37.4031C216.608 37.2648 216.552 37.0839 216.572 36.8999C216.592 36.7178 216.601 36.5296 216.598 36.3389C216.366 32.8436 213.604 29.3106 210.109 27.8895C209.911 27.8164 209.707 27.7519 209.504 27.6987C209.473 27.6908 209.447 27.6707 209.43 27.6436C209.414 27.6164 209.408 27.5844 209.414 27.5539C209.421 27.5234 209.439 27.4965 209.466 27.4786Z" fill="#34221B"/>
<path fill-rule="evenodd" clip-rule="evenodd" d="M163.25 85.7334C163.251 85.7145 163.252 85.6956 163.254 85.6767C163.252 85.6966 163.251 85.7136 163.25 85.7334Z" fill="#855747"/>
<path d="M176.436 61.5724C175.643 58.8596 175.141 55.854 174.86 52.7191C174.869 52.8149 174.985 52.859 175.057 52.7957C179.31 49.0819 186.343 50.1635 189.158 51.2547C189.724 61.9608 185.013 71.6033 180.574 74.7315L180.55 74.648L180.521 74.5463C180.106 73.0977 179.567 71.4559 178.953 69.5809C178.2 67.2864 177.332 64.6391 176.436 61.5724Z" fill="#C59787"/>
<path d="M55.9864 26.7228C55.4103 28.3582 55.0758 30.0381 54.9453 31.7331C51.6025 29.3874 37.9901 24.7735 23.2558 28.4388C13.2834 30.9196 6.84786 37.2757 3.32659 40.7535C1.90667 42.1559 0.960619 43.0903 0.447622 43.1138C3.61054 35.55 14.8863 28.5049 26.9297 25.2636C37.9509 22.2974 49.0195 23.7387 56.134 26.3838C56.0815 26.4969 56.0324 26.6105 55.9864 26.7228Z" fill="#AD8070"/>
<path d="M188.824 47.8677C188.507 45.6825 189.279 43.4512 190.918 42.1013L179.838 46.9168C181.26 48.6063 184.541 49.6252 189.046 49.7276C188.988 49.1099 188.915 48.4896 188.824 47.8677Z" fill="#67463B"/>
<path d="M210.691 25.0546C216.166 19.4153 220.779 11.4253 220.831 6.01776C220.259 6.35462 219.71 6.6469 219.183 6.89814C219.159 6.99057 219.136 7.08291 219.112 7.17499C217.264 13.421 215.205 20.1123 210.691 25.0546Z" fill="#855747"/>
<path d="M193.243 40.0186C193.362 39.9746 193.495 39.9801 193.613 40.0321C193.731 40.0843 193.823 40.1787 193.87 40.2965C193.9 40.3707 193.911 40.4505 193.902 40.5293C198.374 38.4636 203.382 36.0966 207.013 34.2551C197.792 36.7934 179.932 41.8871 179.351 43.3763C179.088 44.0503 179.003 44.682 179.082 45.2656L193.243 40.0186Z" fill="#67463B"/>
<path d="M190.918 42.1013C189.279 43.4512 188.507 45.6825 188.824 47.8677C188.915 48.4896 188.988 49.1099 189.046 49.7276C189.094 50.2386 189.132 50.7478 189.158 51.2547C189.724 61.9608 185.013 71.6033 180.574 74.7315L187.902 74.7273C188.569 74.7268 189.23 74.6097 189.875 74.4386C194.757 73.1432 197.96 74.7933 199.771 77.2005C199.816 77.2629 200.247 76.8362 201.605 74.6302C202.955 72.4383 195.935 51.794 192.186 41.5503L190.918 42.1013Z" fill="#34221B"/>
<path fill-rule="evenodd" clip-rule="evenodd" d="M207.788 27.732C207.77 27.736 207.752 27.7401 207.734 27.7442C207.992 27.5506 208.244 27.3522 208.49 27.1493C208.265 27.3467 208.039 27.5392 207.812 27.7267L207.788 27.732ZM197.93 85.5904C197.928 85.6143 197.927 85.6382 197.925 85.662C197.924 85.6689 197.924 85.6759 197.923 85.6828C197.922 85.6981 197.921 85.7133 197.92 85.7285L197.549 85.7288C197.555 85.8355 197.56 85.9423 197.564 86.0515C197.566 86.0922 197.584 86.1318 197.614 86.1614C197.644 86.191 197.683 86.2083 197.724 86.2095C197.764 86.2107 197.804 86.1957 197.836 86.1678C197.867 86.1399 197.888 86.1015 197.892 86.0609C197.896 86.0148 197.901 85.969 197.904 85.9235C197.91 85.8583 197.915 85.7934 197.92 85.7285C197.921 85.7133 197.922 85.6981 197.923 85.6828C197.926 85.6521 197.928 85.6213 197.93 85.5904Z" fill="#34221B"/>
<path d="M180.574 74.7315C182.304 80.8514 181.758 83.477 175.332 85.7477L197.549 85.7288C197.545 85.6738 197.542 85.6187 197.538 85.5634C197.37 82.6739 196.136 79.7358 193.815 78.4441C193.69 78.3734 193.562 78.3079 193.433 78.2491C193.236 78.1561 193.09 77.9903 193.031 77.781C192.971 77.5721 193.003 77.3366 193.116 77.1338C193.229 76.931 193.412 76.7797 193.621 76.7204C193.831 76.6607 194.049 76.6979 194.231 76.8165C194.388 76.9165 194.542 77.0235 194.69 77.1353C197.392 79.2091 198.135 82.6222 197.931 85.5622L197.93 85.5904C197.928 85.6213 197.926 85.6521 197.923 85.6828C197.922 85.6981 197.921 85.7133 197.92 85.7285L199.303 85.7273C199.843 85.7269 200.427 85.7009 200.805 85.3159C202.106 83.9883 201.921 80.0602 199.771 77.2005C197.96 74.7933 194.757 73.1432 189.875 74.4386C189.23 74.6097 188.569 74.7268 187.902 74.7273L180.574 74.7315Z" fill="#855747"/>
<path d="M194.231 76.8165C194.049 76.6979 193.831 76.6607 193.621 76.7204C193.412 76.7797 193.229 76.931 193.116 77.1338C193.003 77.3366 192.971 77.5721 193.031 77.781C193.09 77.9903 193.236 78.1561 193.433 78.2491C193.562 78.3079 193.69 78.3734 193.815 78.4441C196.136 79.7358 197.37 82.6739 197.538 85.5634C197.542 85.6187 197.545 85.6738 197.549 85.7288L197.92 85.7285C197.921 85.7133 197.922 85.6981 197.923 85.6828L197.925 85.662C197.927 85.6382 197.928 85.6143 197.93 85.5904L197.931 85.5622C198.135 82.6222 197.392 79.2091 194.69 77.1353C194.542 77.0235 194.388 76.9165 194.231 76.8165Z" fill="#34221B"/>
<path fill-rule="evenodd" clip-rule="evenodd" d="M104.154 74.9826C106.986 76.6538 108.313 80.11 108.181 82.8792C108.09 84.7939 106.197 85.7615 104.28 85.8065C104.479 82.8716 103.732 79.4706 101.037 77.4021C100.889 77.2902 100.736 77.1832 100.579 77.0833C100.396 76.9647 100.178 76.9275 99.9689 76.9872C99.7599 77.0465 99.5766 77.1978 99.4637 77.4006C99.3507 77.6034 99.3185 77.8388 99.3781 78.0478C99.4375 78.2571 99.5838 78.4228 99.7809 78.5158C99.909 78.5746 100.037 78.6402 100.162 78.7109C102.478 79.9993 103.712 82.9259 103.884 85.8084L94.0685 85.8167C91.1057 85.8192 88.539 83.7517 87.9807 80.842C87.7403 79.5886 87.4982 78.2749 87.2783 76.998L99.4579 70.5557C100.149 72.5634 102.876 74.3435 104.154 74.9826Z" fill="#855847"/>
<path d="M99.4579 70.5557C98.8279 68.7246 98.3504 68.0535 98.1442 67.9074L98.0923 67.8792L89.7202 65.2086C86.2311 68.1281 81.2811 69.2663 74.5282 66.5904C77.3931 68.2589 80.5079 69.5342 83.7134 70.1066C85.4151 71.511 86.697 73.4539 87.0391 75.5684C87.1148 76.0362 87.195 76.5144 87.2783 76.998L99.4579 70.5557Z" fill="#664437"/>
<path d="M74.5282 66.5904C81.2811 69.2663 86.2311 68.1281 89.7202 65.2086C91.2868 63.8977 92.5588 62.2278 93.5673 60.3826C93.7341 60.0775 93.8937 59.7676 94.0462 59.4537C96.4064 54.5958 97.0737 48.7898 96.5668 45.12C95.0185 56.6689 86.8735 60.8597 82.8586 62.8714C80.9937 63.8058 78.4059 63.802 76.0016 63.7985C73.2297 63.7945 70.7018 63.7908 69.8068 65.2254C68.4698 67.3687 71.2822 70.3139 72.8556 71.5185C72.4003 70.7443 72.1824 69.899 72.3607 69.0284C72.6063 67.8297 73.4704 66.9607 74.5282 66.5904Z" fill="#664437"/>
<path d="M124.712 77.382C124.157 75.7055 123.832 73.9606 123.728 72.2625C123.161 71.5026 103.385 64.026 93.5673 60.3826C92.5588 62.2278 91.2868 63.8977 89.7202 65.2086L98.0923 67.8792C98.107 67.8841 98.1244 67.8933 98.1442 67.9074C106.58 72.4842 124.068 81.6479 126.955 81.9127C125.99 80.5327 125.245 78.9887 124.712 77.382Z" fill="#A77D6F"/>
<path d="M123.708 70.3026C123.725 69.9711 123.752 69.6389 123.792 69.3159C123.206 68.5271 103.717 62.4124 94.0462 59.4537C93.8937 59.7676 93.7341 60.0775 93.5673 60.3826C103.385 64.026 123.161 71.5026 123.728 72.2625C123.691 71.6616 123.682 71.0666 123.7 70.4825C123.702 70.4552 123.703 70.4278 123.704 70.4005C123.705 70.3679 123.707 70.3353 123.708 70.3026Z" fill="#C59787"/>
<path fill-rule="evenodd" clip-rule="evenodd" d="M163.25 85.7334L163.248 85.7579L167.274 85.7545L167.568 84.8315C167.621 84.6664 167.691 84.5074 167.778 84.3573C168.028 83.9248 168.138 83.4254 168.092 82.9279L167.973 81.6313L167.784 80.5301C167.691 79.9862 167.526 79.457 167.295 78.9562L167.08 78.4931L166.383 77.4112C166.006 76.8255 165.534 76.3066 164.987 75.8759L163.658 74.831C163.038 74.3433 162.332 73.9769 161.576 73.7508L161.314 73.6725L160.235 73.51C159.924 73.4631 159.609 73.4397 159.295 73.4399L159.012 73.4402C158.15 73.4409 157.299 73.6188 156.509 73.9629L155.552 74.3801C155.113 74.6271 154.635 74.7789 154.147 74.8331L154.533 74.9659C154.677 75.0153 154.795 75.1197 154.859 75.2578C154.923 75.3958 154.929 75.5562 154.875 75.702C154.822 75.8479 154.714 75.9667 154.576 76.0308C154.438 76.0949 154.281 76.0991 154.139 76.044L138.787 70.0802C138.727 70.0571 138.679 70.0105 138.652 69.9517C138.625 69.8928 138.623 69.8264 138.645 69.7664C138.667 69.7064 138.712 69.6574 138.77 69.6296C138.828 69.6018 138.895 69.5975 138.955 69.6182L144.568 71.5449C143.557 70.8753 142.945 69.8365 143.059 68.5496C143.338 65.3845 144.391 59.026 147.19 47.5891C149.068 39.9137 150.412 34.7964 154.015 29.9209C131.418 36.7716 106.989 30.3394 88.1771 25.3862C79.5732 23.1208 72.1443 21.1648 66.6032 20.9305C65.8703 20.8996 65.1668 20.7793 64.4725 20.5422C47.9764 14.9093 13.9784 11.6565 0.515087 40.8492C0.157871 41.6238 -0.404441 43.1528 0.447622 43.1138C3.61054 35.55 14.8863 28.5049 26.9297 25.2636C37.9509 22.2974 49.0195 23.7387 56.134 26.3838C56.2037 26.2332 56.2793 26.0836 56.361 25.9392C56.4226 25.8315 56.5275 25.7512 56.6492 25.7145C56.7712 25.6779 56.9001 25.6878 57.0109 25.7438C57.1216 25.7997 57.206 25.8976 57.2489 26.0174C57.2916 26.1372 57.2894 26.2693 57.2392 26.3828C57.1447 26.5999 57.0608 26.8405 56.9911 27.0785C55.8958 31.5592 56.7684 36.4924 58.5887 40.6526C58.6929 40.886 58.7996 41.1142 58.9116 41.344C59.0637 41.6574 59.0809 42.0124 58.9499 42.3349C58.8194 42.6572 58.5514 42.9206 58.2145 43.0631C57.8775 43.2056 57.5019 43.2145 57.1798 43.0836C57.165 43.0776 57.1503 43.0714 57.1359 43.0648C57.2653 44.0697 57.4061 45.309 57.5344 46.658C58.0144 51.7035 58.319 58.2837 57.194 59.8737C55.4117 62.3926 53.5746 66.8236 57.7618 70.7584C61.1116 73.9062 61.3975 82.1275 61.1217 85.8446L62.1429 85.8438L77.3671 85.8309C77.1948 82.9484 75.9608 80.0218 73.6455 78.7333C73.5201 78.6627 73.392 78.5971 73.264 78.5383C73.0669 78.4453 72.9205 78.2796 72.8611 78.0702C72.8015 77.8613 72.8337 77.6258 72.9467 77.4231C73.0596 77.2203 73.2429 77.069 73.4519 77.0097C73.6612 76.95 73.8791 76.9871 74.0619 77.1058C74.2189 77.2057 74.3725 77.3127 74.5202 77.4245C77.2159 79.4934 77.9618 82.8953 77.7634 85.8305L79.4305 85.8291C83.6868 85.8255 81.8117 77.2116 76.5683 74.6808C75.1704 74.0061 73.6508 72.8707 72.8556 71.5185C71.2822 70.3139 68.4698 67.3687 69.8068 65.2254C70.7018 63.7908 73.2297 63.7945 76.0016 63.7985C78.4059 63.802 80.9937 63.8058 82.8586 62.8714C86.8735 60.8597 95.0185 56.6689 96.5668 45.12C97.0737 48.7898 96.4064 54.5958 94.0462 59.4537C103.717 62.4124 123.206 68.5271 123.792 69.3159C123.804 69.2227 123.854 69.1364 123.928 69.076C124.002 69.0155 124.096 68.9858 124.189 68.9936C124.283 69.0013 124.37 69.0459 124.433 69.1178C124.459 69.1474 124.481 69.1806 124.496 69.2159C128.043 74.7131 137.081 84.8164 147.362 85.7714L150.49 85.7688L162.883 85.7582C162.879 85.6875 162.874 85.6169 162.869 85.5459C162.702 82.6564 161.467 79.7183 159.146 78.4266C159.021 78.3559 158.893 78.2904 158.765 78.2316C158.568 78.1386 158.421 77.9729 158.362 77.7635C158.302 77.5546 158.334 77.3191 158.447 77.1163C158.56 76.9136 158.743 76.7622 158.953 76.703C159.162 76.6432 159.38 76.6804 159.563 76.7991C159.72 76.899 159.873 77.006 160.021 77.1178C162.723 79.1916 163.466 82.6048 163.263 85.5448L163.26 85.5836C163.258 85.6148 163.256 85.6458 163.254 85.6767C163.252 85.6956 163.251 85.7145 163.25 85.7334Z" fill="#855747"/>
<path d="M137.106 85.3606C137.205 85.4849 137.279 85.6275 137.326 85.78L147.362 85.7714C137.081 84.8164 128.043 74.7131 124.496 69.2159C124.519 69.2665 124.53 69.3215 124.528 69.3768C124.514 69.7372 124.516 70.1106 124.533 70.4807C124.856 77.0332 128.884 83.9926 135.2 84.7841C135.545 84.838 135.874 84.874 136.226 84.8991C136.573 84.9246 136.89 85.0876 137.106 85.3606Z" fill="#67463B"/>
<path fill-rule="evenodd" clip-rule="evenodd" d="M213.431 0.601832C214.958 -0.140584 216.798 -0.294114 218.172 0.703424C220.084 2.0906 220.851 3.93521 220.831 6.01776C220.259 6.35462 219.71 6.6469 219.183 6.89814C219.159 6.99057 219.136 7.08291 219.112 7.17499C217.264 13.421 215.205 20.1123 210.691 25.0546C209.969 25.7974 209.233 26.4994 208.49 27.1493C208.244 27.3522 207.992 27.5506 207.734 27.7442C206.766 27.964 205.817 28.2762 204.92 28.6387C204.897 28.604 204.878 28.5669 204.861 28.5279C204.797 28.3701 204.797 28.1928 204.862 28.0332C204.927 27.8737 205.051 27.7449 205.207 27.677C205.583 27.5131 205.95 27.3171 206.304 27.0955C212.185 22.792 214.718 15.055 216.54 7.87955C211.156 9.25429 208.815 5.63664 208.291 3.18567C210.124 2.23966 211.855 1.36752 213.431 0.601832ZM211.003 3.35127C211.136 2.68174 214.181 1.30847 215.687 0.705533C218.172 -0.00192944 215.95 2.70692 214.35 3.34844C213.514 3.68386 210.837 4.1882 211.003 3.35127Z" fill="#34221B"/>
<path d="M215.687 0.705533C214.181 1.30847 211.136 2.68174 211.003 3.35127C210.837 4.1882 213.514 3.68386 214.35 3.34844C215.95 2.70692 218.172 -0.00192944 215.687 0.705533Z" fill="white"/>
<path fill-rule="evenodd" clip-rule="evenodd" d="M172.463 17.2559C171.338 22.04 172.532 32.1688 173.686 41.9564C174.127 45.7 174.563 49.3936 174.86 52.7191C174.869 52.8149 174.985 52.859 175.057 52.7957C179.31 49.0819 186.343 50.1635 189.158 51.2547C189.132 50.7478 189.094 50.2386 189.046 49.7276C184.541 49.6252 181.26 48.6063 179.838 46.9168L178.604 47.4531C178.375 47.5529 178.117 47.5559 177.887 47.4577C177.657 47.3598 177.473 47.1687 177.377 46.9302C177.281 46.6917 177.282 46.4264 177.38 46.1965C177.478 45.9664 177.666 45.7904 177.9 45.7036L179.082 45.2656C179.003 44.682 179.088 44.0503 179.351 43.3763C179.932 41.8871 197.792 36.7934 207.013 34.2551C207.797 33.8573 208.517 33.484 209.153 33.1435C207.383 32.0182 205.596 31.4288 204.025 31.1728C200.396 32.3766 196.615 32.6632 192.752 32.518C192.512 32.499 192.258 32.4721 192.012 32.4341C191.807 32.4031 191.627 32.2922 191.51 32.1218C191.393 31.9516 191.349 31.736 191.388 31.5262C191.427 31.3164 191.545 31.1306 191.715 31.0138C191.886 30.8967 192.094 30.8581 192.296 30.9025C192.488 30.9459 192.707 30.9836 192.919 31.0146C195.376 31.274 197.971 31.3296 200.5 31.0351C201.604 30.2541 203.161 29.3496 204.92 28.6387C204.897 28.604 204.878 28.5669 204.861 28.5279C204.797 28.3701 204.797 28.1928 204.862 28.0332C204.927 27.8737 205.051 27.7449 205.207 27.677C205.583 27.5131 205.95 27.3171 206.304 27.0955C212.185 22.792 214.718 15.055 216.54 7.87955C211.156 9.25429 208.815 5.63664 208.291 3.18567C200.288 6.2055 181.917 13.2473 172.463 17.2559ZM185.724 25.1447C182.927 25.6726 180.356 24.4929 179.982 22.5097C179.607 20.5265 181.571 18.4909 184.368 17.963C187.165 17.4351 189.736 18.6149 190.11 20.598C190.484 22.5812 188.52 24.6169 185.724 25.1447Z" fill="#855747"/>
<path fill-rule="evenodd" clip-rule="evenodd" d="M185.724 25.1447C182.927 25.6726 180.356 24.4929 179.982 22.5097C179.607 20.5265 181.571 18.4909 184.368 17.963C187.165 17.4351 189.736 18.6149 190.11 20.598C190.484 22.5812 188.52 24.6169 185.724 25.1447ZM184.109 18.4085C184.109 18.4085 183.04 20.6178 183.347 22.0299C183.633 23.3397 185.296 24.8556 185.296 24.8556C183.843 24.9723 180.957 24.5693 180.527 22.0299C180.527 20.0157 183.538 18.5003 184.109 18.4085Z" fill="#34221B"/>
<path d="M184.109 18.4085C184.109 18.4085 183.04 20.6178 183.347 22.0299C183.633 23.3397 185.296 24.8556 185.296 24.8556C183.843 24.9723 180.957 24.5693 180.527 22.0299C180.527 20.0157 183.538 18.5003 184.109 18.4085Z" fill="white"/>
</svg>
