<svg width="220" height="87" viewBox="0 0 220 87" fill="none" xmlns="http://www.w3.org/2000/svg">
<path fill-rule="evenodd" clip-rule="evenodd" d="M162.049 85.2214L162.047 85.246H161.685C161.681 85.1755 161.676 85.1068 161.673 85.0345C161.507 82.1616 160.284 79.2375 157.981 77.9509C157.856 77.8821 157.729 77.8151 157.603 77.7569C157.407 77.6653 157.261 77.4996 157.203 77.2916C157.143 77.0837 157.177 76.8493 157.288 76.6483C157.4 76.4456 157.583 76.2958 157.791 76.2376C157.999 76.1777 158.215 76.2147 158.396 76.3328C158.551 76.4333 158.704 76.539 158.85 76.6501C161.532 78.7158 162.267 82.1104 162.063 85.0345L162.06 85.0732C162.058 85.1014 162.056 85.1279 162.054 85.1561V85.1649C162.053 85.1702 162.053 85.1773 162.053 85.1808C162.053 85.1843 162.053 85.1878 162.051 85.1913C162.051 85.1949 162.051 85.2002 162.051 85.2002C162.051 85.2072 162.049 85.2143 162.049 85.2214ZM73.9589 76.8845C76.6334 78.9431 77.3724 82.3272 77.1718 85.246H76.7795C76.6105 82.3801 75.3876 79.4684 73.0897 78.1853C72.9647 78.1148 72.8381 78.0495 72.7114 77.9896C72.5161 77.898 72.37 77.7323 72.312 77.5243C72.2521 77.3164 72.2856 77.0819 72.3964 76.8809C72.509 76.68 72.692 76.5285 72.8996 76.4703C73.1073 76.4104 73.3237 76.4474 73.5049 76.5655C73.6598 76.666 73.8129 76.7717 73.9589 76.8845Z" fill="#855747"/>
<path fill-rule="evenodd" clip-rule="evenodd" d="M146.136 47.2721C147.283 42.5943 148.23 38.8735 149.614 35.5758C150.491 33.4942 151.541 31.5819 152.928 29.7048L153.193 29.4176C157.462 24.7821 159.158 22.9402 162.38 21.1389C164.402 20.0109 167.023 18.8987 171.255 17.1256C170.134 21.8827 171.311 31.9574 172.448 41.6919C172.883 45.4161 173.312 49.0892 173.604 52.3975C173.88 55.5154 174.377 58.5047 175.161 61.2032C175.362 61.8906 175.561 62.5568 175.756 63.2019C176.432 65.4227 177.077 67.402 177.655 69.1698C178.263 71.0363 178.796 72.6685 179.206 74.1103C179.217 74.1438 179.226 74.1772 179.236 74.2125L179.259 74.2953C180.973 80.3831 180.428 82.9934 174.046 85.246H166.045L166.339 84.3294C166.39 84.1637 166.46 84.0069 166.547 83.8571C166.795 83.427 166.905 82.93 166.86 82.4365L166.742 81.1463L166.555 80.05C166.464 79.5107 166.3 78.9837 166.071 78.4849L165.859 78.0249L165.169 76.9479C164.794 76.3645 164.326 75.8481 163.782 75.4198L162.464 74.38C161.849 73.8935 161.148 73.5286 160.397 73.303L160.138 73.2254L159.067 73.0633C158.757 73.0157 158.446 72.9928 158.132 72.9928H157.853C156.997 72.9928 156.151 73.1691 155.366 73.5092L154.416 73.9234C153.98 74.1702 153.505 74.32 153.021 74.3729L143.512 71.0946C142.509 70.4283 141.904 69.3954 142.017 68.114C142.296 64.9679 143.349 58.644 146.136 47.2721Z" fill="#34221B"/>
<path fill-rule="evenodd" clip-rule="evenodd" d="M207.018 26.9941C207.755 26.349 208.487 25.6511 209.203 24.9143C208.531 25.6493 207.806 26.3455 207.018 26.9941Z" fill="#34221B"/>
<path d="M157.791 76.2376C157.999 76.1777 158.215 76.2147 158.396 76.3328C158.551 76.4333 158.704 76.539 158.85 76.6501C161.532 78.7158 162.267 82.1104 162.063 85.0345C162.061 85.0468 162.061 85.0609 162.06 85.0732C162.058 85.1014 162.056 85.1279 162.054 85.1561V85.1649C162.053 85.1702 162.053 85.1773 162.053 85.1808C162.053 85.1843 162.053 85.1878 162.051 85.1913C162.051 85.1949 162.051 85.2002 162.051 85.2002C162.051 85.2072 162.049 85.2143 162.049 85.2214C162.049 85.2302 162.047 85.2389 162.047 85.246C162.04 85.3412 162.032 85.4346 162.023 85.5298C162.019 85.5703 161.998 85.609 161.966 85.6372C161.936 85.6637 161.896 85.6796 161.856 85.6778C161.815 85.676 161.776 85.6602 161.746 85.6302C161.718 85.6003 161.699 85.5615 161.697 85.521C161.694 85.4275 161.69 85.3376 161.685 85.246C161.681 85.1755 161.676 85.1068 161.673 85.0345C161.507 82.1616 160.284 79.2375 157.981 77.9509C157.856 77.8821 157.729 77.8151 157.603 77.7569C157.407 77.6653 157.261 77.4996 157.203 77.2916C157.143 77.0837 157.177 76.8493 157.288 76.6483C157.4 76.4456 157.583 76.2958 157.791 76.2376Z" fill="#34221B"/>
<path d="M99.2279 76.4702C99.4355 76.4102 99.6519 76.4473 99.8331 76.5654C99.988 76.6658 100.141 76.7715 100.287 76.8843C102.962 78.943 103.699 82.3271 103.5 85.2459C103.5 85.2529 103.5 85.26 103.498 85.2671C103.488 85.4327 103.475 85.5966 103.46 85.7641C103.456 85.8028 103.435 85.8416 103.403 85.8698C103.372 85.898 103.333 85.9121 103.292 85.9104C103.252 85.9104 103.213 85.8927 103.183 85.8627C103.153 85.8327 103.136 85.7941 103.134 85.7535C103.129 85.5896 103.12 85.4292 103.108 85.2688C103.108 85.2617 103.108 85.2529 103.108 85.2459C102.939 82.38 101.716 79.4683 99.4179 78.1852C99.293 78.1147 99.1662 78.0494 99.0395 77.9895C98.8442 77.8978 98.6982 77.7322 98.6401 77.5242C98.5803 77.3162 98.612 77.0817 98.7246 76.8808C98.8372 76.6799 99.0202 76.5283 99.2279 76.4702Z" fill="#34221B"/>
<path d="M72.8996 76.4703C73.1073 76.4104 73.3237 76.4474 73.5049 76.5655C73.6598 76.666 73.8129 76.7717 73.9589 76.8845C76.6334 78.9431 77.3724 82.3272 77.1718 85.246C77.1718 85.253 77.1718 85.26 77.1718 85.2671C77.1613 85.4327 77.1472 85.5966 77.1314 85.7641C77.1278 85.8028 77.1067 85.8416 77.0751 85.8698C77.0434 85.898 77.0047 85.9121 76.9642 85.9104C76.9237 85.9104 76.885 85.8927 76.8551 85.8627C76.8252 85.8327 76.8076 85.7941 76.8058 85.7535C76.8006 85.5896 76.7918 85.4292 76.7795 85.2688C76.7795 85.2617 76.7795 85.253 76.7795 85.246C76.6105 82.3801 75.3876 79.4684 73.0897 78.1853C72.9647 78.1148 72.8381 78.0495 72.7114 77.9896C72.5161 77.898 72.37 77.7323 72.312 77.5243C72.2521 77.3164 72.2856 77.0819 72.3964 76.8809C72.509 76.68 72.692 76.5285 72.8996 76.4703Z" fill="#34221B"/>
<path fill-rule="evenodd" clip-rule="evenodd" d="M126.568 79.1212C128.396 81.8496 131.002 83.8501 134.201 84.2537C134.544 84.3084 134.869 84.3436 135.219 84.37C135.564 84.3947 135.879 84.5568 136.092 84.83C136.191 84.9534 136.265 85.0944 136.31 85.246C136.367 85.4276 136.384 85.6214 136.361 85.817C136.319 86.1748 136.143 86.5009 135.872 86.7159C135.601 86.931 135.258 87.0156 134.917 86.961C134.5 86.8958 134.109 86.8182 133.699 86.7195C130.342 85.9405 127.799 83.9488 126.017 81.3913C125.528 80.6916 125.097 79.9478 124.722 79.1758L126.568 79.1212Z" fill="#34221B"/>
<path fill-rule="evenodd" clip-rule="evenodd" d="M199.081 30.8523C196.57 31.1431 193.992 31.0868 191.553 30.8259C191.342 30.7959 191.126 30.7571 190.936 30.7148C190.735 30.6689 190.527 30.7077 190.359 30.8241C190.19 30.9404 190.072 31.1255 190.033 31.3335C189.994 31.5414 190.037 31.7565 190.153 31.9257C190.269 32.0949 190.448 32.2059 190.652 32.2376C190.895 32.2746 191.149 32.3028 191.386 32.3205C195.222 32.4685 198.977 32.1865 202.58 30.9933C202.274 30.9422 201.977 30.9052 201.69 30.8787C201.504 30.8611 201.321 30.8488 201.143 30.8417C200.253 30.8012 199.478 30.8699 198.884 30.995C198.931 30.9598 198.98 30.9245 199.03 30.8893L199.06 30.8682L199.081 30.8523Z" fill="#34221B"/>
<path fill-rule="evenodd" clip-rule="evenodd" d="M144.205 72.1432L152.021 75.1906L153.012 75.5784C153.153 75.6331 153.309 75.6278 153.447 75.5643C153.582 75.5009 153.689 75.3828 153.744 75.2383C153.797 75.0937 153.792 74.9333 153.726 74.7958C153.663 74.6583 153.547 74.5544 153.404 74.505L153.021 74.3729L143.512 71.0946C143.577 71.299 143.831 71.6673 144.205 72.1432Z" fill="#34221B"/>
<path fill-rule="evenodd" clip-rule="evenodd" d="M206.319 27.5738L206.344 27.5686C209.108 26.957 212.019 27.1139 214.28 29.0315C220.162 34.0213 217.281 42.9731 212.793 38.3324C211.271 35.8296 209.48 34.1111 207.671 32.9567C205.913 31.8357 204.139 31.2489 202.58 30.9933C202.274 30.9422 201.977 30.9052 201.69 30.8787C201.504 30.8611 201.321 30.8488 201.143 30.8417C200.253 30.8012 199.478 30.8699 198.884 30.995C198.931 30.9598 198.98 30.9245 199.03 30.8893L199.06 30.8682L199.081 30.8523C200.177 30.0767 201.723 29.1795 203.471 28.4727C204.361 28.1132 205.304 27.803 206.265 27.5862C206.284 27.5827 206.302 27.5774 206.319 27.5738ZM208.074 27.3024C208.044 27.2971 208.01 27.306 207.986 27.3236C207.959 27.3412 207.94 27.3677 207.935 27.3976C207.928 27.4276 207.933 27.461 207.951 27.4874C207.966 27.5139 207.993 27.535 208.023 27.5421C208.225 27.595 208.427 27.6602 208.624 27.7325C212.093 29.1478 214.832 32.6641 215.059 36.1416C215.061 36.3302 215.054 36.5187 215.033 36.6985C215.013 36.8818 215.068 37.0616 215.189 37.1991C215.311 37.3383 215.49 37.4211 215.682 37.4335C215.872 37.4458 216.06 37.3842 216.198 37.2608C216.335 37.1392 216.41 36.9681 216.414 36.7831C216.419 36.5381 216.409 36.2931 216.382 36.0534C215.664 31.8162 212.455 28.6543 208.716 27.4452C208.503 27.387 208.288 27.3394 208.074 27.3024Z" fill="#F1A4AC"/>
<path d="M207.986 27.3236C208.01 27.306 208.044 27.2971 208.074 27.3024C208.288 27.3394 208.503 27.387 208.716 27.4452C212.455 28.6543 215.664 31.8162 216.382 36.0534C216.409 36.2931 216.419 36.5381 216.414 36.7831C216.41 36.9681 216.335 37.1392 216.198 37.2608C216.06 37.3842 215.872 37.4458 215.682 37.4335C215.49 37.4211 215.311 37.3383 215.189 37.1991C215.068 37.0616 215.013 36.8818 215.033 36.6985C215.054 36.5187 215.061 36.3302 215.059 36.1416C214.832 32.6641 212.093 29.1478 208.624 27.7325C208.427 27.6602 208.225 27.595 208.023 27.5421C207.993 27.535 207.966 27.5139 207.951 27.4874C207.933 27.461 207.928 27.4276 207.935 27.3976C207.94 27.3677 207.959 27.3412 207.986 27.3236Z" fill="#34221B"/>
<path fill-rule="evenodd" clip-rule="evenodd" d="M54.5615 31.425C54.0214 29.5409 54.1428 27.6215 54.7692 25.7567C47.6958 23.3473 37.2035 22.1576 26.7518 24.9671C14.7921 28.1802 3.59083 35.1775 0.442987 42.6965C0.953258 42.6736 1.89287 41.7465 3.30403 40.3523C6.80378 36.8959 13.198 30.5807 23.1007 28.122C37.7332 24.4876 51.2448 29.0879 54.5615 31.425Z" fill="#AD8070"/>
<path d="M209.203 24.9143C214.646 19.3094 219.231 11.3673 219.287 5.98801C218.719 6.32289 218.174 6.61377 217.651 6.86229C217.626 6.9557 217.603 7.04732 217.579 7.13897C215.74 13.3484 213.69 20.0021 209.203 24.9143Z" fill="#855747"/>
<path fill-rule="evenodd" clip-rule="evenodd" d="M195.268 39.0145C198.921 37.3102 202.668 35.5194 205.544 34.06C200.409 35.4718 192.577 37.6802 186.584 39.6085C190.026 39.9187 193.288 39.3036 194.668 38.6761C194.863 38.7008 195.065 38.8171 195.268 39.0145Z" fill="#67463B"/>
<path fill-rule="evenodd" clip-rule="evenodd" d="M196.191 56.9782C198.82 65.1864 200.935 72.9204 200.142 74.2124C198.79 76.405 198.363 76.8279 198.317 76.7662C196.522 74.3709 193.343 72.7265 188.493 74.0114C187.853 74.1806 187.198 74.297 186.535 74.297L179.259 74.2953C189.201 70.3155 194.096 63.5507 196.191 56.9782Z" fill="#34221B"/>
<path fill-rule="evenodd" clip-rule="evenodd" d="M206.319 27.5738C206.302 27.5774 206.284 27.5827 206.265 27.5862C206.522 27.3941 206.773 27.1968 207.018 26.9941C206.793 27.1915 206.568 27.3817 206.344 27.5686L206.319 27.5738ZM196.482 85.1067C196.482 85.1296 196.48 85.1561 196.478 85.1807C196.477 85.1878 196.476 85.1948 196.476 85.2001C196.475 85.216 196.475 85.2318 196.473 85.2459H196.103C196.11 85.3517 196.116 85.4592 196.119 85.5667C196.121 85.6073 196.139 85.6478 196.169 85.676C196.198 85.706 196.237 85.7235 196.278 85.7253C196.318 85.7253 196.357 85.7112 196.389 85.683C196.42 85.6548 196.441 85.6178 196.445 85.5773C196.448 85.5314 196.454 85.4856 196.457 85.4398C196.462 85.3746 196.468 85.3111 196.473 85.2459C196.475 85.2318 196.475 85.216 196.476 85.2001C196.478 85.1701 196.48 85.1367 196.482 85.1067Z" fill="#34221B"/>
<path d="M179.259 74.2953C180.973 80.3831 180.428 82.9934 174.046 85.246L196.103 85.2459C196.1 85.1913 196.096 85.1367 196.093 85.0821C195.929 82.2074 194.706 79.2851 192.403 77.9985C192.278 77.928 192.152 77.8628 192.025 77.8046C191.83 77.7112 191.684 77.5455 191.625 77.3375C191.566 77.1295 191.597 76.8969 191.71 76.6942C191.823 76.4933 192.005 76.3434 192.213 76.2835C192.421 76.2253 192.637 76.2623 192.818 76.3804C192.973 76.4791 193.126 76.5867 193.272 76.6978C195.954 78.7617 196.689 82.1581 196.484 85.0804L196.482 85.1067C196.48 85.1367 196.478 85.1701 196.476 85.2001C196.475 85.216 196.475 85.2318 196.473 85.2459L197.845 85.246C198.382 85.246 198.963 85.2213 199.338 84.8389C200.631 83.5187 200.45 79.6127 198.317 76.7662C196.522 74.3709 193.343 72.7265 188.493 74.0114C187.853 74.1806 187.198 74.297 186.535 74.297L179.259 74.2953Z" fill="#855747"/>
<path d="M192.818 76.3804C192.637 76.2623 192.421 76.2253 192.213 76.2835C192.005 76.3434 191.823 76.4933 191.71 76.6942C191.597 76.8969 191.566 77.1295 191.625 77.3375C191.684 77.5455 191.83 77.7112 192.025 77.8046C192.152 77.8628 192.278 77.928 192.403 77.9985C194.706 79.2851 195.929 82.2074 196.093 85.0821C196.096 85.1367 196.1 85.1913 196.103 85.2459H196.473C196.475 85.2318 196.475 85.216 196.476 85.2001L196.478 85.1807C196.48 85.1561 196.482 85.1296 196.482 85.1067L196.484 85.0804C196.689 82.1581 195.954 78.7617 193.272 76.6978C193.126 76.5867 192.973 76.4791 192.818 76.3804Z" fill="#34221B"/>
<path fill-rule="evenodd" clip-rule="evenodd" d="M105.74 76.7047C101.03 75.7476 96.5075 74.6866 92.2266 73.5092L86.6276 76.4703C86.8441 77.7411 87.0834 79.0471 87.3209 80.2933C87.8734 83.1873 90.4195 85.246 93.3615 85.246L103.108 85.2459C102.939 82.38 101.716 79.4683 99.4179 78.1852C99.293 78.1147 99.1662 78.0494 99.0395 77.9895C98.8442 77.8978 98.6982 77.7322 98.6401 77.5242C98.5803 77.3162 98.612 77.0817 98.7246 76.8808C98.8372 76.6799 99.0202 76.5283 99.2279 76.4702C99.4355 76.4102 99.6519 76.4473 99.8331 76.5654C99.988 76.6658 100.141 76.7715 100.287 76.8843C102.962 78.943 103.699 82.3271 103.5 85.2459C105.404 85.2018 107.285 84.2413 107.376 82.3377C107.464 80.5223 106.922 78.4108 105.74 76.7047Z" fill="#855847"/>
<path fill-rule="evenodd" clip-rule="evenodd" d="M92.2266 73.5092L86.6276 76.4703C86.545 75.9891 86.4658 75.5132 86.3901 75.0479C86.1684 73.6643 85.542 72.3547 84.6587 71.2214C87.0834 72.0287 89.6101 72.7901 92.2266 73.5092Z" fill="#664437"/>
<path fill-rule="evenodd" clip-rule="evenodd" d="M73.0351 66.6123C71.7436 65.999 70.5031 65.3645 69.3119 64.7106C69.3048 64.7229 69.2978 64.7353 69.289 64.7476C67.9606 66.8768 70.7512 69.8096 72.3119 71.0081C71.8597 70.2379 71.6451 69.3971 71.8228 68.5317C71.9882 67.7227 72.4369 67.0671 73.0351 66.6123Z" fill="#664437"/>
<path fill-rule="evenodd" clip-rule="evenodd" d="M143.243 78.6294C142.569 78.6981 141.93 78.7193 141.36 78.6858L143.243 78.6294ZM69.3119 64.7106C64.4432 62.0351 60.4402 59.0194 57.5106 55.623C57.4332 57.3943 57.2132 58.7903 56.7716 59.4142C54.9997 61.917 53.1715 66.3234 57.3258 70.2398C60.6496 73.3736 60.9259 81.5499 60.6496 85.246L76.7795 85.246C76.6105 82.3801 75.3876 79.4684 73.0897 78.1853C72.9647 78.1148 72.8381 78.0495 72.7114 77.9896C72.5161 77.898 72.37 77.7323 72.312 77.5243C72.2521 77.3164 72.2856 77.0819 72.3964 76.8809C72.509 76.68 72.692 76.5285 72.8996 76.4703C73.1073 76.4104 73.3237 76.4474 73.5049 76.5655C73.6598 76.666 73.8129 76.7717 73.9589 76.8845C76.6334 78.9431 77.3724 82.3272 77.1718 85.246L78.8275 85.246C83.054 85.246 81.1994 76.6783 75.9947 74.1561C74.6082 73.4846 73.1002 72.3547 72.3119 71.0081C70.7512 69.8096 67.9606 66.8768 69.289 64.7476C69.2978 64.7353 69.3048 64.7229 69.3119 64.7106ZM59.4602 18.9287C42.0195 14.3637 12.7564 13.9107 0.511643 40.4457C0.157973 41.2142 -0.401598 42.7353 0.442987 42.6965C3.59083 35.1775 14.7921 28.1802 26.7518 24.9671C37.2035 22.1576 47.6958 23.3473 54.7692 25.7567C55.5874 23.3191 57.2695 20.9733 59.4602 18.9287Z" fill="#855747"/>
<path fill-rule="evenodd" clip-rule="evenodd" d="M126.568 79.1212C128.396 81.8496 131.002 83.8501 134.201 84.2537C134.544 84.3084 134.869 84.3436 135.219 84.37C135.564 84.3947 135.879 84.5568 136.092 84.83C136.191 84.9534 136.265 85.0944 136.31 85.246L146.275 85.2459C141.297 84.7788 136.615 82.1473 132.716 78.9395L126.568 79.1212Z" fill="#67463B"/>
<path fill-rule="evenodd" clip-rule="evenodd" d="M211.945 0.596558C213.461 -0.140184 215.288 -0.291833 216.652 0.700477C218.548 2.08231 219.308 3.91703 219.287 5.98801C218.719 6.32289 218.174 6.61377 217.651 6.86229C217.626 6.9557 217.603 7.04732 217.579 7.13897C215.74 13.3484 213.69 20.0021 209.203 24.9143C208.487 25.6511 207.755 26.349 207.018 26.9941C206.773 27.1968 206.522 27.3941 206.265 27.5862C205.304 27.803 204.361 28.1132 203.471 28.4727C203.448 28.4393 203.429 28.4023 203.413 28.3635C203.349 28.2067 203.349 28.0304 203.414 27.8718C203.478 27.7132 203.601 27.5845 203.758 27.5176C204.131 27.3536 204.495 27.1598 204.847 26.9394C210.688 22.6653 213.21 14.9718 215.026 7.83702C209.678 9.19946 207.358 5.60033 206.839 3.16098C208.66 2.22154 210.38 1.35621 211.945 0.596558ZM209.532 3.32847C209.664 2.66223 212.689 1.29974 214.185 0.700477C216.651 -0.00101355 214.445 2.6922 212.854 3.32847C212.024 3.66159 209.365 4.16039 209.532 3.32847Z" fill="#34221B"/>
<path d="M214.185 0.700477C212.689 1.29974 209.664 2.66223 209.532 3.32847C209.365 4.16039 212.024 3.66159 212.854 3.32847C214.445 2.6922 216.651 -0.00101355 214.185 0.700477Z" fill="white"/>
<path fill-rule="evenodd" clip-rule="evenodd" d="M189.067 9.97856C181.578 13.3309 171.677 21.2605 176.629 33.556C178.475 37.6909 182.646 39.2542 186.584 39.6085C192.577 37.6802 200.409 35.4718 205.544 34.06C206.323 33.6652 207.039 33.2951 207.671 32.9567C205.913 31.8357 204.139 31.2489 202.58 30.9933C198.977 32.1865 195.222 32.4685 191.386 32.3205C191.149 32.3028 190.895 32.2746 190.652 32.2376C190.448 32.2059 190.269 32.0949 190.153 31.9257C190.037 31.7565 189.994 31.5414 190.033 31.3335C190.072 31.1255 190.19 30.9404 190.359 30.8241C190.527 30.7077 190.735 30.6689 190.936 30.7148C191.126 30.7571 191.342 30.7959 191.553 30.8259C193.992 31.0868 196.57 31.1431 199.081 30.8523C200.177 30.0767 201.723 29.1795 203.471 28.4727C203.448 28.4393 203.429 28.4023 203.413 28.3635C203.349 28.2067 203.349 28.0304 203.414 27.8718C203.478 27.7132 203.601 27.5845 203.758 27.5176C204.131 27.3536 204.495 27.1598 204.847 26.9394C210.688 22.6653 213.21 14.9718 215.026 7.83702C209.678 9.19946 207.358 5.60033 206.839 3.16098C203.316 4.48993 197.77 6.60323 191.866 8.88924C190.941 9.2488 190.005 9.61195 189.067 9.97856ZM178.716 22.3568C179.085 24.3291 181.636 25.5047 184.415 24.9812C187.191 24.4595 189.143 22.4361 188.773 20.4639C188.404 18.4916 185.852 17.316 183.074 17.8377C180.297 18.3612 178.346 20.3845 178.716 22.3568Z" fill="#855747"/>
<path fill-rule="evenodd" clip-rule="evenodd" d="M178.716 22.3568C179.085 24.3291 181.636 25.5047 184.415 24.9812C187.191 24.4595 189.143 22.4361 188.773 20.4639C188.404 18.4916 185.852 17.316 183.074 17.8377C180.297 18.3612 178.346 20.3845 178.716 22.3568ZM180.086 22.0977C180.165 22.5207 180.502 22.9931 181.246 23.335C181.598 23.4972 182.016 23.6152 182.483 23.6716C182.205 23.0089 182.066 22.288 182.009 21.6007C181.953 20.9274 181.974 20.2488 182.039 19.6178C181.496 19.8646 181.049 20.1835 180.718 20.5254C180.15 21.1141 180.007 21.6746 180.086 22.0977Z" fill="#34221B"/>
<path d="M180.086 22.0977C180.165 22.5207 180.502 22.9931 181.246 23.335C181.598 23.4972 182.016 23.6152 182.483 23.6716C182.205 23.0089 182.066 22.288 182.009 21.6007C181.953 20.9274 181.974 20.2488 182.039 19.6178C181.496 19.8646 181.049 20.1835 180.718 20.5254C180.15 21.1141 180.007 21.6746 180.086 22.0977Z" fill="white"/>
<path fill-rule="evenodd" clip-rule="evenodd" d="M83.1402 16.1703C71.6627 11.815 62.4655 16.5035 59.4602 18.9287C65.6274 13.1687 73.9923 10.5107 82.2499 13.3413C93.0958 16.1702 130.506 23.52 151.08 20.6171C132.246 26.1409 100.899 22.9085 83.1402 16.1703ZM162.38 21.1389C161.651 19.5808 160.059 19.0044 158.234 18.9621C159.642 18.4439 160.803 17.8341 161.673 17.1256C170.469 9.94145 185.467 8.64072 191.866 8.88924C191.003 9.17301 190.056 9.5344 189.067 9.97856C181.578 13.3309 171.677 21.2605 176.629 33.556C178.475 37.6909 182.646 39.2542 186.584 39.6085C190.026 39.9187 193.288 39.3036 194.668 38.6761C194.668 48.2432 183.229 61.6931 175.756 63.2019C175.561 62.5568 175.362 61.8906 175.161 61.2032C174.377 58.5047 173.88 55.5154 173.604 52.3975C173.312 49.0892 172.883 45.4161 172.448 41.6919C171.311 31.9574 170.134 21.8827 171.255 17.1256C167.023 18.8987 164.402 20.0109 162.38 21.1389Z" fill="#D09245"/>
<path d="M175.756 63.2019C176.432 65.4227 177.077 67.402 177.655 69.1698C178.263 71.0363 178.796 72.6685 179.206 74.1103C179.217 74.1438 179.226 74.1772 179.236 74.2125L179.259 74.2953C189.201 70.3155 194.096 63.5507 196.191 56.9782C198.827 48.7066 197.027 40.7418 195.268 39.0145C195.065 38.8171 194.863 38.7008 194.668 38.6761C194.668 48.2432 183.229 61.6931 175.756 63.2019Z" fill="#AD6E30"/>
<path d="M56.1663 29.5602C55.5733 30.1859 55.0314 30.8698 54.5493 31.6154C53.8402 32.7081 53.2578 33.9349 52.8249 35.3061C54.9364 32.0278 61.9359 26.1708 73.0351 28.9733C76.5137 29.851 79.8217 30.9932 83.2528 32.1758C93.4987 35.7097 104.821 39.6155 124.981 38.0027C139.807 36.8165 147.58 35.8913 149.614 35.5758C150.491 33.4942 151.541 31.5819 152.928 29.7048C130.486 36.4994 106.236 30.0819 87.562 25.1398C79.0141 22.9348 63.5916 21.7116 56.1663 29.5602Z" fill="#EEC589"/>
<path d="M152.928 29.7048L153.193 29.4176C157.462 24.7821 159.158 22.9402 162.38 21.1389C161.651 19.5808 160.059 19.0044 158.234 18.9621C155.75 18.9057 152.838 19.8345 151.08 20.6171C132.246 26.1409 100.899 22.9085 83.1402 16.1703C71.6627 11.815 62.4655 16.5035 59.4602 18.9287C57.2695 20.9733 55.5874 23.3191 54.7692 25.7567C54.1428 27.6215 54.0214 29.5409 54.5615 31.425C54.558 31.4885 54.5528 31.5519 54.5493 31.6154C55.0314 30.8698 55.5733 30.1859 56.1663 29.5602C63.5916 21.7116 79.0141 22.9348 87.562 25.1398C106.236 30.0819 130.486 36.4994 152.928 29.7048Z" fill="#AA3226"/>
<path fill-rule="evenodd" clip-rule="evenodd" d="M143.512 71.0946C142.509 70.4283 141.904 69.3954 142.017 68.114C142.296 64.9679 143.349 58.644 146.136 47.2721C147.283 42.5943 148.23 38.8735 149.614 35.5758C147.58 35.8913 139.807 36.8165 124.981 38.0027C104.821 39.6155 93.4987 35.7097 83.2528 32.1758C79.8217 30.9932 76.5137 29.851 73.0351 28.9733C61.9359 26.1708 54.9364 32.0278 52.8249 35.3061C52.4607 36.4588 52.202 37.7138 52.063 39.0798C70.4943 69.2738 118.194 74.0204 143.512 71.0946ZM97.4225 67.439L97.3715 67.4108C97.3855 67.4143 97.4032 67.4249 97.4225 67.439Z" fill="#D09245"/>
<path d="M69.377 16.6391C73.1811 14.836 77.6803 15.3595 80.9725 17.9892L84.2769 20.6311C86.047 22.0447 88.3731 22.5506 90.569 22.0007L95.7017 20.7158C99.4618 19.7746 103.433 21.0119 105.995 23.9236C107.695 25.8554 110.359 26.6239 112.822 25.8924L118.173 24.3044C121.227 23.3984 124.523 23.8584 127.213 25.5663L128.794 26.5692C130.986 27.9616 133.752 28.0762 136.052 26.8706L140.336 24.6233C142.379 23.5535 144.707 23.1516 146.989 23.4724L153.63 24.4101C154.659 24.5546 155.377 25.5099 155.233 26.541C155.087 27.5721 154.135 28.2912 153.104 28.1467L146.465 27.209C144.96 26.9975 143.428 27.2619 142.083 27.9669L137.797 30.2141C134.306 32.0436 130.104 31.8691 126.777 29.7558L125.195 28.753C123.425 27.6285 121.254 27.3253 119.243 27.9228L113.894 29.5109C110.023 30.6583 105.838 29.4528 103.169 26.4194C101.538 24.5652 99.0096 23.7773 96.6166 24.3765L91.484 25.6614C88.1479 26.4969 84.6165 25.7267 81.9279 23.5799L78.6234 20.9397C76.4557 19.2071 73.4926 18.8634 70.987 20.0496L66.1887 22.3232C65.2473 22.7691 64.1247 22.3673 63.6795 21.4243C63.2344 20.4831 63.6373 19.3586 64.5769 18.9127L69.377 16.6391Z" fill="url(#paint0_linear_529_1133)"/>
<path fill-rule="evenodd" clip-rule="evenodd" d="M162.049 85.2214L162.047 85.246L166.045 85.246L166.339 84.3294C166.39 84.1637 166.46 84.0069 166.547 83.8571C166.795 83.427 166.905 82.93 166.86 82.4365L166.742 81.1463L166.555 80.05C166.464 79.5107 166.3 78.9837 166.071 78.4849L165.859 78.0249L165.169 76.9479C164.794 76.3645 164.326 75.8481 163.782 75.4198L162.464 74.38C161.849 73.8935 161.148 73.5286 160.397 73.303L160.138 73.2254L159.067 73.0633C158.757 73.0157 158.446 72.9928 158.132 72.9928H157.853C156.997 72.9928 156.151 73.1691 155.366 73.5092L154.416 73.9234C153.98 74.1702 153.505 74.32 153.021 74.3729L153.404 74.505C153.547 74.5544 153.663 74.6583 153.726 74.7958C153.792 74.9333 153.797 75.0937 153.744 75.2383C153.689 75.3828 153.582 75.5009 153.447 75.5643C153.309 75.6278 153.153 75.6331 153.012 75.5784L152.021 75.1906C151.84 75.4109 151.608 75.6279 151.335 75.8394C149.572 77.2001 146.086 78.3385 143.243 78.6294C142.569 78.6981 141.93 78.7193 141.36 78.6858L132.716 78.9395C136.615 82.1473 141.297 84.7788 146.275 85.2459L161.685 85.246C161.681 85.1755 161.676 85.1068 161.673 85.0345C161.507 82.1616 160.284 79.2375 157.981 77.9509C157.856 77.8821 157.729 77.8151 157.603 77.7569C157.407 77.6653 157.261 77.4996 157.203 77.2916C157.143 77.0837 157.177 76.8493 157.288 76.6483C157.4 76.4456 157.583 76.2958 157.791 76.2376C157.999 76.1777 158.215 76.2147 158.396 76.3328C158.551 76.4333 158.704 76.539 158.85 76.6501C161.532 78.7158 162.267 82.1104 162.063 85.0345L162.06 85.0732C162.058 85.1014 162.056 85.1279 162.054 85.1561V85.1649L162.053 85.1808L162.051 85.1913V85.2002L162.049 85.2214Z" fill="#855747"/>
<path fill-rule="evenodd" clip-rule="evenodd" d="M126.017 81.3913C125.528 80.6916 125.097 79.9478 124.722 79.1758L126.568 79.1212L132.716 78.9395L141.36 78.6858L143.243 78.6294C146.086 78.3385 149.572 77.2001 151.335 75.8394C151.608 75.6279 151.84 75.4109 152.021 75.1906L144.205 72.1432C143.831 71.6673 143.577 71.299 143.512 71.0946C118.194 74.0204 70.4943 69.2738 52.063 39.0798C51.4208 45.4073 53.4214 50.8853 57.5106 55.623C60.4402 59.0194 64.4432 62.0351 69.3119 64.7106C70.5031 65.3645 71.7436 65.999 73.0351 66.6123C76.5648 68.292 80.4604 69.8237 84.6587 71.2214C87.0834 72.0287 89.6101 72.7901 92.2266 73.5092C96.5075 74.6866 101.03 75.7476 105.74 76.7047C110.499 77.6723 115.451 78.5342 120.541 79.2991C123.188 80.5117 125.195 81.3155 126.017 81.3913Z" fill="#AD6E30"/>
<path fill-rule="evenodd" clip-rule="evenodd" d="M184.258 25.2139C181.48 25.7392 178.925 24.5652 178.554 22.5912C178.182 20.6189 180.132 18.5938 182.91 18.0686C185.689 17.5433 188.242 18.7172 188.615 20.6894C188.986 22.6635 187.035 24.6887 184.258 25.2139ZM182.654 18.511C182.654 18.511 181.593 20.7089 181.897 22.1154C182.18 23.4179 183.832 24.9266 183.832 24.9266C182.39 25.0429 179.523 24.6411 179.096 22.1154C179.096 20.1096 182.087 18.6027 182.654 18.511Z" fill="#34221B"/>
<path d="M182.654 18.511C182.654 18.511 181.593 20.7089 181.897 22.1154C182.18 23.4179 183.832 24.9266 183.832 24.9266C182.39 25.0429 179.523 24.6411 179.096 22.1154C179.096 20.1096 182.087 18.6027 182.654 18.511Z" fill="white"/>
<defs>
<linearGradient id="paint0_linear_529_1133" x1="107.627" y1="20.0803" x2="82.3478" y2="62.0824" gradientUnits="userSpaceOnUse">
<stop stop-color="#F5C849"/>
<stop offset="1" stop-color="#F5C849"/>
</linearGradient>
</defs>
</svg>
