<svg width="222" height="88" viewBox="0 0 222 88" fill="none" xmlns="http://www.w3.org/2000/svg">
<path fill-rule="evenodd" clip-rule="evenodd" d="M161.634 80.6702C161.901 80.3553 162.16 80.019 162.407 79.6542L162.416 79.6666C162.173 80.0599 161.94 80.4353 161.716 80.7912C161.689 80.7503 161.663 80.7094 161.634 80.6702ZM163.201 84.7433C163.382 84.6988 163.565 84.6525 163.75 84.6045C163.764 85.0529 163.754 85.4978 163.723 85.932L163.722 85.9711C163.718 86.0209 163.714 86.0707 163.711 86.1205L163.709 86.1455H163.343C163.341 86.1134 163.34 86.0796 163.336 86.0475C163.334 86.0102 163.333 85.9711 163.329 85.9337C163.306 85.5351 163.263 85.1383 163.201 84.7433ZM74.7302 77.7751C77.4339 79.8535 78.1817 83.2699 77.9828 86.2184H77.5849C77.4126 83.3233 76.1745 80.3838 73.8527 79.0901C73.7284 79.019 73.5987 78.9531 73.4708 78.8944C73.2736 78.8001 73.1262 78.6346 73.0675 78.4229C73.0071 78.2129 73.0391 77.9762 73.1528 77.7734C73.2665 77.5705 73.4495 77.4175 73.6591 77.3587C73.8687 77.2982 74.0872 77.3356 74.2719 77.4549C74.4283 77.5545 74.5828 77.663 74.7302 77.7751Z" fill="#855747"/>
<path fill-rule="evenodd" clip-rule="evenodd" d="M209.08 27.2726C209.824 26.6195 210.563 25.9148 211.286 25.1674C210.609 25.9112 209.875 26.6142 209.08 27.2726Z" fill="#34221B"/>
<path fill-rule="evenodd" clip-rule="evenodd" d="M161.716 80.7912C161.94 80.4353 162.173 80.0599 162.416 79.6666L162.407 79.6542C162.16 80.019 161.901 80.3553 161.634 80.6702C161.663 80.7094 161.689 80.7503 161.716 80.7912ZM163.201 84.7433C163.263 85.1383 163.306 85.5351 163.329 85.9337C163.333 85.9711 163.334 86.0102 163.336 86.0475C163.34 86.0796 163.341 86.1134 163.343 86.1455C163.349 86.238 163.352 86.3305 163.356 86.4231C163.357 86.464 163.375 86.5032 163.405 86.5334C163.436 86.5637 163.475 86.5815 163.515 86.5815C163.556 86.5833 163.597 86.569 163.627 86.5406C163.659 86.5121 163.681 86.4729 163.684 86.432C163.693 86.3359 163.702 86.2416 163.709 86.1455L163.711 86.1205C163.714 86.0707 163.718 86.0209 163.722 85.9711L163.723 85.932C163.754 85.4978 163.764 85.0529 163.75 84.6045C163.565 84.6525 163.382 84.6988 163.201 84.7433Z" fill="#34221B"/>
<path d="M100.251 77.3356C100.461 77.2751 100.68 77.3125 100.863 77.4317C101.021 77.5331 101.175 77.6399 101.323 77.752C104.026 79.8303 104.774 83.2468 104.575 86.1952C104.575 86.2023 104.573 86.2095 104.573 86.2166C104.563 86.3857 104.55 86.5493 104.534 86.7184C104.531 86.7593 104.509 86.7984 104.477 86.8251C104.446 86.8536 104.406 86.8678 104.366 86.8678C104.325 86.866 104.286 86.8483 104.255 86.8198C104.225 86.7896 104.207 86.7504 104.206 86.7095C104.199 86.5422 104.19 86.3821 104.179 86.2184C104.179 86.2112 104.177 86.2042 104.177 86.1971C104.005 83.302 102.767 80.3606 100.445 79.067C100.319 78.9958 100.191 78.93 100.063 78.8713C99.8642 78.777 99.7186 78.6114 99.6582 78.4015C99.5995 78.1915 99.6315 77.9549 99.7452 77.7503C99.8571 77.5474 100.042 77.3943 100.251 77.3356Z" fill="#34221B"/>
<path d="M73.6591 77.3587C73.8687 77.2982 74.0872 77.3356 74.2719 77.4549C74.4283 77.5545 74.5828 77.663 74.7302 77.7751C77.4339 79.8535 78.1817 83.2699 77.9828 86.2184C77.9828 86.2255 77.9828 86.2326 77.981 86.2398C77.9703 86.407 77.9579 86.5725 77.942 86.7415C77.9384 86.7824 77.9171 86.8198 77.8851 86.8483C77.8549 86.8767 77.8141 86.891 77.7732 86.891C77.7323 86.8892 77.6932 86.8715 77.663 86.8412C77.6328 86.8127 77.6151 86.7718 77.6133 86.7309C77.6079 86.5654 77.5991 86.4034 77.5867 86.2415C77.5867 86.2344 77.5866 86.2273 77.5849 86.2184C77.4126 83.3233 76.1745 80.3838 73.8527 79.0901C73.7284 79.019 73.5987 78.9531 73.4708 78.8944C73.2736 78.8001 73.1262 78.6346 73.0675 78.4229C73.0071 78.2129 73.0391 77.9762 73.1528 77.7734C73.2665 77.5705 73.4495 77.4175 73.6591 77.3587Z" fill="#34221B"/>
<path d="M180.347 47.1287L191.458 42.2922L194.156 41.116C194.274 41.0662 194.366 40.9683 194.416 40.8491C194.433 40.8046 194.446 40.7584 194.449 40.7121C194.458 40.6339 194.448 40.5538 194.417 40.4791C194.371 40.3599 194.279 40.2655 194.16 40.2139C194.043 40.1605 193.908 40.1551 193.789 40.1996L179.588 45.4703L178.403 45.9098C178.167 45.997 177.979 46.1749 177.881 46.4062C177.783 46.6358 177.782 46.9027 177.879 47.1429C177.975 47.3813 178.16 47.5735 178.389 47.6731C178.62 47.771 178.879 47.7674 179.109 47.6678L180.347 47.1287Z" fill="#34221B"/>
<path d="M137.714 86.1687C137.667 86.0157 137.593 85.8716 137.493 85.747C137.277 85.473 136.959 85.3092 136.61 85.2825C136.259 85.2576 135.928 85.2221 135.582 85.1687C131.967 84.7149 129.1 82.2415 127.244 78.9799C125.847 76.5261 125.023 73.6257 124.885 70.8C124.869 70.4281 124.865 70.0527 124.879 69.6915C124.881 69.6346 124.87 69.5794 124.849 69.5296C124.833 69.494 124.812 69.4601 124.785 69.4299C124.721 69.3587 124.634 69.3142 124.54 69.3053C124.446 69.2982 124.353 69.3284 124.279 69.3889C124.204 69.4494 124.154 69.5366 124.142 69.6292C124.117 69.8338 124.096 70.0402 124.082 70.2484C124.071 70.373 124.064 70.4957 124.059 70.6203C124.057 70.6541 124.055 70.6861 124.053 70.7181C124.053 70.7306 124.051 70.7431 124.051 70.7538V70.7574C124.051 70.7716 124.05 70.7875 124.05 70.8018C124.032 71.389 124.041 71.9851 124.078 72.5901C124.181 74.2947 124.508 76.0475 125.064 77.7326C125.599 79.3465 126.346 80.8963 127.315 82.2842C129.116 84.8643 131.686 86.8751 135.077 87.658C135.491 87.7577 135.886 87.836 136.308 87.9018C136.653 87.957 136.999 87.8698 137.273 87.6527C137.547 87.4356 137.724 87.1065 137.767 86.7435C137.788 86.5477 137.77 86.3502 137.714 86.1687Z" fill="#34221B"/>
<path d="M56.1439 26.8436C55.5666 28.4859 55.2309 30.1746 55.0995 31.8757C54.9378 34.0021 55.0924 36.1498 55.4921 38.2655C55.7159 39.4417 56.0125 40.6072 56.3749 41.7513C56.4637 42.0218 56.5561 42.2887 56.6556 42.5574C56.7693 42.8706 56.9949 43.1233 57.2968 43.2603C57.3111 43.2656 57.327 43.2728 57.3412 43.2781C57.6645 43.4098 58.0412 43.4008 58.3787 43.2584C58.7162 43.1143 58.9862 42.8493 59.1158 42.5272C59.2473 42.2016 59.2295 41.8457 59.0785 41.5307C58.9649 41.2994 58.8583 41.0716 58.7535 40.8368C58.352 39.915 57.995 38.9577 57.6965 37.9737C56.6396 34.495 56.295 30.7102 57.1512 27.2012C57.2222 26.961 57.3057 26.7208 57.3998 26.5019C57.4514 26.388 57.4532 26.2546 57.4105 26.1353C57.3679 26.0143 57.2826 25.9165 57.1725 25.8596C57.0606 25.8044 56.9309 25.7938 56.8083 25.8311C56.6875 25.8667 56.5827 25.9485 56.5205 26.057C56.4388 26.2012 56.3625 26.3525 56.2932 26.5037C56.2399 26.6158 56.1901 26.7315 56.1439 26.8436Z" fill="#34221B"/>
<path fill-rule="evenodd" clip-rule="evenodd" d="M201.066 31.1747C198.53 31.4719 195.929 31.4149 193.463 31.1551C193.252 31.1231 193.032 31.0857 192.84 31.043C192.637 30.9967 192.428 31.0359 192.257 31.1533C192.087 31.2708 191.968 31.4576 191.929 31.6693C191.89 31.8793 191.934 32.0964 192.051 32.2672C192.168 32.438 192.35 32.5502 192.554 32.5804C192.801 32.6196 193.057 32.6462 193.296 32.6658C197.171 32.8117 200.963 32.5235 204.601 31.3135C204.294 31.2637 203.992 31.2263 203.702 31.1996C203.514 31.1818 203.329 31.1694 203.148 31.1623C202.249 31.1231 201.47 31.1925 200.867 31.3189C200.915 31.2833 200.965 31.2477 201.017 31.2121L201.045 31.1907L201.066 31.1747Z" fill="#34221B"/>
<path fill-rule="evenodd" clip-rule="evenodd" d="M208.376 27.8579L208.399 27.8525C211.192 27.2315 214.132 27.3881 216.416 29.3223C222.362 34.358 219.461 43.4008 214.924 38.7175C213.384 36.1907 211.572 34.4576 209.744 33.2939C207.969 32.1622 206.177 31.5715 204.601 31.3135C204.294 31.2637 203.992 31.2263 203.702 31.1996C203.514 31.1818 203.329 31.1694 203.148 31.1623C202.249 31.1231 201.47 31.1925 200.867 31.3189C200.915 31.2833 200.965 31.2477 201.017 31.2121L201.045 31.1907L201.066 31.1747C202.173 30.39 203.736 29.4825 205.498 28.769C206.399 28.4042 207.351 28.091 208.321 27.8704C208.339 27.865 208.357 27.8614 208.376 27.8579ZM210.147 27.582C210.117 27.5767 210.083 27.5838 210.058 27.6034C210.032 27.6212 210.012 27.6479 210.007 27.6781C210 27.7084 210.005 27.7404 210.023 27.7689C210.039 27.7956 210.066 27.8152 210.096 27.8241C210.3 27.8775 210.504 27.9415 210.703 28.0162C214.208 29.4433 216.977 32.9914 217.21 36.504C217.214 36.6944 217.205 36.8829 217.183 37.0662C217.164 37.2513 217.221 37.4328 217.343 37.5716C217.466 37.7104 217.645 37.7958 217.839 37.8082C218.033 37.8189 218.223 37.7567 218.361 37.6339C218.5 37.5111 218.576 37.3367 218.58 37.1517C218.585 36.9026 218.573 36.6569 218.548 36.4132C217.818 32.1337 214.572 28.9433 210.796 27.7244C210.582 27.6674 210.364 27.6194 210.147 27.582Z" fill="#F1A4AC"/>
<path d="M210.058 27.6034C210.083 27.5838 210.117 27.5767 210.147 27.582C210.364 27.6194 210.582 27.6674 210.796 27.7244C214.572 28.9433 217.818 32.1337 218.548 36.4132C218.573 36.6569 218.585 36.9026 218.58 37.1517C218.576 37.3367 218.5 37.5111 218.361 37.6339C218.223 37.7567 218.033 37.8189 217.839 37.8082C217.645 37.7958 217.466 37.7104 217.343 37.5716C217.221 37.4328 217.164 37.2513 217.183 37.0662C217.205 36.8829 217.214 36.6944 217.21 36.504C216.977 32.9914 214.208 29.4433 210.703 28.0162C210.504 27.9415 210.3 27.8775 210.096 27.8241C210.066 27.8152 210.039 27.7956 210.023 27.7689C210.005 27.7404 210 27.7084 210.007 27.6781C210.012 27.6479 210.032 27.6212 210.058 27.6034Z" fill="#34221B"/>
<path fill-rule="evenodd" clip-rule="evenodd" d="M163.711 86.1205C163.713 86.1027 163.714 86.0833 163.714 86.0637C163.714 86.0851 163.713 86.1009 163.711 86.1205Z" fill="#855747"/>
<path fill-rule="evenodd" clip-rule="evenodd" d="M52.8062 25.3935C50.0208 24.6444 46.8518 24.0874 43.4553 23.849C42.7927 24.0483 42.1035 24.1942 41.5031 24.3206C40.1015 24.6142 39.1707 24.8099 40.1388 25.3775C41.2899 26.0537 42.5742 26.1319 43.6667 26.1996C44.8071 26.2707 45.7362 26.3276 46.0897 27.0358C46.3473 27.5501 47.0738 27.2227 48.1716 26.728C49.3369 26.2049 50.9196 25.4931 52.8062 25.3935Z" fill="#AD8070"/>
<path fill-rule="evenodd" clip-rule="evenodd" d="M189.287 47.1431C189.289 47.4562 189.312 47.7712 189.358 48.0843C189.413 48.4634 189.461 48.8405 189.504 49.2178C188.379 49.3352 186.656 49.4242 184.699 49.3815C182.684 48.9011 181.189 48.1323 180.347 47.1287L191.458 42.2922C190.049 43.4542 189.278 45.2658 189.287 47.1431Z" fill="#67463B"/>
<path d="M211.286 25.1674C216.777 19.5036 221.404 11.4767 221.456 6.0442C220.882 6.38229 220.331 6.6759 219.802 6.92858C219.779 7.02111 219.756 7.11549 219.731 7.20802C217.878 13.4822 215.814 20.2029 211.286 25.1674Z" fill="#855747"/>
<path d="M193.789 40.1996C193.908 40.1551 194.043 40.1605 194.16 40.2139C194.279 40.2655 194.371 40.3599 194.417 40.4791C194.448 40.5538 194.458 40.6339 194.449 40.7121C195.092 40.415 195.744 40.1125 196.403 39.8047C200.343 37.9684 204.479 35.9951 207.598 34.4096C198.35 36.9595 180.441 42.077 179.858 43.5717C179.594 44.2496 179.508 44.8848 179.588 45.4703L193.789 40.1996Z" fill="#67463B"/>
<path fill-rule="evenodd" clip-rule="evenodd" d="M208.321 27.8704C208.339 27.865 208.357 27.8614 208.376 27.8579L208.399 27.8525C208.627 27.6639 208.854 27.4701 209.08 27.2726C208.833 27.4754 208.581 27.6746 208.321 27.8704Z" fill="#34221B"/>
<path fill-rule="evenodd" clip-rule="evenodd" d="M99.1004 75.3214C99.1004 74.357 98.8908 72.7217 98.5995 71.4797L87.5255 77.3464C87.7458 78.6293 87.9874 79.9478 88.229 81.2076C88.7885 84.1312 91.3625 86.2077 94.3344 86.2042L104.177 86.1971C104.005 83.302 102.767 80.3606 100.445 79.067C100.319 78.9958 100.191 78.93 100.063 78.8713C99.8642 78.777 99.7186 78.6114 99.6582 78.4015C99.5995 78.1915 99.6315 77.9549 99.7452 77.7503C99.8571 77.5474 100.042 77.3943 100.251 77.3356C100.461 77.2751 100.68 77.3125 100.863 77.4317C101.021 77.5331 101.175 77.6399 101.323 77.752C104.026 79.8303 104.774 83.2468 104.575 86.1952C106.497 86.149 108.396 85.1775 108.487 83.254C108.54 82.1348 108.357 80.9016 107.933 79.7201C107.302 77.9674 106.146 76.325 104.449 75.3214C103.93 75.0616 103.175 74.615 102.413 74.0421C101.182 74.8143 99.8376 75.4745 99.1004 75.3214Z" fill="#855847"/>
<path fill-rule="evenodd" clip-rule="evenodd" d="M93.1513 66.5187C91.7835 67.7483 87.3852 71.3516 83.9497 70.4245C85.6568 71.8338 86.9411 73.7858 87.2857 75.9104C87.3603 76.3802 87.442 76.8606 87.5255 77.3464L98.5995 71.4797C98.4183 70.7075 98.2051 70.0882 97.9937 69.8765C97.9937 70.2929 92.0428 72.5118 89.5506 72.0954C90.7212 70.7199 92.9151 67.9529 93.4462 66.613L93.1513 66.5187Z" fill="#664437"/>
<path fill-rule="evenodd" clip-rule="evenodd" d="M93.4462 66.613C93.5226 66.4208 93.5652 66.259 93.5652 66.1327C93.5243 66.1736 93.3804 66.3123 93.1513 66.5187L93.4462 66.613Z" fill="#A77D6F"/>
<path fill-rule="evenodd" clip-rule="evenodd" d="M124.142 69.6292C124.099 69.5722 123.957 69.4869 123.728 69.3766C123.956 69.599 124.059 69.9139 124.082 70.2484C124.096 70.0402 124.117 69.8338 124.142 69.6292Z" fill="#C59787"/>
<path fill-rule="evenodd" clip-rule="evenodd" d="M162.416 79.6666C162.448 79.6132 162.48 79.5617 162.512 79.5083L162.588 79.3856C162.533 79.471 162.476 79.5546 162.419 79.6364L162.407 79.6542L162.416 79.6666ZM163.75 84.6045C163.764 85.0529 163.754 85.4978 163.723 85.932L163.722 85.9711C163.72 86.0013 163.718 86.0335 163.714 86.0637C163.714 86.0833 163.713 86.1027 163.711 86.1205L163.709 86.1455L167.747 86.1419L168.042 85.2149C168.095 85.0494 168.166 84.8892 168.253 84.7397C168.504 84.3038 168.614 83.802 168.568 83.3037L168.52 82.7771C166.949 83.5903 165.319 84.1863 163.75 84.6045ZM154.451 30.0553C154.111 30.1585 153.77 30.26 153.431 30.3561C153.699 30.3365 153.966 30.3383 154.227 30.3632C154.3 30.26 154.374 30.1585 154.451 30.0553Z" fill="#855747"/>
<path fill-rule="evenodd" clip-rule="evenodd" d="M214.034 0.604752C215.565 -0.140815 217.411 -0.295719 218.789 0.706081C220.706 2.09935 221.475 3.95341 221.456 6.0442C220.882 6.38229 220.331 6.6759 219.802 6.92858C219.779 7.02111 219.756 7.11549 219.731 7.20802C217.878 13.4822 215.814 20.2029 211.286 25.1674C210.563 25.9148 209.824 26.6195 209.08 27.2726C208.833 27.4754 208.581 27.6746 208.321 27.8704C207.351 28.091 206.399 28.4042 205.498 28.769C205.475 28.7334 205.456 28.696 205.44 28.6568C205.376 28.4985 205.376 28.3205 205.442 28.1604C205.506 28.0003 205.63 27.8704 205.788 27.8028C206.164 27.6373 206.532 27.4398 206.888 27.2174C212.783 22.8952 215.325 15.1228 217.151 7.91446C211.753 9.29527 209.405 5.6617 208.879 3.19902C210.717 2.24882 212.455 1.37345 214.034 0.604752ZM211.6 3.36638C211.733 2.69377 214.787 1.3147 216.297 0.707927C218.787 -0.00205177 216.56 2.71865 214.956 3.36279C214.117 3.70088 211.431 4.20625 211.6 3.36638Z" fill="#34221B"/>
<path d="M216.297 0.707927C214.787 1.3147 211.733 2.69377 211.6 3.36638C211.431 4.20625 214.117 3.70088 214.956 3.36279C216.56 2.71865 218.787 -0.00205177 216.297 0.707927Z" fill="white"/>
<path fill-rule="evenodd" clip-rule="evenodd" d="M174.177 42.1464C173.019 32.3135 171.822 22.139 172.95 17.3346C182.432 13.3078 200.853 6.23288 208.879 3.19902C209.405 5.6617 211.753 9.29527 217.151 7.91446C215.325 15.1228 212.783 22.8952 206.888 27.2174C206.532 27.4398 206.164 27.6373 205.788 27.8028C205.63 27.8704 205.506 28.0003 205.442 28.1604C205.376 28.3205 205.376 28.4985 205.44 28.6568C205.449 28.6782 205.459 28.6978 205.47 28.7174C205.479 28.7351 205.488 28.7512 205.498 28.769C203.736 29.4825 202.173 30.39 201.066 31.1747C198.53 31.4719 195.929 31.4149 193.463 31.1551C193.252 31.1231 193.032 31.0857 192.84 31.043C192.637 30.9967 192.428 31.0359 192.257 31.1533C192.087 31.2708 191.968 31.4576 191.929 31.6693C191.89 31.8793 191.934 32.0964 192.051 32.2672C192.168 32.438 192.35 32.5502 192.554 32.5804C192.801 32.6196 193.057 32.6462 193.296 32.6658C197.171 32.8117 200.963 32.5235 204.601 31.3135C206.177 31.5715 207.969 32.1622 209.744 33.2939C209.106 33.6355 208.385 34.011 207.598 34.4096C198.35 36.9595 180.441 42.077 179.858 43.5717C179.594 44.2496 179.508 44.8848 179.588 45.4703L178.403 45.9098C178.167 45.997 177.979 46.1749 177.881 46.4062C177.783 46.6358 177.782 46.9027 177.879 47.1429C177.975 47.3813 178.16 47.5735 178.389 47.6731C178.62 47.771 178.879 47.7674 179.109 47.6678L180.347 47.1287C181.189 48.1323 182.684 48.9011 184.699 49.3815C181.51 49.3121 177.698 48.8922 174.815 47.668C174.614 45.8654 174.396 44.0112 174.177 42.1464ZM180.491 22.6105C180.865 24.6034 183.443 25.7885 186.248 25.2583C189.053 24.728 191.023 22.6834 190.648 20.6905C190.271 18.6994 187.694 17.5143 184.889 18.0446C182.084 18.5748 180.116 20.6193 180.491 22.6105Z" fill="#855747"/>
<path fill-rule="evenodd" clip-rule="evenodd" d="M186.248 25.2583C183.443 25.7885 180.865 24.6034 180.491 22.6105C180.116 20.6193 182.084 18.5748 184.889 18.0446C187.694 17.5143 190.271 18.6994 190.648 20.6905C191.023 22.6834 189.053 24.728 186.248 25.2583ZM184.63 18.4911C184.63 18.4911 183.557 20.71 183.866 22.1299C184.152 23.4449 185.82 24.968 185.82 24.968C184.363 25.0855 181.469 24.6798 181.038 22.1299C181.038 20.1068 184.058 18.5836 184.63 18.4911Z" fill="#34221B"/>
<path d="M184.63 18.4911C184.63 18.4911 183.557 20.71 183.866 22.1299C184.152 23.4449 185.82 24.968 185.82 24.968C184.363 25.0855 181.469 24.6798 181.038 22.1299C181.038 20.1068 184.058 18.5836 184.63 18.4911Z" fill="white"/>
<path fill-rule="evenodd" clip-rule="evenodd" d="M144.499 31.6106C143.139 31.2618 140.495 31.203 138.522 32.8739C137.886 33.4113 137.319 34.1302 136.888 35.0768C139.323 38.5146 145.952 37.342 148.963 36.3242C148.356 33.648 149.697 31.7458 151.496 30.8756C149.635 24.8737 144.776 22.5979 140.9 23.847C140.9 27.9503 143.3 30.7333 144.499 31.6106Z" fill="#181716"/>
<path fill-rule="evenodd" clip-rule="evenodd" d="M150.036 38.8705C151.086 35.7121 152.339 32.995 154.227 30.3632C153.966 30.3383 153.699 30.3365 153.431 30.3561C152.772 30.4041 152.108 30.5803 151.496 30.8756C149.697 31.7458 148.356 33.648 148.963 36.3242C149.141 37.1089 149.486 37.9594 150.036 38.8705Z" fill="black"/>
<path d="M174.815 47.668C175.019 49.4972 175.204 51.2748 175.355 52.9581C175.636 56.1077 176.138 59.1255 176.934 61.8515C177.156 62.6113 177.377 63.3444 177.593 64.0544C178.812 65.1718 181.553 67.4228 184.638 69.3178C184.921 69.4904 185.205 69.6613 185.491 69.8268C186.214 70.2449 186.949 70.6382 187.683 70.9852C188.175 70.4602 188.619 69.9531 189.021 69.4602C193.524 63.9352 192.549 60.4298 191.795 57.7197C191.447 56.4653 191.145 55.3835 191.458 54.3479C193.877 49.5791 191.019 47.5577 189.287 47.1431C189.289 47.4562 189.312 47.7712 189.358 48.0843C189.413 48.4634 189.461 48.8405 189.504 49.2178C188.379 49.3352 186.656 49.4242 184.699 49.3815C181.51 49.3121 177.698 48.8922 174.815 47.668Z" fill="#181716"/>
<path fill-rule="evenodd" clip-rule="evenodd" d="M123.023 69.0722C123.334 69.1042 123.563 69.2165 123.728 69.3766C123.547 69.2894 123.311 69.1879 123.023 69.0722ZM115.681 66.4903C115.821 64.0561 114.116 62.5366 111.835 62.944C111.256 63.0472 106.16 63.8693 105.744 60.4493C105.33 57.0275 99.6582 55.8727 98.3685 59.339C98.182 59.8443 97.8977 60.3052 97.5514 60.7198C103.063 62.4262 110.192 64.67 115.681 66.4903Z" fill="#EAD0B0"/>
<path fill-rule="evenodd" clip-rule="evenodd" d="M162.588 79.3856C162.533 79.471 162.476 79.5546 162.419 79.6364L162.407 79.6542C162.483 79.5439 162.558 79.4302 162.631 79.3127C162.624 79.3252 162.617 79.3359 162.611 79.3483C162.602 79.3608 162.595 79.3731 162.588 79.3856Z" fill="#34221B"/>
<path fill-rule="evenodd" clip-rule="evenodd" d="M162.512 79.5083C162.48 79.5617 162.448 79.6132 162.416 79.6666C162.173 80.0599 161.94 80.4353 161.716 80.7912C160.115 83.3411 159.012 84.8965 158.618 85.4054C159.963 85.352 161.54 85.1454 163.201 84.7433C163.382 84.6988 163.565 84.6525 163.75 84.6045C165.319 84.1863 166.949 83.5903 168.52 82.7771C174.128 79.8767 178.972 74.2183 177.593 64.0544C177.377 63.3444 177.156 62.6113 176.934 61.8515C176.138 59.1255 175.636 56.1077 175.355 52.9581C175.204 51.2748 175.019 49.4972 174.815 47.668C174.614 45.8654 174.396 44.0112 174.177 42.1464C173.019 32.3135 171.822 22.139 172.95 17.3346C161.865 21.9913 161.727 22.1408 154.717 29.7655L154.451 30.0553C154.374 30.1585 154.3 30.26 154.227 30.3632C152.339 32.995 151.086 35.7121 150.036 38.8705C149.169 41.4791 148.439 44.3904 147.606 47.805C146.459 52.4973 145.604 56.3389 144.977 59.4582C145.599 60.2945 146.363 61.4921 147.13 62.9494C148.073 64.7395 149.02 66.9264 149.717 69.3214C150.134 70.7574 150.459 72.2681 150.64 73.8162C150.683 74.1739 150.717 74.5351 150.742 74.8963C150.845 76.3554 150.809 77.8394 150.591 79.3127C151.464 78.7469 152.989 77.6152 154.317 76.2877C154.605 76.0012 154.884 75.7059 155.145 75.4034C155.28 75.2486 155.41 75.092 155.532 74.9354C155.875 74.4994 156.174 74.0582 156.403 73.6205C156.36 73.9461 156.31 74.2735 156.257 74.6009C155.449 79.5298 153.502 84.505 152.251 84.7399H152.275C153.218 84.7399 158.163 84.7415 161.634 80.6702C161.901 80.3553 162.16 80.019 162.407 79.6542C162.483 79.5439 162.558 79.4302 162.631 79.3127L162.588 79.3856L162.512 79.5083Z" fill="#34221B"/>
<path fill-rule="evenodd" clip-rule="evenodd" d="M177.593 64.0544C178.812 65.1718 181.553 67.4228 184.638 69.3178C184.072 70.4282 182.691 72.5119 181.711 71.9568C180.487 71.2628 176.611 70.5973 177.302 75.0671C177.856 78.6419 172.92 81.3235 170.383 82.2167V86.1402L167.747 86.1419L168.042 85.2149C168.095 85.0494 168.166 84.8892 168.253 84.7397C168.504 84.3038 168.614 83.802 168.568 83.3037L168.52 82.7771C174.128 79.8767 178.972 74.2183 177.593 64.0544Z" fill="#855747"/>
<path fill-rule="evenodd" clip-rule="evenodd" d="M186.909 75.0672L188.433 75.0653C189.102 75.0653 189.765 74.9479 190.412 74.7753C193.687 73.9052 196.21 74.3589 198.064 75.48C198.981 76.0334 199.734 76.7504 200.335 77.5493C202.493 80.4231 202.678 84.368 201.372 85.7026C200.994 86.0887 200.407 86.1154 199.867 86.1154L198.48 86.1171V86.1101C198.482 86.0958 198.482 86.0833 198.484 86.0709V86.0496C198.485 86.0265 198.487 86.0015 198.489 85.9783L198.491 85.9499C198.695 82.9961 197.949 79.5673 195.24 77.4854C195.092 77.3715 194.938 77.2647 194.78 77.1651C194.597 77.0459 194.378 77.0084 194.169 77.0671C193.959 77.1276 193.774 77.2789 193.662 77.4835C193.549 77.6864 193.517 77.923 193.575 78.133C193.636 78.343 193.783 78.5103 193.98 78.6028C194.108 78.6615 194.236 78.7273 194.362 78.7985C196.691 80.0975 197.928 83.0477 198.096 85.9499C198.1 86.0068 198.103 86.062 198.107 86.1171L173.566 86.1385C177.085 86.135 180.165 81.1278 181.709 77.6615C181.935 77.1526 182.128 76.6757 182.285 76.254L182.148 79.5815C182.166 80.1384 182.002 80.626 181.848 81.0922C181.8 81.2381 181.752 81.3804 181.711 81.5228C183.793 80.5708 185.585 77.8466 186.909 75.0672Z" fill="#855747"/>
<path fill-rule="evenodd" clip-rule="evenodd" d="M194.156 41.116L191.458 42.2922C190.049 43.4542 189.278 45.2658 189.287 47.1431C191.019 47.5577 193.877 49.5791 191.458 54.3479C191.145 55.3835 191.447 56.4653 191.795 57.7197C192.549 60.4298 193.524 63.9352 189.021 69.4602C188.626 70.8838 187.898 72.9906 186.909 75.0672L188.433 75.0653C189.102 75.0653 189.765 74.9479 190.412 74.7753C193.687 73.9052 196.21 74.3589 198.064 75.48L200.002 72.373C199.818 73.1738 199.532 74.9887 199.867 75.8393C200.859 75.2681 201.678 74.5955 202.342 73.8357C208.009 67.3641 202.583 54.5898 198.675 45.3868C197.793 43.3049 196.986 41.4062 196.403 39.8047C195.744 40.1125 195.092 40.415 194.449 40.7121C194.446 40.7584 194.433 40.8046 194.416 40.8491C194.366 40.9683 194.274 41.0662 194.156 41.116Z" fill="#34221B"/>
<path fill-rule="evenodd" clip-rule="evenodd" d="M98.4218 68.2146C98.4022 68.2003 98.3845 68.1915 98.3685 68.1861L98.4218 68.2146Z" fill="#A77D6F"/>
<path fill-rule="evenodd" clip-rule="evenodd" d="M98.4218 68.2146C98.4022 68.2003 98.3845 68.1915 98.3685 68.1861L98.4218 68.2146Z" fill="#A77D6F"/>
<path fill-rule="evenodd" clip-rule="evenodd" d="M98.4218 68.2146C98.4022 68.2003 98.3845 68.1915 98.3685 68.1861L98.4218 68.2146Z" fill="#A77D6F"/>
<path fill-rule="evenodd" clip-rule="evenodd" d="M98.4218 68.2146C98.4022 68.2003 98.3845 68.1915 98.3685 68.1861L98.4218 68.2146Z" fill="#A77D6F"/>
<path d="M97.5514 60.7198C97.26 61.0686 96.9243 61.3851 96.5602 61.6734C94.9668 62.9332 92.8369 63.6325 91.6272 63.8692C91.1173 64.4582 90.5667 65.0063 89.9734 65.5027C86.4739 68.4369 81.5107 69.5793 74.7391 66.8924C77.6115 68.5668 80.7344 69.848 83.9497 70.4245C87.3852 71.3516 91.7835 67.7483 93.1513 66.5187C93.3804 66.3123 93.5243 66.1736 93.5652 66.1327C93.5652 66.259 93.5226 66.4208 93.4462 66.613C92.9151 67.9529 90.7212 70.7199 89.5506 72.0954C92.0428 72.5118 97.9937 70.2929 97.9937 69.8765C98.2051 70.0882 98.4183 70.7075 98.5995 71.4797C98.8908 72.7217 99.1004 74.357 99.1004 75.3214C99.8376 75.4745 101.182 74.8143 102.413 74.0421C103.216 73.5403 103.971 72.9904 104.478 72.59L104.449 75.3214C106.146 76.325 107.302 77.9674 107.933 79.7201C108.542 79.1667 109.842 77.8072 110.174 76.809C110.395 77.6969 113.219 81.3375 114.603 83.0475C115.527 82.3091 117.399 80.6632 117.509 79.9977C119.17 83.3251 122.353 85.2665 123.739 85.8216L126.091 81.9692C126.62 82.1489 127.036 82.2575 127.315 82.2842C126.346 80.8963 125.599 79.3465 125.064 77.7326C124.508 76.0475 124.181 74.2947 124.078 72.5901C124.041 71.9851 124.032 71.389 124.05 70.8018L124.051 70.7574V70.7538L124.053 70.7181C124.055 70.6861 124.057 70.6541 124.059 70.6203C124.064 70.4957 124.071 70.373 124.082 70.2484C124.059 69.9139 123.956 69.599 123.728 69.3766C123.547 69.2894 123.311 69.1879 123.023 69.0722C122.305 68.9939 121.152 69.3372 119.372 70.4547C118.891 70.7572 118.363 71.1167 117.786 71.5402C112.187 75.6435 111.762 73.9495 112.251 72.59C113.642 71.2483 114.558 69.944 115.093 68.7483C115.456 67.9369 115.642 67.1772 115.681 66.4903C110.192 64.67 103.063 62.4262 97.5514 60.7198ZM98.4218 68.2146C98.4022 68.2003 98.3845 68.1915 98.3685 68.1861L98.4218 68.2146Z" fill="#EAD0B0"/>
<path fill-rule="evenodd" clip-rule="evenodd" d="M101.731 28.8704C106.774 30.0483 112.047 31.1213 117.445 31.8865C115.992 31.7014 113.233 31.7459 112.388 33.2744C111.281 35.278 115.296 36.0467 116.957 36.0467C117.628 35.9631 118.252 35.8813 118.825 35.8047C121.087 35.5058 122.588 35.3083 123.323 35.4934C120.831 36.9258 115.738 39.9579 115.296 40.6234C114.955 41.1341 115.553 41.7479 116.067 42.2746C116.39 42.6074 116.679 42.9045 116.679 43.118C116.679 43.2995 116.425 43.3779 116.129 43.4686C115.523 43.6537 114.736 43.8939 115.573 45.1982C116.569 46.7516 119.586 46.5843 120.969 46.3067C120.646 46.9544 120.166 48.2765 120.831 48.3868C121.662 48.5256 124.153 47.6929 125.261 47.2783C124.568 51.0204 120.278 53.5168 117.648 54.4866C117.164 57.1485 119.738 57.5934 120.678 57.7554C120.815 57.7785 120.918 57.7963 120.969 57.8141C121.135 57.8693 121.147 58.3586 121.161 58.9564C121.186 59.8675 121.215 61.0295 121.801 61.2804C125.897 59.396 126.737 61.4192 126.645 62.6665C128.411 63.6381 132.457 62.3907 134.118 58.6468C135.87 54.6983 140.117 55.3656 141.316 55.7357C140.394 56.4279 137.939 58.7857 135.504 62.6665C133.052 66.5741 129.436 66.0775 127.467 65.8071C126.991 65.743 126.611 65.6897 126.368 65.7181C125.858 65.7733 125.3 65.3196 124.631 64.7715C123.666 63.9815 122.465 63.0011 120.831 63.0829C119.298 63.1594 118.87 62.2163 118.415 61.2163C118.049 60.412 117.667 59.5722 116.679 59.2003C111.697 58.4885 113.661 55.5294 114.891 53.6806C115.335 53.0133 115.683 52.4901 115.573 52.2695C115.356 51.8353 114.315 52.0417 113.407 52.2196C112.567 52.3851 111.841 52.5293 111.974 52.1307C112.194 51.4652 110.865 49.9117 110.174 49.2178C105.099 48.4331 96.9421 46.3067 104.915 44.0896C112.887 41.8707 111.373 41.0379 109.62 40.8991C105.87 41.4543 98.6546 41.9543 99.7932 39.513C101.786 35.4133 98.6421 35.892 94.6079 36.5076C92.0961 36.8902 89.238 37.3261 87.0601 36.7407C89.222 33.2335 94.4268 33.1802 96.951 33.1535C97.8179 33.1446 98.3685 33.1392 98.3685 32.9969C98.3685 32.5538 100.61 30.0608 101.731 28.8704Z" fill="#EAD0B0"/>
<path fill-rule="evenodd" clip-rule="evenodd" d="M56.2932 26.5037C56.3625 26.3525 56.4388 26.2012 56.5205 26.057C55.19 25.4965 53.943 25.3348 52.8062 25.3935C54.0496 25.7298 55.2167 26.1016 56.2932 26.5037Z" fill="#664437"/>
<path d="M21.7301 20.4592C13.1485 23.9415 5.45492 30.3081 0.516586 41.0343C0.157757 41.8119 -0.405345 43.3476 0.449094 43.3084C0.962467 43.2853 1.91105 42.3458 3.33571 40.9383C6.86716 37.4436 13.3208 31.0591 23.3218 28.5679C23.3911 28.5501 23.4603 28.5323 23.5296 28.5163C22.613 29.7726 20.119 31.3901 18.0957 32.7033C17.0636 33.3723 16.1541 33.9613 15.6407 34.383C22.398 34.7406 26.2102 31.9435 28.3827 30.3492C28.7468 30.0822 29.0648 29.8491 29.3419 29.6694C29.2034 30.7726 23.6682 34.383 21.7301 35.3546C27.2671 36.9062 34.7403 32.0271 37.7851 29.3918C36.4474 30.7797 33.4667 33.8296 32.2499 34.9382C35.7493 35.1197 39.0854 34.0894 42.3699 33.0752C46.6208 31.762 50.7829 30.4753 55.0995 31.8757C55.2309 30.1746 55.5666 28.4859 56.1439 26.8436C56.1901 26.7315 56.2399 26.6158 56.2932 26.5037C55.2167 26.1016 54.0496 25.7298 52.8062 25.3935C50.9196 25.4931 49.3369 26.2049 48.1716 26.728C47.0738 27.2227 46.3473 27.5501 46.0897 27.0358C45.7362 26.3276 44.8071 26.2707 43.6667 26.1996C42.5742 26.1319 41.2899 26.0537 40.1388 25.3775C39.1707 24.8099 40.1015 24.6142 41.5031 24.3206C42.1035 24.1942 42.7927 24.0483 43.4553 23.849C44.999 23.3828 46.3987 22.6159 46.2282 21.0731C45.9546 18.6016 41.3911 19.6976 37.6074 20.6069C35.6641 21.0749 33.925 21.4931 33.0794 21.3507C30.589 20.9344 27.8196 22.1834 25.3291 23.5696C23.336 24.6781 22.0996 21.9574 21.7301 20.4592Z" fill="#EAD0B0"/>
<path fill-rule="evenodd" clip-rule="evenodd" d="M124.885 70.8C125.023 73.6257 125.847 76.5261 127.244 78.9799C128.759 79.245 130.207 78.3784 131.304 77.3161C131.898 76.7396 132.39 76.1062 132.734 75.5617C134.095 71.4745 132.516 71.4032 126.684 71.1381L126.368 71.1239C126.199 71.1168 126.05 71.1043 125.915 71.0901C124.966 70.9798 124.869 70.6826 125.348 70.2822C125.171 70.0224 125.003 69.7716 124.849 69.5296C124.87 69.5794 124.881 69.6346 124.879 69.6915C124.865 70.0527 124.869 70.4281 124.885 70.8Z" fill="#855747"/>
<path fill-rule="evenodd" clip-rule="evenodd" d="M137.493 85.747C137.593 85.8716 137.667 86.0157 137.714 86.1687L147.779 86.1599C147.048 86.0923 146.324 85.9784 145.606 85.8218C141.581 84.1598 144.114 82.263 145.883 81.5227C149.343 79.028 147.96 77.9177 145.883 77.9177C144.833 77.9177 145.727 75.7379 147.024 73.4496C147.162 73.2059 147.304 72.9621 147.448 72.7183C148.221 71.4247 149.07 70.1666 149.717 69.3214C149.02 66.9264 148.073 64.7395 147.13 62.9494C146.032 65.9513 141.954 72.1507 141.593 69.5296C141.519 68.9887 141.664 68.4139 141.799 67.8819C142.165 66.4388 142.448 65.3231 137.994 66.1328C133.722 66.841 126.819 69.0491 125.348 70.2822C124.869 70.6826 124.966 70.9798 125.915 71.0901C126.05 71.1043 126.199 71.1168 126.368 71.1239L126.684 71.1381C132.516 71.4032 134.095 71.4745 132.734 75.5617C132.39 76.1062 131.898 76.7396 131.304 77.3161C130.207 78.3784 128.759 79.245 127.244 78.9799C129.1 82.2415 131.967 84.7149 135.582 85.1687C135.928 85.2221 136.259 85.2576 136.61 85.2825C136.959 85.3092 137.277 85.473 137.493 85.747Z" fill="#EAD0B0"/>
<path fill-rule="evenodd" clip-rule="evenodd" d="M184.638 69.3178C184.921 69.4904 185.205 69.6613 185.491 69.8268C186.214 70.2449 186.949 70.6382 187.683 70.9852C188.175 70.4602 188.619 69.9531 189.021 69.4602C188.626 70.8838 187.898 72.9906 186.909 75.0672C185.585 77.8466 183.793 80.5708 181.711 81.5228C181.752 81.3804 181.8 81.2381 181.848 81.0922C182.002 80.626 182.166 80.1384 182.148 79.5815L182.285 76.254C182.128 76.6757 181.935 77.1526 181.709 77.6615C180.165 81.1278 177.085 86.135 173.566 86.1385L170.383 86.1402V82.2167C172.92 81.3235 177.856 78.6419 177.302 75.0671C176.611 70.5973 180.487 71.2628 181.711 71.9568C182.691 72.5119 184.072 70.4282 184.638 69.3178Z" fill="#EAD0B0"/>
<path fill-rule="evenodd" clip-rule="evenodd" d="M198.48 86.1101V86.1171C198.475 86.1812 198.469 86.2471 198.464 86.3129C198.46 86.3574 198.455 86.4036 198.452 86.4499C198.448 86.4908 198.427 86.53 198.395 86.5585C198.363 86.5852 198.324 86.6012 198.283 86.5994C198.242 86.5994 198.203 86.5816 198.173 86.5513C198.142 86.5211 198.125 86.4819 198.123 86.441C198.119 86.3306 198.114 86.2239 198.107 86.1171C198.103 86.062 198.1 86.0068 198.096 85.9499C197.928 83.0477 196.691 80.0975 194.362 78.7985C194.236 78.7273 194.108 78.6615 193.98 78.6028C193.783 78.5103 193.636 78.343 193.575 78.133C193.517 77.923 193.549 77.6864 193.662 77.4835C193.774 77.2789 193.959 77.1276 194.169 77.0671C194.378 77.0084 194.597 77.0459 194.78 77.1651C194.938 77.2647 195.092 77.3715 195.24 77.4854C197.949 79.5673 198.695 82.9961 198.491 85.9499L198.489 85.9783C198.487 86.0015 198.485 86.0265 198.484 86.0496V86.0709C198.482 86.0833 198.482 86.0958 198.48 86.1101Z" fill="#34221B"/>
<path fill-rule="evenodd" clip-rule="evenodd" d="M124.785 69.4299C124.812 69.4601 124.833 69.494 124.849 69.5296C125.003 69.7716 125.171 70.0224 125.348 70.2822C126.819 69.0491 133.722 66.841 137.994 66.1328C142.448 65.3231 142.165 66.4388 141.799 67.8819C141.664 68.4139 141.519 68.9887 141.593 69.5296C141.954 72.1507 146.032 65.9513 147.13 62.9494C146.363 61.4921 145.599 60.2945 144.977 59.4582C145.604 56.3389 146.459 52.4973 147.606 47.805C148.439 44.3904 149.169 41.4791 150.036 38.8705C149.486 37.9594 149.141 37.1089 148.963 36.3242C145.952 37.342 139.323 38.5146 136.888 35.0768C137.319 34.1302 137.886 33.4113 138.522 32.8739C131.505 33.3294 124.476 32.8722 117.648 31.9149C117.58 31.906 117.513 31.8954 117.445 31.8865C115.992 31.7014 113.233 31.7459 112.388 33.2744C111.281 35.278 115.296 36.0467 116.957 36.0467C117.628 35.9631 118.252 35.8813 118.825 35.8047C121.087 35.5058 122.588 35.3083 123.323 35.4934C120.831 36.9258 115.738 39.9579 115.296 40.6234C114.955 41.1341 115.553 41.7479 116.067 42.2746C116.39 42.6074 116.679 42.9045 116.679 43.118C116.679 43.2995 116.425 43.3779 116.129 43.4686C115.523 43.6537 114.736 43.8939 115.573 45.1982C116.569 46.7516 119.586 46.5843 120.969 46.3067C120.646 46.9544 120.166 48.2765 120.831 48.3868C121.662 48.5256 124.153 47.6929 125.261 47.2783C124.568 51.0204 120.278 53.5168 117.648 54.4866C117.164 57.1485 119.738 57.5934 120.678 57.7554C120.815 57.7785 120.918 57.7963 120.969 57.8141C121.135 57.8693 121.147 58.3586 121.161 58.9564C121.186 59.8675 121.215 61.0295 121.801 61.2804C125.897 59.396 126.737 61.4192 126.645 62.6665C128.411 63.6381 132.457 62.3907 134.118 58.6468C135.87 54.6983 140.117 55.3656 141.316 55.7357C140.394 56.4279 137.939 58.7857 135.504 62.6665C133.052 66.5741 129.436 66.0775 127.467 65.8071C126.991 65.743 126.611 65.6897 126.368 65.7181C125.858 65.7733 125.3 65.3196 124.631 64.7715C123.666 63.9815 122.465 63.0011 120.831 63.0829C119.298 63.1594 118.87 62.2163 118.415 61.2163C118.049 60.412 117.667 59.5722 116.679 59.2003C111.697 58.4885 113.661 55.5294 114.891 53.6806C115.335 53.0133 115.683 52.4901 115.573 52.2695C115.356 51.8353 114.315 52.0417 113.407 52.2196C112.567 52.3851 111.841 52.5293 111.974 52.1307C112.194 51.4652 110.865 49.9117 110.174 49.2178C105.099 48.4331 96.9421 46.3067 104.915 44.0896C112.887 41.8707 111.373 41.0379 109.62 40.8991C105.87 41.4543 98.6546 41.9543 99.7932 39.513C101.786 35.4133 98.6421 35.892 94.6079 36.5076C92.0961 36.8902 89.238 37.3261 87.0601 36.7407C89.222 33.2335 94.4268 33.1802 96.951 33.1535C97.8179 33.1446 98.3685 33.1392 98.3685 32.9969C98.3685 32.5538 100.61 30.0608 101.731 28.8704C97.0736 27.7814 92.6113 26.6052 88.4261 25.5002C79.7982 23.2244 72.3481 21.2599 66.7916 21.025C66.0562 20.9948 65.3509 20.8738 64.6546 20.6353C54.1633 17.0463 36.6109 14.4199 21.7301 20.4592C22.0996 21.9574 23.336 24.6781 25.3291 23.5696C27.8196 22.1834 30.589 20.9344 33.0794 21.3507C33.925 21.4931 35.6641 21.0749 37.6074 20.6069C41.3911 19.6976 45.9546 18.6016 46.2282 21.0731C46.3987 22.6159 44.999 23.3828 43.4553 23.849C46.8518 24.0874 50.0208 24.6444 52.8062 25.3935C53.943 25.3348 55.19 25.4965 56.5205 26.057C56.5827 25.9485 56.6875 25.8667 56.8083 25.8311C56.9309 25.7938 57.0606 25.8044 57.1725 25.8596C57.2826 25.9165 57.3679 26.0143 57.4105 26.1353C57.4532 26.2546 57.4514 26.388 57.3998 26.5019C57.3057 26.7208 57.2222 26.961 57.1512 27.2012C56.295 30.7102 56.6396 34.495 57.6965 37.9737C59.1336 37.2886 61.9243 36.9044 61.5921 40.8369C61.363 43.5522 60.1603 45.191 59.3308 46.3245C58.6575 47.2427 58.2277 47.8281 58.7535 48.3868C59.9312 49.6342 59.4018 54.3477 59.0785 54.7641C58.7535 55.1805 60.608 63.2394 62.2849 58.3692C63.6687 54.3477 68.9286 50.7445 77.5085 55.1805C79.5851 56.983 76.956 60.0615 70.8648 61.2804C70.3568 62.6701 70.419 64.9885 74.7391 63.1558C78.0681 61.7429 80.7788 62.1505 83.1591 62.5081C83.4771 62.5562 83.7915 62.6024 84.0988 62.6434C88.3444 60.4387 95.4073 56.0257 96.8391 45.3244C97.3471 49.0114 96.6792 54.8425 94.3113 59.7234C94.1585 60.0383 93.9986 60.3497 93.8316 60.6558C93.201 61.8106 92.4692 62.8959 91.6272 63.8692C92.8369 63.6325 94.9668 62.9332 96.5602 61.6734C96.9243 61.3851 97.26 61.0686 97.5514 60.7198C97.8977 60.3052 98.182 59.8443 98.3685 59.339C99.6582 55.8727 105.33 57.0275 105.744 60.4493C106.16 63.8693 111.256 63.0472 111.835 62.944C114.116 62.5366 115.821 64.0561 115.681 66.4903C115.642 67.1772 115.456 67.9369 115.093 68.7483C114.558 69.944 113.642 71.2483 112.251 72.59C111.762 73.9495 112.187 75.6435 117.786 71.5402C118.363 71.1167 118.891 70.7572 119.372 70.4547C121.152 69.3372 122.305 68.9939 123.023 69.0722C123.334 69.1042 123.563 69.2165 123.728 69.3766C123.957 69.4869 124.099 69.5722 124.142 69.6292C124.154 69.5366 124.204 69.4494 124.279 69.3889C124.353 69.3284 124.446 69.2982 124.54 69.3053C124.634 69.3142 124.721 69.3587 124.785 69.4299Z" fill="#855747"/>
<path d="M56.3749 41.7513C56.0125 40.6072 55.7159 39.4417 55.4921 38.2655C54.4813 40.3456 52.069 44.643 50.5199 45.1982C48.9692 45.7533 46.6439 46.5434 45.6758 46.8691C46.0968 47.0488 46.77 47.1146 47.4468 47.1822C48.3279 47.2694 49.2125 47.3565 49.5501 47.6928C49.5803 47.7231 49.4026 47.8904 49.106 48.1733C47.9851 49.2409 45.15 51.942 45.2601 54.903C46.6439 53.7944 49.8822 51.4651 51.7652 51.0203C51.6515 51.1449 51.5218 51.2819 51.3797 51.4314C49.4683 53.4474 45.3933 57.7465 47.1981 64.3302C47.8891 63.0829 50.9338 59.0632 52.3194 58.0916L52.2821 58.1593C51.2643 60.0508 47.795 66.4994 51.3495 73.7593C51.3993 73.6098 51.4614 73.3571 51.5431 73.0243C51.9215 71.4887 52.7138 68.2734 54.5328 65.994C53.2876 70.5706 54.1171 77.0867 58.6859 80.9676C58.7499 80.5725 58.725 80.0494 58.6948 79.4498C58.6184 77.9124 58.5172 75.8661 59.8566 74.1258C61.3435 72.1916 64.6067 70.6346 71.6553 70.5705C72.1438 71.0848 72.6465 71.5243 73.0604 71.8428C72.6039 71.0652 72.3854 70.2147 72.5648 69.341C72.8118 68.1363 73.6786 67.2643 74.7391 66.8924C81.5107 69.5793 86.4739 68.4369 89.9734 65.5027C90.5667 65.0063 91.1173 64.4582 91.6272 63.8692C91.3039 63.2375 89.984 62.1131 87.2857 62.6665C86.2696 62.8765 85.2197 62.7964 84.0988 62.6434C83.7915 62.6024 83.4771 62.5562 83.1591 62.5081C80.7788 62.1505 78.0681 61.7429 74.7391 63.1558C70.419 64.9885 70.3568 62.6701 70.8648 61.2804C76.956 60.0615 79.5851 56.983 77.5085 55.1805C68.9286 50.7445 63.6687 54.3477 62.2849 58.3692C60.608 63.2394 58.7535 55.1805 59.0785 54.7641C59.4018 54.3477 59.9312 49.6342 58.7535 48.3868C58.2277 47.8281 58.6575 47.2427 59.3308 46.3245C60.1603 45.191 61.363 43.5522 61.5921 40.8369C61.9243 36.9044 59.1336 37.2886 57.6965 37.9737C57.995 38.9577 58.352 39.915 58.7535 40.8368C58.8583 41.0716 58.9649 41.2994 59.0785 41.5307C59.2295 41.8457 59.2473 42.2016 59.1158 42.5272C58.9862 42.8493 58.7162 43.1143 58.3787 43.2584C58.0412 43.4008 57.6645 43.4098 57.3412 43.2781C57.327 43.2728 57.3111 43.2656 57.2968 43.2603C56.9949 43.1233 56.7693 42.8706 56.6556 42.5574C56.5561 42.2887 56.4637 42.0218 56.3749 41.7513Z" fill="#EAD0B0"/>
<path d="M91.6272 63.8692C92.4692 62.8959 93.201 61.8106 93.8316 60.6558C93.9986 60.3497 94.1585 60.0383 94.3113 59.7234C96.6792 54.8425 97.3471 49.0114 96.8391 45.3244C95.4073 56.0257 88.3444 60.4387 84.0988 62.6434C85.2197 62.7964 86.2696 62.8765 87.2857 62.6665C89.984 62.1131 91.3039 63.2375 91.6272 63.8692Z" fill="#EAD0B0"/>
<path fill-rule="evenodd" clip-rule="evenodd" d="M77.9828 86.2184C78.1817 83.2699 77.4339 79.8535 74.7302 77.7751C74.5828 77.663 74.4283 77.5545 74.2719 77.4549C74.0872 77.3356 73.8687 77.2982 73.6591 77.3587C73.4495 77.4175 73.2665 77.5705 73.1528 77.7734C73.0391 77.9762 73.0071 78.2129 73.0675 78.4229C73.1262 78.6346 73.2736 78.8001 73.4708 78.8944C73.5987 78.9531 73.7284 79.019 73.8527 79.0901C76.1745 80.3838 77.4126 83.3233 77.5849 86.2184L61.2937 86.2327C61.5033 83.3999 61.3896 77.9658 59.8566 74.1258C61.3435 72.1916 64.6067 70.6346 71.6553 70.5705C72.1438 71.0848 72.6465 71.5243 73.0604 71.8428C73.858 73.2005 75.3822 74.341 76.7838 75.019C82.0436 77.5617 83.923 86.2132 79.6544 86.2167L77.9828 86.2184Z" fill="#855747"/>
<path fill-rule="evenodd" clip-rule="evenodd" d="M147.448 72.7183C148.221 71.4247 149.07 70.1666 149.717 69.3214C150.134 70.7574 150.459 72.2681 150.64 73.8162C150.683 74.1739 150.717 74.5351 150.742 74.8963C150.845 76.3554 150.809 77.8394 150.591 79.3127C151.464 78.7469 152.989 77.6152 154.317 76.2877C154.605 76.0012 154.884 75.7059 155.145 75.4034C155.28 75.2486 155.41 75.092 155.532 74.9354C155.875 74.4994 156.174 74.0582 156.403 73.6205C156.36 73.9461 156.31 74.2735 156.257 74.6009C155.449 79.5298 153.502 84.505 152.251 84.7399H152.275C153.218 84.7399 158.163 84.7415 161.634 80.6702C161.663 80.7094 161.689 80.7503 161.716 80.7912C160.115 83.3411 159.012 84.8965 158.618 85.4054C159.963 85.352 161.54 85.1454 163.201 84.7433C163.263 85.1383 163.306 85.5351 163.329 85.9337C163.333 85.9711 163.334 86.0102 163.336 86.0475C163.34 86.0796 163.341 86.1134 163.343 86.1455L147.779 86.1599C147.048 86.0923 146.324 85.9784 145.606 85.8218C141.581 84.1598 144.114 82.263 145.883 81.5227C149.343 79.028 147.96 77.9177 145.883 77.9177C144.833 77.9177 145.727 75.7379 147.024 73.4496C147.162 73.2059 147.304 72.9621 147.448 72.7183Z" fill="#855747"/>
<path d="M142.62 71.9531C142.732 71.8926 142.862 71.8748 142.982 71.9086C143.238 71.9798 143.494 72.0509 143.75 72.1221C148.361 73.3962 152.971 74.6721 157.582 75.9461C157.838 76.0173 158.094 76.0885 158.35 76.1596C158.598 76.2273 158.805 76.391 158.925 76.6187C159.044 76.8465 159.068 77.1186 158.989 77.3731C158.911 77.6258 158.739 77.8394 158.511 77.9586C158.284 78.0796 158.021 78.0974 157.778 78.0138C157.526 77.9266 157.275 77.8412 157.023 77.754C152.498 76.2006 147.974 74.6488 143.45 73.0954C143.199 73.0082 142.947 72.9228 142.696 72.8357C142.577 72.7947 142.48 72.7075 142.423 72.5954C142.364 72.4815 142.354 72.3534 142.389 72.2342C142.426 72.1132 142.51 72.0136 142.62 71.9531Z" fill="#34221B"/>
</svg>
