<svg width="223" height="89" viewBox="0 0 223 89" fill="none" xmlns="http://www.w3.org/2000/svg">
<path fill-rule="evenodd" clip-rule="evenodd" d="M148.61 47.9909C150.513 40.2428 151.874 35.0771 155.516 30.1576L155.786 29.8651C160.164 25.1188 161.882 23.2566 165.214 21.4143C167.258 20.2843 169.909 19.1617 174.154 17.3857C173.014 22.2152 174.211 32.443 175.367 42.3264C175.681 45.0079 175.993 47.6696 176.253 50.1859C176.359 51.2148 176.457 52.2202 176.544 53.1942C176.824 56.3597 177.329 59.3948 178.127 62.1345C179.03 65.2317 179.904 67.9054 180.661 70.2227C181.28 72.1164 181.822 73.7745 182.241 75.2375C182.251 75.2719 182.26 75.3061 182.27 75.3402L182.294 75.4245C184.036 81.6051 183.482 84.2556 176.992 86.5428H168.856L169.154 85.6112C169.207 85.4445 169.278 85.284 169.366 85.1325C169.619 84.696 169.73 84.1919 169.684 83.6896L169.565 82.3803L169.375 81.2682C169.282 80.7191 169.116 80.1846 168.882 79.6788L168.667 79.211L167.964 78.118C167.584 77.5263 167.107 77.002 166.555 76.5667L165.214 75.5105C164.589 75.0176 163.876 74.647 163.113 74.4181L162.848 74.3388L161.759 74.1738C161.445 74.1261 161.128 74.1022 160.81 74.1022H160.524C159.655 74.1022 158.794 74.2812 157.997 74.6279L157.03 75.0483C156.587 75.2973 156.104 75.4502 155.611 75.5045L152.224 74.3388L145.942 72.1763C144.922 71.4993 144.306 70.45 144.421 69.1507C144.463 68.6738 144.523 68.125 144.604 67.4981C145.064 63.9248 146.198 57.8129 148.61 47.9909Z" fill="black"/>
<path fill-rule="evenodd" clip-rule="evenodd" d="M210.521 27.4057C211.272 26.7501 212.016 26.042 212.745 25.2926C212.062 26.0391 211.323 26.7459 210.521 27.4057Z" fill="#191919"/>
<path d="M160.462 77.3966C160.673 77.3364 160.893 77.3742 161.078 77.4941C161.236 77.5951 161.391 77.7033 161.54 77.8164C164.266 79.9125 165.014 83.3594 164.806 86.3276C164.805 86.3406 164.804 86.3539 164.803 86.3669C164.8 86.4107 164.797 86.4543 164.794 86.4979C164.794 86.5045 164.793 86.5111 164.793 86.5181C164.792 86.5263 164.791 86.5346 164.791 86.5428C164.783 86.6383 164.775 86.7339 164.766 86.8311C164.762 86.872 164.741 86.9109 164.709 86.939C164.677 86.9671 164.637 86.9822 164.596 86.981C164.555 86.9798 164.515 86.9623 164.485 86.9323C164.455 86.9024 164.436 86.8624 164.435 86.8213C164.431 86.7271 164.427 86.6348 164.422 86.5428C164.418 86.4714 164.413 86.4002 164.409 86.3285C164.242 83.4108 162.998 80.4433 160.656 79.1371C160.529 79.0656 160.4 78.9993 160.271 78.9398C160.072 78.8458 159.924 78.6783 159.864 78.4669C159.804 78.2559 159.837 78.0182 159.951 77.8135C160.065 77.6089 160.251 77.4562 160.462 77.3966Z" fill="black"/>
<path d="M100.907 77.6331C101.118 77.573 101.338 77.6107 101.523 77.7306C101.681 77.8317 101.836 77.9398 101.985 78.0529C104.705 80.1437 105.455 83.5783 105.253 86.5414C105.252 86.549 105.252 86.5566 105.251 86.5641C105.24 86.7325 105.227 86.8976 105.211 87.0676C105.207 87.1086 105.186 87.1474 105.154 87.1755C105.122 87.2036 105.082 87.2187 105.041 87.2175C105 87.2163 104.961 87.1988 104.93 87.1688C104.9 87.1389 104.882 87.0989 104.88 87.0578C104.874 86.8906 104.865 86.729 104.854 86.565C104.853 86.5576 104.853 86.5503 104.853 86.543C104.681 83.6324 103.438 80.6765 101.101 79.3736C100.974 79.3021 100.845 79.2358 100.716 79.1764C100.517 79.0823 100.369 78.9148 100.31 78.7034C100.25 78.4924 100.282 78.2547 100.396 78.05C100.511 77.8454 100.696 77.6928 100.907 77.6331Z" fill="black"/>
<path d="M74.1333 77.6331C74.3447 77.573 74.5647 77.6107 74.7492 77.7306C74.9075 77.8317 75.0626 77.9398 75.2116 78.0529C77.9316 80.1441 78.6818 83.5795 78.479 86.543C78.4785 86.55 78.478 86.5571 78.4775 86.5641C78.4668 86.7325 78.4534 86.8976 78.4373 87.0676C78.4333 87.1086 78.4124 87.1474 78.3805 87.1755C78.3486 87.2036 78.3084 87.2187 78.2673 87.2175C78.2261 87.2163 78.187 87.1988 78.1568 87.1688C78.1266 87.1389 78.108 87.0989 78.1064 87.0578C78.1003 86.8906 78.0915 86.729 78.0802 86.565C78.0798 86.5576 78.0793 86.5503 78.0789 86.543C77.9073 83.6324 76.6639 80.6765 74.3273 79.3736C74.2008 79.3021 74.0715 79.2358 73.9422 79.1764C73.7433 79.0823 73.5957 78.9148 73.5359 78.7034C73.4759 78.4924 73.5086 78.2547 73.6229 78.05C73.7371 77.8454 73.9222 77.6928 74.1333 77.6331Z" fill="black"/>
<path d="M56.5418 26.8446C55.9587 28.4953 55.6196 30.1912 55.4863 31.9025C55.2276 35.2259 55.7454 38.6074 56.7609 41.8292C56.8504 42.1015 56.9431 42.3691 57.0422 42.6395C57.1565 42.9551 57.3848 43.2084 57.6884 43.3458C57.6914 43.3472 57.6945 43.3485 57.6975 43.3499C57.7003 43.3511 57.7035 43.3525 57.7063 43.3537C57.7104 43.3555 57.7184 43.3589 57.7226 43.3606C57.7259 43.362 57.7294 43.3634 57.7327 43.3648C58.0578 43.4972 58.4371 43.4885 58.7775 43.3449C59.1178 43.2013 59.3886 42.9356 59.5206 42.6103C59.6532 42.2848 59.6361 41.9263 59.4828 41.6098C59.37 41.3777 59.2624 41.1471 59.1574 40.9114C57.323 36.7094 56.4462 31.7277 57.556 27.2045C57.6265 26.9644 57.7115 26.7215 57.807 26.5024C57.8578 26.3878 57.8602 26.2545 57.8172 26.1335C57.7739 26.0124 57.6888 25.9135 57.577 25.857C57.4653 25.8004 57.3351 25.7903 57.2119 25.8271C57.089 25.8641 56.983 25.945 56.9207 26.0538C56.8381 26.1995 56.7617 26.3505 56.6911 26.5024C56.638 26.6166 56.5883 26.7313 56.5418 26.8446Z" fill="black"/>
<path fill-rule="evenodd" clip-rule="evenodd" d="M202.451 31.3223C199.897 31.6175 197.277 31.5591 194.795 31.2951C194.582 31.2636 194.361 31.2254 194.167 31.1814C193.963 31.1364 193.753 31.1752 193.581 31.2932C193.409 31.4111 193.289 31.5985 193.25 31.8103C193.21 32.0221 193.254 32.2399 193.372 32.4118C193.49 32.5839 193.673 32.6961 193.879 32.7276C194.127 32.7662 194.384 32.7935 194.626 32.8129C198.527 32.9629 202.345 32.6767 206.01 31.4643C205.699 31.4133 205.396 31.3753 205.104 31.3487C204.914 31.3314 204.728 31.3189 204.547 31.3108C203.641 31.2704 202.855 31.34 202.25 31.4665C202.299 31.4309 202.348 31.395 202.399 31.3588L202.429 31.3379L202.451 31.3223Z" fill="black"/>
<path d="M156.001 75.6389L155.611 75.5045L152.224 74.3388L145.942 72.1763L140.277 70.2261C140.216 70.2051 140.149 70.2095 140.09 70.2375C140.031 70.2655 139.985 70.3149 139.963 70.3755C139.941 70.4361 139.944 70.5031 139.97 70.5626C139.997 70.622 140.046 70.669 140.106 70.6925L151.366 75.0775L154.717 76.3824L155.602 76.7271C155.746 76.7829 155.904 76.7788 156.043 76.7141C156.183 76.6496 156.292 76.5296 156.346 76.3824C156.4 76.2352 156.394 76.0733 156.329 75.9339C156.265 75.7944 156.147 75.6889 156.001 75.6389Z" fill="black"/>
<path fill-rule="evenodd" clip-rule="evenodd" d="M209.812 27.9934L209.836 27.9881C212.648 27.367 215.608 27.5263 217.907 29.4732C223.888 34.5387 220.96 43.6261 216.395 38.9149C214.847 36.374 213.025 34.6296 211.186 33.4585C209.399 32.3207 207.595 31.7242 206.01 31.4643C205.699 31.4133 205.396 31.3753 205.104 31.3487C204.914 31.3314 204.728 31.3189 204.547 31.3108C203.641 31.2704 202.855 31.34 202.25 31.4665C202.299 31.4309 202.348 31.395 202.399 31.3588L202.429 31.3379L202.451 31.3223C203.565 30.5346 205.139 29.6228 206.915 28.9065C207.821 28.5413 208.78 28.2269 209.757 28.0058C209.775 28.0016 209.794 27.9975 209.812 27.9934ZM211.596 27.7185C211.565 27.7133 211.532 27.7209 211.506 27.739C211.479 27.7571 211.461 27.7842 211.454 27.815C211.447 27.8458 211.453 27.8781 211.47 27.9056C211.487 27.933 211.513 27.9533 211.544 27.9613C211.75 28.0152 211.955 28.0805 212.155 28.1545C215.683 29.5923 218.468 33.1619 218.699 36.6912C218.702 36.8837 218.694 37.0737 218.673 37.2576C218.653 37.4433 218.709 37.626 218.832 37.7658C218.956 37.9056 219.137 37.991 219.332 38.0029C219.527 38.0148 219.717 37.9522 219.857 37.8285C219.997 37.7049 220.074 37.5303 220.077 37.3435C220.083 37.0944 220.071 36.8461 220.046 36.6021C219.316 32.2999 216.051 29.0897 212.248 27.8627C212.033 27.8043 211.814 27.7553 211.596 27.7185Z" fill="#F1A4AC"/>
<path d="M211.506 27.739C211.532 27.7209 211.565 27.7133 211.596 27.7185C211.814 27.7553 212.033 27.8043 212.248 27.8627C216.051 29.0897 219.316 32.2999 220.046 36.6021C220.071 36.8461 220.083 37.0944 220.077 37.3435C220.074 37.5303 219.997 37.7049 219.857 37.8285C219.717 37.9522 219.527 38.0148 219.332 38.0029C219.137 37.991 218.956 37.9056 218.832 37.7658C218.709 37.626 218.653 37.4433 218.673 37.2576C218.694 37.0737 218.702 36.8837 218.699 36.6912C218.468 33.1619 215.683 29.5923 212.155 28.1545C211.955 28.0805 211.75 28.0152 211.544 27.9613C211.513 27.9533 211.487 27.933 211.47 27.9056C211.453 27.8781 211.447 27.8458 211.454 27.815C211.461 27.7842 211.479 27.7571 211.506 27.739Z" fill="black"/>
<path d="M56.5418 26.8446C55.9587 28.4953 55.6196 30.1912 55.4863 31.9025C52.1132 29.5313 38.373 24.861 23.493 28.5493C13.4219 31.0455 6.91868 37.4576 3.36036 40.966C1.92549 42.3808 0.969487 43.3234 0.451506 43.3467C3.65151 35.7124 15.0424 28.6087 27.2051 25.3464C38.3355 22.361 49.51 23.8256 56.6911 26.5024C56.638 26.6166 56.5883 26.7313 56.5418 26.8446Z" fill="#CC895F"/>
<path d="M212.745 25.2926C218.278 19.6034 222.943 11.5401 223 6.08022C222.421 6.41986 221.867 6.71449 221.335 6.96771C221.311 7.06101 221.287 7.15423 221.263 7.24719C219.391 13.552 217.307 20.3063 212.745 25.2926Z" fill="#CC895F"/>
<path fill-rule="evenodd" clip-rule="evenodd" d="M209.812 27.9934C209.794 27.9975 209.775 28.0016 209.757 28.0058C210.018 27.8104 210.273 27.6103 210.521 27.4057C210.294 27.6048 210.065 27.799 209.836 27.9881L209.812 27.9934ZM199.809 86.4009C199.807 86.425 199.805 86.4516 199.804 86.4756C199.803 86.4827 199.803 86.4897 199.802 86.4967C199.801 86.5121 199.8 86.5275 199.799 86.5428H199.424C199.43 86.6505 199.435 86.7583 199.439 86.8686C199.441 86.9097 199.459 86.9497 199.49 86.9796C199.52 87.0096 199.559 87.0271 199.6 87.0283C199.641 87.0295 199.681 87.0144 199.713 86.9863C199.745 86.9582 199.766 86.9193 199.77 86.8784C199.775 86.8318 199.779 86.7856 199.783 86.7397C199.788 86.6738 199.794 86.6084 199.799 86.5428C199.8 86.5275 199.801 86.5121 199.802 86.4967C199.804 86.4656 199.807 86.4321 199.809 86.4009Z" fill="#191919"/>
<path d="M196.082 77.5414C195.897 77.4215 195.677 77.3838 195.466 77.4439C195.255 77.5036 195.07 77.6562 194.956 77.8608C194.841 78.0655 194.809 78.3032 194.869 78.5142C194.928 78.7256 195.076 78.8931 195.275 78.9871C195.404 79.0466 195.534 79.1129 195.66 79.1844C198.003 80.4906 199.246 83.4581 199.413 86.3758C199.417 86.4316 199.42 86.4872 199.424 86.5428H199.799C199.8 86.5275 199.801 86.5121 199.802 86.4967L199.804 86.4756C199.805 86.4516 199.807 86.425 199.809 86.4009L199.81 86.3749C200.018 83.4067 199.271 79.9598 196.544 77.8637C196.395 77.7506 196.24 77.6424 196.082 77.5414Z" fill="black"/>
<path fill-rule="evenodd" clip-rule="evenodd" d="M215.532 0.605548C217.075 -0.142746 218.933 -0.296186 220.32 0.712183C222.248 2.11442 223.021 3.97753 223 6.08022C222.421 6.41986 221.867 6.71449 221.335 6.96771C221.311 7.06101 221.287 7.15423 221.263 7.24719C219.391 13.552 217.307 20.3063 212.745 25.2926C212.016 26.042 211.272 26.7501 210.521 27.4057C210.273 27.6103 210.018 27.8104 209.757 28.0058C208.78 28.2269 207.821 28.5413 206.915 28.9065C206.892 28.8714 206.872 28.834 206.856 28.7945C206.791 28.6352 206.792 28.4562 206.857 28.2951C206.923 28.1341 207.048 28.0041 207.206 27.9357C207.586 27.7706 207.956 27.5729 208.314 27.3495C214.255 23.0094 216.819 15.1997 218.665 7.95636C216.217 8.57924 214.393 8.18081 213.079 7.32857C211.474 6.28796 210.63 4.57072 210.341 3.20999C212.192 2.2564 213.941 1.3773 215.532 0.605548ZM213.079 3.37952C213.214 2.70362 216.289 1.31967 217.81 0.712183C220.32 0 218.074 2.73316 216.458 3.37952C215.613 3.71747 212.91 4.2244 213.079 3.37952Z" fill="black"/>
<path d="M217.81 0.712183C216.289 1.31967 213.214 2.70362 213.079 3.37952C212.91 4.2244 215.613 3.71747 216.458 3.37952C218.074 2.73316 220.32 0 217.81 0.712183Z" fill="white"/>
<path fill-rule="evenodd" clip-rule="evenodd" d="M75.2289 67.1139C75.1239 67.1506 75.0207 67.1921 74.9198 67.2384C75.504 67.5146 76.0814 67.7553 76.6884 67.9719C76.8148 68.0216 76.942 68.0694 77.0699 68.1151C76.4462 67.8005 75.8321 67.4659 75.2289 67.1139Z" fill="black"/>
<path d="M164.793 86.5181L164.791 86.5428H168.856L169.154 85.6112C169.207 85.4445 169.278 85.284 169.366 85.1325C169.619 84.696 169.73 84.1919 169.684 83.6896L169.565 82.3803L169.375 81.2682C169.282 80.7191 169.116 80.1846 168.882 79.6788L168.667 79.211L167.964 78.118C167.584 77.5263 167.107 77.002 166.555 76.5667L165.214 75.5105C164.589 75.0176 163.876 74.647 163.113 74.4181L162.848 74.3388L161.759 74.1738C161.445 74.1261 161.128 74.1022 160.81 74.1022H160.524C159.655 74.1022 158.794 74.2812 157.997 74.6279L157.03 75.0483C156.587 75.2973 156.104 75.4502 155.611 75.5045L156.001 75.6389C156.147 75.6889 156.265 75.7944 156.329 75.9339C156.394 76.0733 156.4 76.2352 156.346 76.3824C156.292 76.5296 156.183 76.6496 156.043 76.7141C155.904 76.7788 155.746 76.7829 155.602 76.7271L154.717 76.3824C152.795 77.526 149.208 81.159 150.233 86.5429L164.422 86.5428C164.418 86.4714 164.413 86.4002 164.409 86.3285C164.242 83.4108 162.998 80.4433 160.656 79.1371C160.529 79.0656 160.4 78.9993 160.271 78.9398C160.072 78.8458 159.924 78.6783 159.864 78.4669C159.804 78.2559 159.837 78.0182 159.951 77.8135C160.065 77.6089 160.251 77.4562 160.462 77.3966C160.673 77.3364 160.893 77.3742 161.078 77.4941C161.236 77.5951 161.391 77.7033 161.54 77.8164C164.266 79.9125 165.014 83.3594 164.806 86.3276L164.803 86.3669C164.8 86.4107 164.797 86.4543 164.794 86.4979L164.793 86.5181Z" fill="#CC895F"/>
<path fill-rule="evenodd" clip-rule="evenodd" d="M191.685 75.1367C189.307 76.2208 184.751 80.0197 185.549 86.5428H199.424C199.42 86.4872 199.417 86.4316 199.413 86.3758C199.246 83.4581 198.003 80.4906 195.66 79.1844C195.534 79.1129 195.404 79.0466 195.275 78.9871C195.076 78.8931 194.928 78.7256 194.869 78.5142C194.809 78.3032 194.841 78.0655 194.956 77.8608C195.07 77.6562 195.255 77.5036 195.466 77.4439C195.677 77.3838 195.897 77.4215 196.082 77.5414C196.24 77.6424 196.395 77.7506 196.544 77.8637C199.271 79.9598 200.018 83.4067 199.81 86.3749L199.809 86.4009C199.807 86.4321 199.804 86.4656 199.802 86.4967C199.801 86.5121 199.8 86.5275 199.799 86.5428H201.195C201.74 86.5428 202.33 86.5171 202.711 86.1287C204.027 84.7894 203.843 80.823 201.674 77.9338C199.849 75.5018 196.616 73.833 191.685 75.1367Z" fill="#CC895F"/>
<path d="M75.2116 78.0529C77.9316 80.1441 78.6818 83.5795 78.479 86.543H80.1622C84.4597 86.543 82.5739 77.8442 77.2818 75.2843C76.8352 75.0683 76.3763 74.8056 75.9323 74.5042C67.6874 70.2458 61.6684 76.4614 61.6684 81.5149C61.8027 83.4635 61.7721 85.2664 61.6763 86.543H78.0789C77.9073 83.6324 76.6639 80.6765 74.3273 79.3736C74.2008 79.3021 74.0715 79.2358 73.9422 79.1764C73.7433 79.0823 73.5957 78.9148 73.5359 78.7034C73.4759 78.4924 73.5086 78.2547 73.6229 78.05C73.7371 77.8454 73.9222 77.6928 74.1333 77.6331C74.3447 77.573 74.5647 77.6107 74.7492 77.7306C74.9075 77.8317 75.0626 77.9398 75.2116 78.0529Z" fill="#CC895F"/>
<path d="M100.907 77.6331C101.118 77.573 101.338 77.6107 101.523 77.7306C101.681 77.8317 101.836 77.9398 101.985 78.0529C104.705 80.1437 105.455 83.5783 105.253 86.5414C107.188 86.4977 109.1 85.5223 109.194 83.5891C109.329 80.7933 107.993 77.3024 105.134 75.6126C103.845 74.9663 101.092 73.1666 100.396 71.1389C93.2775 70.6285 90.2419 73.7862 89.1828 77.0581C88.6662 78.654 88.62 80.2772 88.7995 81.5149C89.3606 84.4532 91.9505 86.543 94.9419 86.543H104.853C104.681 83.6324 103.438 80.6765 101.101 79.3736C100.974 79.3021 100.845 79.2358 100.716 79.1764C100.517 79.0823 100.369 78.9148 100.31 78.7034C100.25 78.4924 100.282 78.2547 100.396 78.05C100.511 77.8454 100.696 77.6928 100.907 77.6331Z" fill="#CC895F"/>
<path fill-rule="evenodd" clip-rule="evenodd" d="M190.762 23.8072C191.815 22.9214 192.377 21.7544 192.16 20.6049C191.782 18.6045 189.189 17.4145 186.368 17.947C185.151 18.1766 184.09 18.6893 183.308 19.3587C184.068 18.7688 185.055 18.3199 186.173 18.1098C188.998 17.5793 191.592 18.7726 191.969 20.7753C192.171 21.8529 191.69 22.9453 190.762 23.8072ZM182.843 31.7554C182.843 33.7216 181.249 35.3155 179.283 35.3155C177.317 35.3155 175.723 33.7216 175.723 31.7554C175.723 29.7893 177.317 28.1954 179.283 28.1954C181.249 28.1954 182.843 29.7893 182.843 31.7554ZM187.443 14.7025C187.687 15.4503 186.369 16.55 184.499 17.1588C182.63 17.7675 180.917 17.6547 180.673 16.9069C180.43 16.1591 181.748 15.0594 183.617 14.4507C185.487 13.8419 187.2 13.9547 187.443 14.7025Z" fill="#191919"/>
<path d="M182.843 31.7554C182.843 33.7216 181.249 35.3155 179.283 35.3155C177.317 35.3155 175.723 33.7216 175.723 31.7554C175.723 29.7893 177.317 28.1954 179.283 28.1954C181.249 28.1954 182.843 29.7893 182.843 31.7554Z" fill="#CC895F"/>
<path d="M187.443 14.7025C187.687 15.4503 186.369 16.55 184.499 17.1588C182.63 17.7675 180.917 17.6547 180.673 16.9069C180.43 16.1591 181.748 15.0594 183.617 14.4507C185.487 13.8419 187.2 13.9547 187.443 14.7025Z" fill="#CC895F"/>
<path fill-rule="evenodd" clip-rule="evenodd" d="M192.126 43.1051C190.914 44.475 190.373 46.4082 190.647 48.3078C190.738 48.9358 190.812 49.5622 190.87 50.1859C190.918 50.7019 190.955 51.2161 190.982 51.7278C191.172 55.392 190.751 58.9323 189.936 62.1345C188.346 68.3797 185.259 73.3391 182.294 75.4245L189.693 75.4266C190.367 75.4266 191.034 75.3089 191.685 75.1367C196.616 73.833 199.849 75.5018 201.674 77.9338C201.72 77.9969 202.156 77.5665 203.529 75.3402C204.883 73.1451 197.929 52.5925 194.133 42.1686C194.083 42.2318 194.019 42.2825 193.944 42.3148L192.126 43.1051Z" fill="black"/>
<path fill-rule="evenodd" clip-rule="evenodd" d="M190.762 23.8072C191.69 22.9453 192.171 21.8529 191.969 20.7753C191.592 18.7726 188.998 17.5793 186.173 18.1098C185.055 18.3199 184.068 18.7688 183.308 19.3587C184.09 18.6893 185.151 18.1766 186.368 17.947C189.189 17.4145 191.782 18.6045 192.16 20.6049C192.377 21.7544 191.815 22.9214 190.762 23.8072Z" fill="#191919"/>
<path d="M186.106 18.3963C186.106 18.3963 185.028 20.6249 185.338 22.0493C185.626 23.3704 187.304 24.8995 187.304 24.8995C185.838 25.0173 182.927 24.6107 182.494 22.0493C182.494 20.0175 185.531 18.4889 186.106 18.3963Z" fill="white"/>
<path fill-rule="evenodd" clip-rule="evenodd" d="M186.173 18.1098C185.055 18.3199 184.068 18.7688 183.308 19.3587C182.148 20.2587 181.513 21.487 181.741 22.6968C182.117 24.6995 184.712 25.8929 187.536 25.3623C188.84 25.1172 189.966 24.5471 190.762 23.8072C191.69 22.9453 192.171 21.8529 191.969 20.7753C191.592 18.7726 188.998 17.5793 186.173 18.1098ZM186.106 18.3963C186.106 18.3963 185.028 20.6249 185.338 22.0493C185.626 23.3704 187.304 24.8995 187.304 24.8995C185.838 25.0173 182.927 24.6107 182.494 22.0493C182.494 20.0175 185.531 18.4889 186.106 18.3963Z" fill="black"/>
<path fill-rule="evenodd" clip-rule="evenodd" d="M57.6975 43.3499L57.6884 43.3458C57.6906 43.3464 57.6975 43.3499 57.6975 43.3499Z" fill="#191919"/>
<path fill-rule="evenodd" clip-rule="evenodd" d="M99.0519 68.4504C99.0489 68.4487 99.0415 68.4446 99.0387 68.4432C99.0387 68.4432 99.0485 68.4485 99.0519 68.4504Z" fill="#FAE3C6"/>
<path fill-rule="evenodd" clip-rule="evenodd" d="M99.02 68.4353C99.0226 68.4362 99.0254 68.4372 99.0282 68.4384L99.02 68.4353Z" fill="#191919"/>
<path fill-rule="evenodd" clip-rule="evenodd" d="M57.6975 43.3499L57.6884 43.3458C57.6906 43.3464 57.6975 43.3499 57.6975 43.3499ZM57.7343 43.6813C57.7438 43.7734 57.7536 43.867 57.7651 43.9621C57.7548 43.8681 57.7446 43.7745 57.7343 43.6813Z" fill="#191919"/>
<path fill-rule="evenodd" clip-rule="evenodd" d="M185.549 86.5428C184.751 80.0197 189.307 76.2208 191.685 75.1367C191.034 75.3089 190.367 75.4266 189.693 75.4266L182.294 75.4245C184.036 81.6051 183.482 84.2556 176.992 86.5428H182.224H185.549Z" fill="#291F1D"/>
<path fill-rule="evenodd" clip-rule="evenodd" d="M125.391 69.8051C125.209 70.5513 125.056 71.621 125.03 72.8699C124.972 75.7602 125.6 79.61 128.15 82.6293C129.963 85.2252 132.548 87.2478 135.962 88.0377C136.379 88.1388 136.776 88.2178 137.201 88.2836C137.548 88.339 137.897 88.2523 138.173 88.0342C138.449 87.8165 138.628 87.4852 138.67 87.1217C138.693 86.9241 138.675 86.7264 138.618 86.543C138.571 86.3889 138.496 86.2449 138.397 86.1193C138.179 85.8435 137.859 85.6787 137.508 85.6526C137.153 85.6269 136.821 85.5902 136.472 85.5355C131.417 84.8977 127.818 80.3467 126.383 75.1913L125.391 69.8051Z" fill="black"/>
<path d="M99.0519 68.4504L99.0387 68.4432L99.02 68.4353L91.0184 65.8754C87.0923 68.8787 81.638 69.7498 77.0699 68.1151C79.4358 69.3085 81.9391 70.2124 84.5001 70.6719C85.7532 71.708 86.7803 73.0335 87.3774 74.5042C87.5984 75.0485 87.7604 75.6127 87.8533 76.1895C87.9293 76.6618 88.0098 77.1448 88.0935 77.6331C88.3145 78.9226 88.5578 80.2492 88.7995 81.5149C88.62 80.2772 88.6662 78.654 89.1828 77.0581C90.2419 73.7862 93.2775 70.6285 100.396 71.1389C99.762 69.2895 99.2804 68.6115 99.0724 68.4638L99.0519 68.4504Z" fill="#291F1D"/>
<path fill-rule="evenodd" clip-rule="evenodd" d="M174.154 17.3857C173.014 22.2152 174.211 32.443 175.367 42.3264C175.681 45.0079 175.993 47.6696 176.253 50.1859C176.359 51.2148 176.457 52.2202 176.544 53.1942C181.271 49.5576 188.139 50.7014 190.982 51.7278C190.955 51.2161 190.918 50.7019 190.87 50.1859C186.548 50.084 183.344 49.148 181.804 47.5912L180.078 48.3412L178.836 48.8811C178.605 48.9816 178.346 48.9846 178.114 48.8858C177.883 48.7872 177.698 48.5947 177.601 48.3546C177.504 48.1145 177.505 47.8474 177.604 47.6159C177.702 47.3842 177.891 47.2071 178.127 47.1196L179.318 46.6787L181.096 46.0197C181.06 45.882 181.029 45.743 181.001 45.6029C180.93 45.2493 180.883 44.8884 180.86 44.5209C180.136 33.1598 201.417 15.3792 213.079 7.32857C211.474 6.28796 210.63 4.57072 210.341 3.20999C202.257 6.2522 183.703 13.3464 174.154 17.3857ZM187.536 25.3623C184.712 25.8929 182.117 24.6995 181.741 22.6968C181.513 21.487 182.148 20.2587 183.308 19.3587C184.09 18.6893 185.151 18.1766 186.368 17.947C189.189 17.4145 191.782 18.6045 192.16 20.6049C192.377 21.7544 191.815 22.9214 190.762 23.8072C189.966 24.5471 188.84 25.1172 187.536 25.3623ZM179.283 35.3155C181.249 35.3155 182.843 33.7216 182.843 31.7554C182.843 29.7893 181.249 28.1954 179.283 28.1954C177.317 28.1954 175.723 29.7893 175.723 31.7554C175.723 33.7216 177.317 35.3155 179.283 35.3155ZM184.499 17.1588C186.369 16.55 187.687 15.4503 187.443 14.7025C187.2 13.9547 185.487 13.8419 183.617 14.4507C181.748 15.0594 180.43 16.1591 180.673 16.9069C180.917 17.6547 182.63 17.7675 184.499 17.1588Z" fill="#291F1D"/>
<path d="M176.544 53.1942C176.824 56.3597 177.329 59.3948 178.127 62.1345C179.03 65.2317 179.904 67.9054 180.661 70.2227C181.28 72.1164 181.822 73.7745 182.241 75.2375L182.27 75.3402L182.294 75.4245C185.259 73.3391 188.346 68.3797 189.936 62.1345C190.751 58.9323 191.172 55.392 190.982 51.7278C188.139 50.7014 181.271 49.5576 176.544 53.1942Z" fill="#CC895F"/>
<path d="M99.0387 68.4432C99.0415 68.4446 99.0489 68.4487 99.0519 68.4504C99.0562 68.4531 99.0679 68.4606 99.0724 68.4638C107.586 73.0922 125.235 82.3595 128.15 82.6293C125.6 79.61 124.972 75.7602 125.03 72.8699L94.6249 61.1872C93.7184 63.188 92.5392 64.8649 91.0184 65.8754L99.02 68.4353L99.0387 68.4432Z" fill="#CC895F"/>
<path d="M74.9198 67.2384C75.0207 67.1921 75.1239 67.1506 75.2289 67.1139C75.8321 67.4659 76.4462 67.8005 77.0699 68.1151C81.638 69.7498 87.0923 68.8787 91.0184 65.8754C92.5392 64.8649 93.7184 63.188 94.6249 61.1872C94.8141 60.7694 94.9915 60.3374 95.1576 59.8945C96.9422 55.1355 97.4255 49.1062 97.3824 45.6749C95.2999 52.6352 87.8511 66.1716 74.7158 64.6343C68.0815 63.9288 70.3834 69.2557 73.5359 72.0883C73.0768 71.3062 72.8576 70.4525 73.0384 69.5736C73.2629 68.4825 73.9948 67.6626 74.9198 67.2384Z" fill="black"/>
<path d="M125.03 72.8699C125.056 71.621 125.209 70.5513 125.391 69.8051L95.1576 59.8945C94.9915 60.3374 94.8141 60.7694 94.6249 61.1872L125.03 72.8699Z" fill="#9D6644"/>
<path fill-rule="evenodd" clip-rule="evenodd" d="M148.61 47.9909C150.513 40.2428 151.874 35.0771 155.516 30.1576C152.687 31.0127 149.829 31.6617 146.958 32.1329C141.374 33.0492 135.738 33.2934 130.155 33.0746C126.273 32.9225 122.416 32.5465 118.62 32.0168C117.804 31.9029 116.99 31.7819 116.18 31.6545C111.401 30.903 106.731 29.9286 102.244 28.8745C101.625 28.729 101.009 28.582 100.396 28.4339C96.9377 27.5969 93.5957 26.7236 90.4046 25.8816C89.9492 25.7615 89.4954 25.6416 89.0463 25.5229C82.8919 23.8969 77.3321 22.4279 72.6245 21.6242C70.6886 21.2937 68.8966 21.0757 67.2664 21.0054C66.5263 20.9735 65.8162 20.8514 65.1154 20.6114C48.4644 14.9099 14.1402 11.5966 0.521561 41.0602C0.160225 41.842 -0.408836 43.3854 0.451506 43.3467C3.65151 35.7124 15.0424 28.6087 27.2051 25.3464C38.3355 22.361 49.51 23.8256 56.6911 26.5024C56.7617 26.3505 56.8381 26.1995 56.9207 26.0538C56.983 25.945 57.089 25.8641 57.2119 25.8271C57.3351 25.7903 57.4653 25.8004 57.577 25.857C57.6888 25.9135 57.7739 26.0124 57.8172 26.1335C57.8602 26.2545 57.8578 26.3878 57.807 26.5024C57.7115 26.7215 57.6265 26.9644 57.556 27.2045C56.4462 31.7277 57.323 36.7094 59.1574 40.9114C59.2624 41.1471 59.37 41.3777 59.4828 41.6098C59.6361 41.9263 59.6532 42.2848 59.5206 42.6103C59.3886 42.9356 59.1178 43.2013 58.7775 43.3449C58.4371 43.4885 58.0578 43.4972 57.7327 43.3648L57.7226 43.3606L57.7063 43.3537L57.6975 43.3499C57.7201 43.552 57.7426 43.7561 57.7651 43.9621C57.8725 44.8501 57.9843 45.8761 58.0878 46.974C58.568 52.0688 58.87 58.713 57.7327 60.3174C55.9311 62.8591 54.0723 67.3315 58.2967 71.3079C59.3089 72.2607 60.0432 73.6727 60.5677 75.2843C61.1987 77.2232 61.5261 79.4508 61.6684 81.5149C61.6684 76.4614 67.6874 70.2458 75.9323 74.5042C74.9736 73.8534 74.0839 73.0218 73.5359 72.0883C70.3834 69.2557 68.0815 63.9288 74.7158 64.6343C87.8511 66.1716 95.2999 52.6352 97.3824 45.6749C97.4255 49.1062 96.9422 55.1355 95.1576 59.8945L125.391 69.8051C128.709 74.8041 137.669 85.1503 146.958 86.5429L150.233 86.5429C149.208 81.159 152.795 77.526 154.717 76.3824L151.366 75.0775L140.106 70.6925C140.046 70.669 139.997 70.622 139.97 70.5626C139.944 70.5031 139.941 70.4361 139.963 70.3755C139.985 70.3149 140.031 70.2655 140.09 70.2375C140.149 70.2095 140.216 70.2051 140.277 70.2261L145.942 72.1763C144.922 71.4993 144.306 70.45 144.421 69.1507C144.463 68.6738 144.523 68.125 144.604 67.4981C145.064 63.9248 146.198 57.8129 148.61 47.9909Z" fill="#291F1D"/>
<path d="M138.618 86.543L146.958 86.5429C137.669 85.1503 128.709 74.8041 125.391 69.8051L126.383 75.1913C127.818 80.3467 131.417 84.8977 136.472 85.5355C136.821 85.5902 137.153 85.6269 137.508 85.6526C137.859 85.6787 138.179 85.8435 138.397 86.1193C138.496 86.2449 138.571 86.3889 138.618 86.543Z" fill="black"/>
<path fill-rule="evenodd" clip-rule="evenodd" d="M194.047 41.9321L194.133 42.1686C194.162 42.1319 194.186 42.091 194.204 42.0469C194.222 42.0026 194.234 41.9564 194.239 41.9099C194.247 41.8307 194.237 41.7503 194.207 41.6755C194.204 41.6684 194.201 41.6614 194.198 41.6544C194.16 41.6733 194.123 41.6921 194.086 41.711C194.045 41.7314 194.005 41.7519 193.966 41.7723L194.047 41.9321Z" fill="black"/>
<path d="M193.944 42.3148C194.019 42.2825 194.083 42.2318 194.133 42.1686L194.047 41.9321L193.966 41.7723C194.005 41.7519 194.045 41.7314 194.086 41.711C194.123 41.6921 194.16 41.6733 194.198 41.6544C194.148 41.5457 194.059 41.4588 193.947 41.4094C193.829 41.357 193.695 41.3515 193.575 41.3958L181.096 46.0197L179.318 46.6787L178.127 47.1196C177.891 47.2071 177.702 47.3842 177.604 47.6159C177.505 47.8474 177.504 48.1145 177.601 48.3546C177.698 48.5947 177.883 48.7872 178.114 48.8858C178.346 48.9846 178.605 48.9816 178.836 48.8811L180.078 48.3412L181.804 47.5912L192.126 43.1051L193.944 42.3148Z" fill="black"/>
<path d="M181.001 45.6029C181.029 45.743 181.06 45.882 181.096 46.0197L193.575 41.3958C193.695 41.3515 193.829 41.357 193.947 41.4094C194.059 41.4588 194.148 41.5457 194.198 41.6544C194.771 41.3666 195.381 41.0821 195.78 40.9027C200.297 38.8209 205.356 36.4352 209.023 34.579C199.99 36.3275 181.738 40.9801 181.001 45.6029Z" fill="#9D6644"/>
<path fill-rule="evenodd" clip-rule="evenodd" d="M194.795 31.2951C197.277 31.5591 199.897 31.6175 202.451 31.3223C203.565 30.5346 205.139 29.6228 206.915 28.9065C206.892 28.8714 206.872 28.834 206.856 28.7945C206.791 28.6352 206.792 28.4562 206.857 28.2951C206.923 28.1341 207.048 28.0041 207.206 27.9357C207.586 27.7706 207.956 27.5729 208.314 27.3495C214.255 23.0094 216.819 15.1997 218.665 7.95636C216.217 8.57924 214.393 8.18081 213.079 7.32857C201.417 15.3792 180.136 33.1598 180.86 44.5209C180.883 44.8884 180.93 45.2493 181.001 45.6029C181.738 40.9801 199.99 36.3275 209.023 34.579C209.816 34.178 210.543 33.8017 211.186 33.4585C209.399 32.3207 207.595 31.7242 206.01 31.4643C202.345 32.6767 198.527 32.9629 194.626 32.8129C194.384 32.7935 194.127 32.7662 193.879 32.7276C193.673 32.6961 193.49 32.5839 193.372 32.4118C193.254 32.2399 193.21 32.0221 193.25 31.8103C193.289 31.5985 193.409 31.4111 193.581 31.2932C193.753 31.1752 193.963 31.1364 194.167 31.1814C194.361 31.2254 194.582 31.2636 194.795 31.2951Z" fill="#CC895F"/>
<path d="M190.647 48.3078C190.373 46.4082 190.914 44.475 192.126 43.1051L181.804 47.5912C183.344 49.148 186.548 50.084 190.87 50.1859C190.812 49.5622 190.738 48.9358 190.647 48.3078Z" fill="#9D6644"/>
</svg>
